<svg width="63" height="14" viewBox="0 0 63 14" xmlns="http://www.w3.org/2000/svg">
<path clip-rule="evenodd" d="M6.8002 6.4L7.2002 5C7.24185 5.01389 7.30278 5.0297 7.37631 5.04878C7.83229 5.16711 8.77243 5.41108 8.6002 6.1C8.41702 6.83271 7.39501 6.5588 6.91705 6.43071C6.87315 6.41895 6.83384 6.40841 6.8002 6.4ZM6.2002 8.7L6.6002 7.1C6.62983 7.10741 6.66604 7.11591 6.70762 7.12568C7.22736 7.24774 8.58538 7.56667 8.4002 8.4C8.22576 9.18498 7.06236 8.90493 6.43609 8.75418C6.34433 8.73209 6.2641 8.71278 6.2002 8.7ZM21.0002 4.8C20.6002 4.6 20.1002 4.5 19.6002 4.5H19.1002C18.8002 4.5 18.6002 4.6 18.4002 4.7L19.4002 0.5L16.9002 0.9L14.1002 12.8C14.4002 13 14.7002 13.1 15.1002 13.2C15.4002 13.3 15.8002 13.4 16.1002 13.4C16.4002 13.5 16.7002 13.5 16.9002 13.5H17.4002C18.1002 13.5 18.8002 13.4 19.5002 13.1C20.2002 12.8 20.7002 12.4 21.2002 11.9C21.6002 11.5 22.0002 10.9 22.3002 10.2C22.6002 9.6 22.7002 8.9 22.7002 8.1C22.7002 7.6 22.6002 7.1 22.5002 6.7L22.5002 6.69995C22.3002 6.29997 22.1002 5.89999 21.9002 5.6C21.7002 5.2 21.4002 5 21.0002 4.8ZM19.5002 10.5C19.2002 10.8 18.9002 11 18.6002 11.2C18.2002 11.4 17.9002 11.5 17.5002 11.5H16.6002L17.7002 7C17.8002 6.95 17.9252 6.9 18.0502 6.85C18.1752 6.8 18.3002 6.75 18.4002 6.7C18.6002 6.6 18.8002 6.6 19.0002 6.6C19.5002 6.6 19.8002 6.7 20.0002 7C20.2002 7.3 20.3002 7.7 20.3002 8.2C20.3002 8.6 20.2002 9 20.1002 9.4C19.9002 9.8 19.7002 10.2 19.5002 10.5ZM22.9002 13.3H25.3002L27.3002 4.7H24.9002L22.9002 13.3ZM25.5002 3.3C25.8002 3.5 26.1002 3.6 26.4002 3.6C26.7002 3.6 26.9002 3.6 27.0002 3.5C27.1002 3.45 27.1752 3.375 27.2502 3.3C27.3252 3.225 27.4002 3.15 27.5002 3.1C27.7002 3 27.8002 2.8 27.9002 2.6C28.0002 2.4 28.0002 2.2 28.0002 2C28.0002 1.6 27.9002 1.3 27.6002 1.1C27.3002 0.9 27.0002 0.8 26.7002 0.8C26.5002 0.8 26.3002 0.8 26.1002 0.9C26.0002 0.95 25.9252 1.025 25.8502 1.1C25.7752 1.175 25.7002 1.25 25.6002 1.3C25.4002 1.4 25.3002 1.6 25.2002 1.8C25.1002 2 25.1002 2.2 25.1002 2.4C25.1002 2.8 25.2002 3.1 25.5002 3.3ZM31.9002 2.1L29.4002 2.5L27.8002 9.3C27.7856 9.38752 27.771 9.47292 27.7567 9.5565C27.6731 10.0459 27.6002 10.4729 27.6002 10.9C27.5002 11.4 27.6002 11.8 27.8002 12.2C28.0002 12.6 28.3002 12.9 28.7002 13.1C29.1002 13.3 29.6002 13.4 30.4002 13.4C31.0002 13.4 31.4002 13.4 31.8002 13.3L31.8003 13.3C32.2003 13.2 32.6002 13.1 32.9002 13L32.7002 11.1C32.5002 11.2 32.2002 11.3 32.0002 11.3C31.7002 11.4 31.5002 11.4 31.2002 11.4C30.9002 11.4 30.7002 11.4 30.5002 11.3C30.3002 11.2 30.2002 11.1 30.1002 10.9C30.0002 10.7 30.0002 10.5 30.0002 10.3C30.0002 10.1 30.0002 9.9 30.1002 9.6L30.8002 6.6H33.5002L34.0002 4.6H31.3002L31.9002 2.1ZM34.4002 7.7C34.1002 8.4 34.0002 9.1 34.0002 9.8C34.0002 10.3 34.0002 10.8 34.2002 11C34.4002 11.5 34.6002 11.9 34.9002 12.2C35.2002 12.5 35.6002 12.8 36.1002 13C36.6002 13.2 37.1002 13.3 37.8002 13.3C38.3002 13.3 38.7002 13.3 39.1002 13.2C39.5002 13.1 39.8002 13 40.1002 12.9L39.9002 11C39.7919 11.0541 39.6543 11.079 39.5033 11.1062C39.3754 11.1293 39.2378 11.1541 39.1002 11.2C38.8002 11.3 38.5002 11.3 38.2002 11.3C37.6002 11.3 37.1002 11.1 36.9002 10.8C36.6002 10.5 36.5002 10.1 36.5002 9.5C36.5002 8.6 36.7002 7.9 37.2002 7.3C37.7002 6.8 38.3002 6.5 39.1002 6.5C39.5002 6.5 39.8002 6.5 40.0002 6.6C40.3002 6.6 40.5002 6.7 40.7002 6.8L41.5002 4.9C41.1002 4.7 40.8002 4.6 40.4002 4.5C40.0002 4.4 39.6002 4.4 39.1002 4.4C38.3002 4.4 37.6002 4.5 37.0002 4.8C36.4002 5.1 35.8002 5.5 35.4002 6C35.0002 6.5 34.6002 7 34.4002 7.7ZM43.2002 13.2C43.6002 13.4 44.1002 13.5 44.7002 13.5C45.5002 13.5 46.2002 13.3 46.8002 13C47.4002 12.6 47.9002 12.2 48.3002 11.7C48.7002 11.1 49.0002 10.6 49.2002 9.9C49.4002 9.2 49.5002 8.6 49.5002 7.9C49.5002 7.4 49.4002 6.9 49.3002 6.5C49.2002 6.1 49.0002 5.7 48.7002 5.4C48.4002 5.1 48.0002 4.9 47.6002 4.7C47.2002 4.5 46.7002 4.4 46.1002 4.4C45.3002 4.4 44.6002 4.6 44.0002 4.9C43.4002 5.2 42.9002 5.7 42.5002 6.2C42.1002 6.8 41.8002 7.3 41.6002 8C41.4002 8.7 41.3002 9.3 41.3002 10C41.3002 10.5 41.4002 11 41.5002 11.4C41.6002 11.8 41.8002 12.2 42.1002 12.5C42.4002 12.8 42.8002 13 43.2002 13.2ZM45.0002 6.8C45.2002 6.6 45.5002 6.5 45.9002 6.5C46.4002 6.5 46.7002 6.7 46.8002 7C47.0002 7.3 47.1002 7.8 47.1002 8.3C47.1002 8.7 47.1002 9 47.0002 9.4C46.9809 9.45777 46.9617 9.51925 46.9417 9.583C46.858 9.85034 46.7617 10.1578 46.6002 10.4C46.4002 10.7 46.2002 11 45.9002 11.2C45.7002 11.4 45.4002 11.5 45.0002 11.5C44.6002 11.5 44.3002 11.3 44.1002 11C43.9002 10.7 43.8002 10.2 43.8002 9.7C43.8002 9.3 43.8002 9 43.9002 8.6C43.9195 8.54223 43.9387 8.48075 43.9587 8.41698C44.0424 8.14965 44.1387 7.84223 44.3002 7.6C44.5002 7.3 44.7002 7 45.0002 6.8ZM49.8002 13.3H52.2002L54.2002 4.7H51.8002L49.8002 13.3ZM52.4002 3.3C52.7002 3.5 53.0002 3.6 53.3002 3.6C53.6002 3.6 53.8002 3.6 53.9002 3.5C54.0002 3.45 54.0752 3.375 54.1502 3.3C54.2252 3.225 54.3002 3.15 54.4002 3.1C54.6002 3 54.7002 2.8 54.8002 2.6C54.9002 2.4 54.9002 2.2 54.9002 2C54.9002 1.6 54.8002 1.3 54.5002 1.1C54.2002 0.9 53.9002 0.8 53.6002 0.8C53.4002 0.8 53.2002 0.8 53.0002 0.9C52.9002 0.95 52.8252 1.025 52.7502 1.1C52.6752 1.175 52.6002 1.25 52.5002 1.3C52.3002 1.4 52.2002 1.6 52.1002 1.8C52.0002 2 52.0002 2.2 52.0002 2.4C52.0002 2.8 52.1002 3.1 52.4002 3.3ZM56.3002 5C56.2002 5.025 56.1002 5.05 56.0002 5.1L54.2002 13.2H56.6002L58.2002 6.6C58.6002 6.5 58.9002 6.5 59.2002 6.5C59.5002 6.5 59.7002 6.6 59.9002 6.7C60.1002 6.8 60.2002 7 60.2002 7.2V7.9C60.1461 8.00828 60.1212 8.14586 60.094 8.29689C60.0709 8.42483 60.0461 8.56242 60.0002 8.7L58.9002 13.2H61.3002L62.4002 8.6C62.7002 7.4 62.6002 6.3 62.1002 5.6C61.7002 4.9 60.8002 4.5 59.5002 4.5C59.2184 4.5 58.9684 4.53175 58.7502 4.55948C58.5811 4.58095 58.4311 4.6 58.3002 4.6C58.0002 4.6 57.7002 4.6 57.4002 4.7C57.2626 4.74586 57.125 4.77069 56.9971 4.79378C56.8461 4.82103 56.7085 4.84586 56.6002 4.9C56.5002 4.95 56.4002 4.975 56.3002 5ZM0.900147 5.49999C1.80015 1.99999 5.30015 -0.100012 8.70015 0.799988C12.1001 1.59999 14.3001 5.09999 13.4001 8.59999C12.5001 12.1 9.00015 14.2 5.60015 13.3C2.10015 12.4 0.000147164 8.89999 0.900147 5.49999ZM8.90015 7.19999C9.50015 6.99999 9.90015 6.69999 10.0001 6.09999C10.1001 5.19999 9.50015 4.79999 8.60015 4.49999L8.90015 3.29999L8.20015 3.09999L7.90015 4.19999C7.80015 4.19999 7.70015 4.17499 7.60015 4.14999C7.50015 4.12499 7.40015 4.09999 7.30015 4.09999L7.60015 2.99999L6.90015 2.79999L6.60015 3.99999C6.50015 3.99999 6.42515 3.97499 6.35015 3.94999C6.27515 3.92499 6.20015 3.89999 6.10015 3.89999L5.10015 3.69999L4.90015 4.49999L5.40015 4.59999C5.70015 4.69999 5.70015 4.89999 5.70015 4.99999L5.40015 6.29999L4.90015 8.19999C4.90015 8.29999 4.80015 8.39999 4.60015 8.39999L4.10015 8.29999L3.70015 9.09999L4.60015 9.29999C4.70015 9.29999 4.77515 9.32499 4.85015 9.34999C4.92515 9.37499 5.00015 9.39999 5.10015 9.39999L4.80015 10.6L5.50015 10.8L5.80015 9.59999C6.00015 9.69999 6.20015 9.69999 6.40015 9.69999L6.10015 10.9L6.80015 11.1L7.10015 9.89999C8.30015 10.1 9.20015 9.99999 9.60015 8.89999C9.90015 7.99999 9.60015 7.49999 8.90015 7.19999Z"/>
</svg>
