<svg width="30" height="19" viewBox="0 0 30 19" xmlns="http://www.w3.org/2000/svg">
<path  clip-rule="evenodd" d="M15.0423 3.12398C16.6479 1.68736 18.7606 0.842285 21.0423 0.842285C26.0282 0.842285 30 4.81412 30 9.80003C30 14.7859 25.9437 18.7578 21.0423 18.7578C18.7606 18.7578 16.6479 17.8282 15.0423 16.3916C13.4366 17.9127 11.3239 18.7578 8.95775 18.7578C4.05634 18.7578 0 14.7859 0 9.80003C0 4.89862 4.05634 0.842285 8.95775 0.842285C11.2394 0.842285 13.3521 1.60285 15.0423 3.12398ZM13.3099 5.2789C13.3521 5.21552 13.3944 5.15214 13.4366 5.06764C13.3521 5.15214 13.2676 5.32116 13.1831 5.49017C13.2254 5.40567 13.2676 5.34229 13.3099 5.2789ZM4.14085 8.61693L3.6338 12.0817H4.64789L5.40845 7.51834H3.88732L2.95775 10.3071V7.51834H1.52113L0.760563 12.0817H1.52113L2.11268 8.61693L2.19718 12.0817H2.87324L4.14085 8.61693ZM6.76056 11.7437V12.0817H7.60563L8.02817 9.462C8.02817 8.36341 7.09859 8.2789 6.76056 8.2789C6.08451 8.2789 5.57746 8.44792 5.57746 8.44792L5.40845 9.29299C5.40845 9.29299 5.83099 9.12398 6.42253 9.12398C6.76056 9.12398 7.01408 9.12397 7.01408 9.462V9.71553H6.59155C5.66197 9.71553 4.90141 10.0536 4.90141 11.1521C4.90141 11.9972 5.49296 12.1662 5.83099 12.1662C6.50704 12.1662 6.76056 11.7437 6.76056 11.7437ZM7.85916 11.9972C7.85916 11.9972 8.11268 12.1662 8.95775 12.1662C8.97059 12.1662 8.98582 12.1664 9.00317 12.1667C9.32812 12.1713 10.3944 12.1865 10.3944 10.9831C10.3944 10.2681 9.99311 10.0778 9.6756 9.92725C9.46774 9.82867 9.29577 9.74712 9.29577 9.54651C9.29577 9.29299 9.46479 9.20848 9.80282 9.20848C9.97183 9.20848 10.4789 9.29299 10.4789 9.29299L10.5634 8.44792C10.5634 8.44792 10.2254 8.36341 9.71831 8.36341C9.04225 8.36341 8.28169 8.61693 8.28169 9.63102C8.28169 10.3091 8.7324 10.5364 9.07745 10.7105C9.29144 10.8185 9.46479 10.9059 9.46479 11.0676C9.46479 11.3212 9.12676 11.3212 8.87324 11.3212C8.4507 11.3212 8.02817 11.1521 8.02817 11.1521L7.85916 11.9972ZM11.1549 12.0817C11.662 12.1662 11.9155 12.0817 12 11.9972L12.0845 11.1521H11.831C11.493 11.1521 11.493 10.9831 11.493 10.8141L11.831 9.20848H12.338L12.4225 8.2789H11.9155L12 7.68736H10.9859C10.9859 7.68736 10.3944 10.8141 10.3944 11.2367C10.3944 11.8282 10.7324 12.0817 11.1549 12.0817ZM12.8298 13.4262C12.8574 13.4984 12.8773 13.5506 12.9296 13.6028C12.9296 13.5506 12.8973 13.4984 12.8527 13.4262C12.8251 13.3816 12.7928 13.3294 12.7606 13.2648C12.7928 13.3294 12.8128 13.3816 12.8298 13.4262ZM12.338 10.4761C12.338 11.8282 13.2676 12.1662 14.0282 12.1662C14.7042 12.1662 15.1268 11.9972 15.1268 11.9972L15.2958 11.0676C15.2958 11.0676 14.7042 11.3212 14.1972 11.3212C13.1831 11.3212 13.3521 10.5606 13.3521 10.5606H15.2958C15.2958 10.5606 15.3803 9.96905 15.3803 9.71553C15.3803 9.12398 15.0423 8.2789 14.0282 8.2789C13.0141 8.2789 12.338 9.29299 12.338 10.4761ZM19.1831 12.1662C19.5211 12.1662 20.0282 11.9972 20.0282 11.9972L20.1972 10.9831C20.1972 10.9831 19.6901 11.2367 19.4366 11.2367C18.7606 11.2367 18.507 10.7296 18.507 10.1381C18.507 9.03947 19.0986 8.36341 19.7746 8.36341C20.2817 8.36341 20.6197 8.61693 20.6197 8.61693L20.7042 7.68736C20.7042 7.68736 20.2817 7.34933 19.7746 7.34933C19.0141 7.34933 18.4225 7.60285 18 8.10989C18 8.10989 18 8.02538 17.7465 8.02538C17.3239 8.02538 16.7324 8.87045 16.7324 8.87045L16.8169 8.36341H15.8873L15.2958 12.0817H16.3099C16.3344 11.9261 16.3574 11.7745 16.3796 11.6278C16.5869 10.2603 16.7298 9.31756 17.493 9.54651C17.4085 9.71552 17.4085 9.96903 17.4085 10.2225V10.2226C17.4085 11.3212 18.0845 12.1662 19.1831 12.1662ZM22.0563 12.0817H22.9014L23.2394 9.462C23.3239 8.36341 22.3944 8.2789 22.0563 8.2789C21.3803 8.2789 20.8732 8.44792 20.8732 8.44792L20.7042 9.29299C20.7042 9.29299 21.1268 9.12398 21.7183 9.12398C22.0563 9.12398 22.3099 9.12397 22.3099 9.462V9.71553H21.8873C20.9577 9.71553 20.1972 10.0536 20.1972 11.1521C20.1972 11.9972 20.7887 12.1662 21.1268 12.1662C21.8028 12.1662 22.0563 11.7437 22.0563 11.7437V12.0817ZM27.2958 11.6592V11.9972H28.2254L28.9859 7.43383L27.8873 7.51834L27.7183 8.78595C27.7183 8.78595 27.3803 8.2789 26.7887 8.2789C26.1972 8.2789 25.7746 8.53243 25.5211 9.03947C25.5211 8.95496 25.4366 8.95496 25.2676 8.95496H24.7606L24.8451 8.44792H23.9155L23.3239 12.1662L24.338 12.0817C24.507 10.9831 24.7606 9.63102 25.3521 9.54651C25.2676 9.88454 25.1831 10.2226 25.1831 10.5606C25.1831 11.3212 25.6056 12.0817 26.3662 12.0817C26.9577 12.0817 27.2958 11.6592 27.2958 11.6592ZM26.2817 10.4761C26.2817 9.71557 26.6197 9.20852 27.0423 9.20852C27.3803 9.20852 27.5493 9.46204 27.5493 10.0536C27.5493 10.5606 27.2958 11.2367 26.7887 11.2367C26.4507 11.2367 26.2817 10.9832 26.2817 10.4761ZM13.3338 9.66797C13.4165 9.46703 13.5576 9.12402 13.9437 9.12402C14.4052 9.12402 14.3766 9.61414 14.3678 9.76586C14.3669 9.78082 14.3662 9.79249 14.3662 9.80007H13.2676C13.2878 9.77992 13.3079 9.73091 13.3338 9.66797ZM6.25352 11.4057C5.91549 11.4057 5.91549 11.1522 5.91549 11.0677C5.91549 10.8142 6.08451 10.4761 6.76056 10.4761C6.84507 10.4339 6.8662 10.4127 6.8662 10.4127C6.8662 10.4127 6.84507 10.4339 6.84507 10.4761C6.84507 10.6451 6.84507 11.4057 6.25352 11.4057ZM21.2958 11.0677C21.2958 10.8142 21.4648 10.4761 22.1408 10.4761C22.2254 10.3916 22.1408 10.3916 22.2254 10.4761C22.2254 10.6451 22.2254 11.4057 21.6338 11.4057C21.2958 11.4057 21.2958 11.1522 21.2958 11.0677Z"/>
</svg>
