<svg width="57" height="28" viewBox="0 0 57 28" xmlns="http://www.w3.org/2000/svg">
<path clip-rule="evenodd" d="M22.2148 18.759C22.2475 18.8833 22.276 19.0117 22.3002 19.1445L22.3002 19.1444C22.3977 18.9494 22.4001 18.9446 22.2148 18.759ZM22.2086 18.7358C21.9686 17.8425 21.5104 17.1675 20.9002 16.6445C20.735 16.3967 20.5017 16.2854 20.2002 16.1415C20.1365 16.1111 20.0699 16.0793 20.0002 16.0444C19.9466 16.0176 19.9002 15.9908 19.8571 15.966C19.7394 15.898 19.6466 15.8444 19.5002 15.8444C19.4134 15.8227 19.3266 15.7963 19.2378 15.7693C18.9172 15.6718 18.57 15.5661 18.1002 15.6445C18.4002 15.4445 18.8002 15.4444 19.3002 15.5444C19.7002 15.5444 20.0002 15.6444 20.3002 15.7444C20.4502 15.7944 20.5752 15.8694 20.7002 15.9444C20.8252 16.0194 20.9502 16.0945 21.1002 16.1445C21.8002 14.1445 21.5002 11.5444 20.8002 9.84443C20.1002 8.04443 19.1002 6.54443 17.7002 5.34443C16.4002 4.14443 14.8002 3.24443 12.7002 2.74443C11.7002 2.54443 10.4002 2.54443 9.40019 2.74443C8.40019 3.04443 7.60019 3.44444 6.90019 3.94444C6.20019 4.54444 5.6002 5.14444 5.1002 5.94444C5.0002 6.04444 4.9502 6.14444 4.9002 6.24444C4.8502 6.34444 4.80021 6.44444 4.70021 6.54444L4.70004 6.54478C4.6001 6.74467 4.50013 6.94459 4.40019 7.24443C4.20019 7.74443 4.10019 8.14443 4.00019 8.74443C3.80019 9.74443 3.70019 11.0444 3.90019 12.1445C3.97897 13.0111 4.24397 13.7535 4.49957 14.4697C4.5684 14.6625 4.63656 14.8535 4.70021 15.0444C4.73944 15.1229 4.77868 15.2052 4.81867 15.2891C4.98252 15.6329 5.15904 16.0033 5.40019 16.2444C5.53827 16.5206 5.72402 16.7491 5.92453 16.9957C6.01444 17.1063 6.10733 17.2206 6.20021 17.3444C6.80021 18.0444 7.40021 18.6445 8.20021 19.1445C9.70021 20.1445 11.5002 20.9444 13.9002 21.0444C13.9002 20.9944 13.8752 20.9194 13.8502 20.8444C13.8252 20.7694 13.8002 20.6945 13.8002 20.6445C13.8002 20.5945 13.7752 20.5194 13.7502 20.4444C13.7252 20.3694 13.7002 20.2944 13.7002 20.2444V19.2444C13.8002 19.2444 13.8002 19.3444 13.8002 19.4444V19.4444C13.9002 19.5444 13.9002 19.5445 13.9002 19.6445C14.0002 19.8444 14.1002 19.9444 14.2001 20.0444L14.2002 20.0444C14.2635 20.1078 14.3269 20.1811 14.3934 20.2581C14.5369 20.4244 14.6952 20.6078 14.9002 20.7444C15.1002 20.9444 15.4001 21.1444 15.7001 21.3444L15.7002 21.3444C16.0002 21.5444 16.2002 21.6444 16.6002 21.7444C17.2002 22.0444 18.0002 22.1444 18.8002 22.2444C19.6002 22.3444 20.4002 22.4445 21.1002 22.6445L21.1003 22.6445C21.8003 22.8445 22.5002 23.0445 23.0002 23.4444C23.1185 23.5233 23.2369 23.5867 23.3491 23.6467C23.5213 23.7389 23.6791 23.8233 23.8002 23.9444C23.8502 23.9944 23.9252 24.0444 24.0002 24.0944C24.0752 24.1444 24.1502 24.1944 24.2002 24.2444C24.3002 24.2944 24.3502 24.3444 24.4002 24.3944C24.4502 24.4444 24.5002 24.4944 24.6002 24.5444C25.1001 24.9443 25.5001 25.4443 25.9 25.9442L25.9002 25.9444C25.9458 26.0128 25.9914 26.076 26.0358 26.1376C26.1862 26.346 26.323 26.5356 26.4002 26.8445C26.4502 26.8945 26.4752 26.9695 26.5002 27.0444C26.5252 27.1194 26.5502 27.1944 26.6002 27.2444C26.6002 27.3153 26.6253 27.3861 26.6488 27.4525C26.6917 27.5736 26.7294 27.6799 26.6002 27.7444C26.4669 27.7444 26.4224 27.6555 26.378 27.5667C26.3557 27.5222 26.3335 27.4778 26.3002 27.4444C26.2002 27.3444 26.1002 27.2444 26.1002 27.0444C25.8003 26.6445 25.4004 26.2446 25.1004 25.9447L25.1002 25.9444C24.9669 25.8444 24.8446 25.7333 24.7224 25.6222C24.478 25.4 24.2335 25.1777 23.9002 25.0444C23.1002 24.4444 22.1002 24.0444 21.0002 23.7444C19.9002 23.4444 18.7002 23.3445 17.2002 23.3445L17.1995 23.3446C16.5997 23.4445 15.9999 23.5445 15.4002 23.7444L13.6002 24.0444C11.2002 24.2444 8.5002 23.6444 6.6002 22.7444C5.6002 22.3444 4.70019 21.7445 4.00019 21.1445C3.60019 20.8445 3.20019 20.4445 2.90019 20.1445C2.80019 20.0111 2.68909 19.8778 2.57799 19.7445C2.35576 19.4778 2.13353 19.2111 2.00019 18.9444C1.81921 18.7031 1.67463 18.4254 1.52253 18.1333C1.4225 17.9412 1.31923 17.7428 1.20021 17.5444C1.00021 17.0444 0.800206 16.5444 0.700206 15.9444C0.500206 15.4444 0.400182 14.8444 0.300182 14.1445C0.300182 14.0546 0.279983 13.9444 0.257743 13.8232C0.230505 13.6747 0.200206 13.5096 0.200206 13.3444V13.2444C0.200206 13.1444 0.189095 13.0444 0.177984 12.9444C0.155762 12.7444 0.13354 12.5444 0.200206 12.3444C0.200206 11.7444 0.300188 11.0444 0.400188 10.4444C0.450188 10.1444 0.525186 9.86943 0.600185 9.59443C0.675183 9.31943 0.750182 9.04443 0.800182 8.74443L1.40019 7.24443C1.45019 7.14443 1.52519 7.01943 1.60019 6.89443C1.67518 6.76944 1.75018 6.64444 1.80018 6.54444C1.83741 6.46999 1.8885 6.39553 1.94314 6.31591C2.03525 6.18166 2.13744 6.03274 2.20021 5.84443C2.25021 5.79443 2.2752 5.74444 2.3002 5.69444C2.32519 5.64444 2.35019 5.59444 2.40019 5.54444C2.40019 5.49444 2.45019 5.44444 2.50019 5.39444C2.5502 5.34443 2.6002 5.29443 2.6002 5.24443C2.7002 5.14443 2.80018 5.04444 2.80018 4.94444L2.80025 4.94437C2.90023 4.84439 3.00019 4.74443 3.00019 4.64445C3.40018 4.34446 3.70018 3.94447 4.00017 3.54448L4.00019 3.54444L4.0003 3.54436C4.40027 3.24439 4.80024 2.94441 5.20021 2.54444C5.27466 2.50722 5.34912 2.45613 5.42873 2.4015C5.56297 2.30939 5.71187 2.20722 5.90019 2.14445C6.00019 2.04445 6.10019 1.99444 6.20019 1.94444C6.30019 1.89443 6.40019 1.84443 6.50019 1.74443C6.71327 1.6592 6.90818 1.55581 7.10815 1.44974C7.37743 1.30691 7.65588 1.15922 8.00019 1.04444L9.50019 0.444438C10.6002 0.144438 11.8002 -0.0555556 13.2002 0.0444444C13.2684 0.0444444 13.2901 -0.00203096 13.297 6.90846e-05C13.3002 0.00104951 13.3002 0.0126173 13.3002 0.0444444C16.0002 0.144444 18.0002 0.944445 19.6002 2.04444C21.3002 3.14444 22.5002 4.64444 23.5002 6.44444C24.4002 8.24444 24.9002 10.7444 24.5002 13.3444C24.3002 14.5444 23.9002 15.5444 23.5002 16.5444C23.3772 16.8519 23.2165 17.1215 23.0644 17.3765C22.9691 17.5363 22.8772 17.6904 22.8002 17.8444C22.7502 17.9444 22.6752 18.0444 22.6002 18.1444C22.5252 18.2444 22.4502 18.3444 22.4002 18.4444C22.3502 18.4944 22.3252 18.5444 22.3002 18.5944C22.2766 18.6415 22.2531 18.6886 22.2086 18.7358ZM22.2086 18.7358C22.2107 18.7435 22.2128 18.7513 22.2148 18.759C22.2101 18.7543 22.2052 18.7494 22.2002 18.7444C22.2031 18.7415 22.2059 18.7386 22.2086 18.7358ZM21.0778 19.2889C21.1889 19.5333 21.3 19.7778 21.5 19.8444C21.7 19.8444 21.7 19.5444 21.7 19.3444C21.6764 19.2972 21.6528 19.2445 21.6279 19.1887C21.5473 19.0084 21.4528 18.7972 21.3 18.6444L21.3 18.6444C21.2 18.5444 21.1 18.4444 21 18.5444H20.9C20.8303 18.6142 20.8578 18.7325 20.8808 18.8316C20.8909 18.8747 20.9 18.9142 20.9 18.9444C20.9667 19.0444 21.0222 19.1666 21.0778 19.2889ZM19.7 20.3444C19.7 19.7444 19.5 19.4444 18.9 19.3444C18.6 19.3444 18.5 19.4444 18.3 19.6444L18.3 19.6444C18.1 20.3444 18.5 20.9444 19.2 20.9444C19.5 20.8444 19.7 20.6444 19.7 20.3444ZM35.2644 15.9513C35.114 15.7429 34.9772 15.5532 34.9 15.2444C34.9566 15.2161 35.0152 15.1878 35.0744 15.1593C35.4335 14.9858 35.8142 14.802 35.9 14.5444C36.2 14.3444 36.5 13.9444 36.7 13.5444C37.2 12.7444 37.4 11.6444 37.3 10.4444C37.3 9.94443 37.2 9.54442 37.1 9.24442C37.1 9.19442 37.075 9.14442 37.05 9.09442C37.025 9.04442 37 8.99443 37 8.94443C37 8.84443 37 8.74444 36.9 8.64444C36.9 8.54444 36.8 8.54443 36.8 8.54443L36.7 8.44443V8.34442L36.6 8.24442V8.14444C36.5 7.94444 36.4 7.84442 36.3 7.74442L36.2 7.64444C35.8 7.34444 35.4 7.14443 35 6.94443C34.6 6.84443 34.1 6.74442 33.6 6.74442C31.6 6.84442 30.6 7.94443 30.1 9.54443C29.9 10.3444 29.8 11.3444 30 12.2444C30.1 13.1444 30.5 13.7444 31 14.3444C31.5 14.8444 32.1 15.2444 33 15.3444C33.1 15.4444 33.2 15.6443 33.2999 15.8442L33.3 15.8444L33.3002 15.8446C33.5001 16.0445 33.6001 16.1445 33.7 16.3444C34.2 16.8444 34.8 17.2444 35.5 17.5444C35.6333 17.5778 35.7555 17.6111 35.8777 17.6444C36.1222 17.7111 36.3667 17.7777 36.7 17.8444C36.9 17.9444 37.2 17.9444 37.4 17.9444C37.6 17.8444 37.8 17.7444 37.8 17.5444C37.8 17.4111 37.7111 17.3666 37.6222 17.3222C37.5778 17.3 37.5334 17.2777 37.5 17.2444H37.4999C37.3 17.2444 37.2 17.2444 37 17.1444C36.7 17.0444 36.4 16.9444 36.1 16.7444C35.8 16.5444 35.6 16.3444 35.4 16.1444C35.3544 16.076 35.3088 16.0129 35.2644 15.9513ZM33.0149 7.88272C33.1505 7.80703 33.2627 7.74442 33.5 7.74442C33.6117 7.74442 33.7079 7.75222 33.7927 7.75911C34.0117 7.77688 34.1559 7.78858 34.3 7.64444L34.3005 7.64477C34.6003 7.84466 34.9001 8.04453 35.1 8.24442C35.3 8.44442 35.5 8.84442 35.6 9.24442C36 10.4444 35.9 12.2444 35.4 13.2444C35.35 13.2944 35.325 13.3444 35.3 13.3944C35.275 13.4444 35.25 13.4944 35.2 13.5444C35.1001 13.7444 35.0001 13.8444 34.9001 13.9444L34.9 13.9444C34.8 13.9444 34.7001 14.0444 34.6001 14.1444L34.6 14.1444C34.5 14.1444 34.45 14.1694 34.4 14.1944C34.35 14.2194 34.3 14.2444 34.2 14.2444C34.1 14.3444 33.9 14.3444 33.8 14.3444C33.7 14.3444 33.6 14.3194 33.5 14.2944C33.4 14.2694 33.3 14.2444 33.2 14.2444C32.8 14.0444 32.5 13.8444 32.3 13.5444C31.9 12.9444 31.7 11.9444 31.7 10.9444V10.9441C31.7 10.5442 31.7 10.1443 31.8 9.74442C31.9 9.34464 31.9999 9.04476 32.0999 8.74493L32.1 8.74442C32.2 8.69442 32.25 8.61942 32.3 8.54442C32.35 8.46942 32.4 8.39442 32.5 8.34442C32.5698 8.20498 32.6881 8.11415 32.7872 8.03803C32.8303 8.00498 32.8697 7.9747 32.9 7.94443C32.9418 7.92355 32.9792 7.90268 33.0149 7.88272ZM41.2 6.94443H39.8C39.6 9.64443 39.6 12.5444 39.7 15.0444C39.8 15.1444 40.1 15.1444 40.4 15.1444C40.504 15.1444 40.608 15.1565 40.7079 15.168C40.896 15.1897 41.0694 15.2098 41.2 15.1444C41.3 15.0445 41.3 14.8445 41.3 14.7445V14.7444V7.44443V7.44429C41.3 7.24434 41.3 7.0444 41.2 6.94443ZM44.7 6.94443H43.3C43.2 7.44443 43.4 7.74442 43.5 7.84442C43.55 7.99441 43.6 8.1694 43.65 8.34439C43.7 8.5194 43.75 8.69441 43.8 8.84442L44.4 10.9444L45 13.0444C45.05 13.1944 45.1 13.3694 45.15 13.5444C45.2 13.7194 45.25 13.8944 45.3 14.0444C45.395 14.1869 45.4449 14.3746 45.4925 14.5538C45.5452 14.7518 45.5951 14.9394 45.7 15.0444C45.7606 15.0444 45.8395 15.0536 45.9256 15.0636C46.1239 15.0867 46.3606 15.1142 46.5 15.0444C46.605 14.887 46.6549 14.6744 46.7075 14.4501C46.7551 14.247 46.805 14.0344 46.9 13.8444C46.9163 13.7795 46.9325 13.712 46.9491 13.6426C47.0351 13.2848 47.1325 12.8795 47.3 12.5444C47.35 12.2944 47.425 12.0944 47.5 11.8944C47.575 11.6944 47.65 11.4944 47.7 11.2444C47.7439 11.1129 47.7685 11.0006 47.7908 10.8991C47.8193 10.769 47.8439 10.6567 47.9 10.5444C47.9459 10.4527 47.9707 10.34 47.9938 10.2351C48.0211 10.1113 48.0459 9.99857 48.1 9.94443C48.3 10.5944 48.525 11.2445 48.75 11.8945C48.975 12.5444 49.2 13.1944 49.4 13.8444C49.5 14.0444 49.575 14.2694 49.65 14.4944C49.725 14.7194 49.8 14.9444 49.9 15.1444H50.7C50.75 14.9944 50.8 14.8194 50.85 14.6444C50.9 14.4694 50.95 14.2944 51 14.1444C51.05 13.9944 51.1 13.8194 51.15 13.6444C51.2 13.4694 51.25 13.2944 51.3 13.1444L51.9 11.0444L52.5 8.94443C52.6 8.64443 52.7 8.34443 52.8 7.94443C52.9 7.64443 53 7.24443 53 6.94443H51.8C51.6 7.34442 51.5 7.8444 51.4 8.34439L51.4 8.34442C51.1457 9.10746 50.9632 9.94239 50.7917 10.7273C50.7609 10.8682 50.7305 11.0075 50.7 11.1444C50.65 11.2444 50.625 11.3694 50.6 11.4944C50.575 11.6194 50.55 11.7444 50.5 11.8444C50.45 11.9444 50.425 12.0694 50.4 12.1944C50.375 12.3194 50.35 12.4444 50.3 12.5444C50 11.5444 49.7 10.6444 49.4 9.74442C49.35 9.49442 49.275 9.26942 49.2 9.04443C49.125 8.81943 49.05 8.59443 49 8.34442C48.9136 8.1283 48.8458 7.91218 48.7806 7.70414C48.6949 7.43087 48.6136 7.17153 48.5 6.94443H47.9C47.72 7.12443 47.648 7.41243 47.576 7.70043C47.528 7.89242 47.48 8.08442 47.4 8.24442C47.35 8.49441 47.275 8.71941 47.2 8.94442C47.125 9.16943 47.05 9.39444 47 9.64444C46.95 9.89444 46.875 10.1194 46.8 10.3444C46.725 10.5694 46.65 10.7944 46.6 11.0444C46.55 11.1444 46.525 11.2694 46.5 11.3944C46.475 11.5194 46.45 11.6444 46.4 11.7444C46.4 11.8616 46.3657 11.9444 46.3373 12.0131C46.3172 12.0616 46.3 12.103 46.3 12.1444C46.2 12.2444 46.2 12.3444 46.2 12.3444C46.2 12.3444 46.2 12.4444 46.1 12.4444L44.9 7.64444C44.9 7.34444 44.8 7.14443 44.7 6.94443ZM56.5 6.94443H55.1C54.9 7.24443 54.9 7.64442 54.9 7.84442V14.0444C54.9 14.4444 54.9 14.7444 55 15.0444C55 15.1444 55.2 15.1444 55.3 15.1444H56.5C56.6 14.8444 56.6 14.4444 56.6 14.1444V7.94443C56.6 7.54443 56.6 7.24443 56.5 6.94443ZM46.7002 18.6445L46.7 18.6444C46.9 18.5444 47 18.4444 47.1 18.1444C47.2 17.7444 47 17.4444 46.8 17.3444C46.7 17.3444 46.6 17.3194 46.5 17.2944C46.4 17.2694 46.3 17.2444 46.2 17.2444C45.9 17.2444 45.6 17.2444 45.4 17.3444V20.0444C46.1 20.2444 47 20.1444 47.3 19.6444C47.4 19.4444 47.3 19.1444 47.2 18.9444C47.1001 18.8445 46.9002 18.7445 46.7002 18.6445ZM45.8 17.6444C46.3 17.5444 46.8 17.6444 46.7 18.2444C46.6 18.5444 46.3 18.6444 45.8 18.6444V17.6444ZM45.9 18.8444C46.5 18.7444 47.1 19.0444 46.9 19.6444C46.7 19.9444 46.3001 19.9444 45.9001 19.9444H45.9C45.9 19.8072 45.8882 19.6699 45.8768 19.5367C45.8549 19.2817 45.8343 19.0415 45.9 18.8444ZM40.0201 18.1177C40.0429 17.8521 40.0689 17.5509 40 17.3444H39.5C39.5 17.5564 39.4909 17.8141 39.4809 18.0956C39.4578 18.7436 39.4303 19.5169 39.5 20.1444C39.5303 20.1444 39.5698 20.1536 39.6128 20.1636C39.712 20.1867 39.8303 20.2142 39.9 20.1444C39.9 19.9739 39.8884 19.8034 39.877 19.6368C39.8551 19.315 39.8341 19.008 39.9 18.7444C39.9877 18.8759 40.0754 18.9883 40.1547 19.0898C40.2562 19.2198 40.3439 19.3321 40.4 19.4444C40.5 19.5444 40.575 19.6694 40.65 19.7944C40.725 19.9194 40.8 20.0444 40.9 20.1444C40.9709 20.1444 41.0417 20.157 41.1081 20.1688C41.2292 20.1902 41.3354 20.209 41.4 20.1444C41.3 19.8444 41.1 19.5444 40.9 19.3444C40.8299 19.134 40.7105 18.9727 40.5764 18.7916C40.5194 18.7146 40.4597 18.634 40.4 18.5444C40.45 18.4444 40.525 18.3444 40.6 18.2444C40.675 18.1444 40.75 18.0444 40.8 17.9444C40.8405 17.8634 40.8975 17.7988 40.9575 17.7306C41.0457 17.6306 41.1406 17.5229 41.2 17.3444H40.9C40.8 17.4444 40.725 17.5444 40.65 17.6444C40.575 17.7444 40.5 17.8444 40.4 17.9444C40.4 18.0444 40.3 18.1444 40.2 18.2444C40.2 18.2444 40.2 18.3444 40.1 18.3444C40.1 18.3444 40 18.5444 40 18.4444C40 18.3509 40.0098 18.2379 40.0201 18.1177ZM42.6 20.1444C43.1 19.5444 43.6 18.8444 44.1 18.1444C44.1 18.5079 44.0731 18.8714 44.0471 19.2209C44.0231 19.5444 44 19.856 44 20.1444H44.3V17.3444C44.1 17.2444 43.9 17.2444 43.9 17.4444C43.8 17.5444 43.7 17.6444 43.7 17.7444C43.6 17.9444 43.5 18.1444 43.3 18.3444C43.25 18.4444 43.175 18.5444 43.1 18.6444C43.025 18.7444 42.95 18.8444 42.9 18.9444C42.85 18.9944 42.825 19.0444 42.8 19.0944C42.775 19.1444 42.75 19.1944 42.7 19.2444L42.6 19.3444C42.6 19.3444 42.5 19.5444 42.5 19.4444V17.3444H42.2V20.1444H42.6ZM48.6 19.3444C48.6 19.3444 48.5 19.5444 48.5 19.4444V17.4444C48.5 17.3444 48.3 17.3444 48.2 17.5444V20.3444C48.4591 20.4092 48.5504 20.2642 48.6369 20.1269C48.6839 20.0521 48.7295 19.9797 48.8 19.9444C48.85 19.8444 48.925 19.7444 49 19.6444C49.075 19.5444 49.15 19.4444 49.2 19.3444C49.25 19.2444 49.325 19.1444 49.4 19.0444C49.475 18.9444 49.55 18.8444 49.6 18.7444C49.65 18.6944 49.675 18.6444 49.7 18.5944C49.725 18.5444 49.75 18.4944 49.8 18.4444C49.8 18.4444 49.9 18.4444 49.9 18.3444C50 18.3444 50 18.2444 50 18.2444C50.05 18.2444 50.075 18.2194 50.0875 18.2069C50.1 18.1944 50.1 18.1944 50.1 18.2444C50.1 18.4777 50.0889 18.7111 50.0778 18.9444C50.0556 19.4111 50.0334 19.8778 50.1 20.3444H50.4V17.5444H50C49.945 17.6269 49.8901 17.7169 49.833 17.8104C49.6825 18.0568 49.5175 18.3269 49.3 18.5444C49.1 18.7444 49 18.8444 48.9 19.0444C48.8382 19.0444 48.8146 19.0826 48.782 19.1354C48.7618 19.168 48.7382 19.2062 48.7 19.2444C48.7 19.2444 48.7 19.3444 48.6 19.3444Z"/>
</svg>
