<svg width="23" height="20" viewBox="0 0 23 20" xmlns="http://www.w3.org/2000/svg">
  <path fill-rule="evenodd" clip-rule="evenodd" d="M0.0166049 8.57841L4.05553 0.0946393C4.06875 0.0660656 4.08996 0.0419276 4.11659 0.0251371C4.14322 0.00834667 4.17415 -0.000379035 4.20563 1.26293e-05H17.9461C17.9774 -6.98924e-05 18.0081 0.00887119 18.0345 0.0257673C18.0609 0.0426634 18.0818 0.0667998 18.0949 0.0952919L22.1338 8.57906C22.1492 8.61061 22.154 8.64626 22.1477 8.68078C22.1413 8.7153 22.1241 8.74689 22.0985 8.77092L11.1904 19.2229C11.1594 19.2526 11.1181 19.2692 11.0752 19.2692C11.0323 19.2692 10.991 19.2526 10.96 19.2229L0.0518452 8.77027C0.0262657 8.74624 0.00904658 8.71465 0.0027059 8.68013C-0.00363477 8.64561 0.00123566 8.60996 0.0166049 8.57841ZM11.0912 9.47964C11.9937 9.47964 12.3983 9.45549 12.4766 9.44962L12.474 9.44896C15.243 9.32628 17.3085 8.84335 17.3085 8.26646C17.3085 7.68956 15.2423 7.20664 12.474 7.0833V8.96931C12.3964 8.97648 11.965 9.01238 11.1036 9.01238C10.3857 9.01238 9.86625 8.9817 9.68483 8.96865V7.08199C6.91064 7.20599 4.83994 7.68826 4.83994 8.26646C4.83994 8.84466 6.91064 9.32758 9.68483 9.44962C9.86364 9.4581 10.3733 9.47964 11.0912 9.47964ZM12.4766 6.88755V6.88817L12.476 6.88752C12.4762 6.88753 12.4764 6.88754 12.4766 6.88755ZM12.4766 5.1999V6.88755C15.6107 7.03248 17.9656 7.65372 17.9656 8.39828C17.9656 9.1429 15.6085 9.76417 12.476 9.90839V15.3204H9.68418V9.91035C6.54453 9.76547 4.18343 9.1442 4.18343 8.39893C4.18343 7.65367 6.54453 7.03174 9.68418 6.88752V5.1999H5.82145V2.62541H16.34V5.1999H12.4766Z"/>
</svg>
