<svg width="36" height="11" viewBox="0 0 36 11" xmlns="http://www.w3.org/2000/svg">
<path  clip-rule="evenodd" d="M14.1044 0.161192L12.3313 10.5581H15.1522L16.9253 0.161192H14.1044ZM22.8088 0C23.9372 0 24.8237 0.161193 25.3879 0.402981L24.8237 2.74027L24.5819 2.65968C24.0984 2.41789 23.4536 2.2567 22.4864 2.2567C21.3581 2.2567 20.8745 2.74027 20.8745 3.14326C20.8745 3.62683 21.5193 3.94922 22.4864 4.4328C24.179 5.15816 24.9043 6.04472 24.9043 7.25367C24.9043 9.42977 22.97 10.7999 19.988 10.7999C18.6984 10.7999 17.4895 10.5581 16.8447 10.2357L17.2477 7.89844L17.6507 8.05963C18.5372 8.46261 19.182 8.6238 20.3103 8.6238C21.1163 8.6238 22.0029 8.30142 22.0029 7.57605C22.0029 7.09247 21.6805 6.77009 20.5521 6.28651C19.4238 5.80293 18.0536 4.99697 18.0536 3.46564C18.0536 1.45073 19.988 0 22.8088 0ZM30.5461 0.161192H32.7222L35.0595 10.5581H32.3998C32.3998 10.5581 32.158 9.42977 32.0774 9.02678H28.4506C28.37 9.26857 27.8864 10.5581 27.8864 10.5581H24.9043L29.0953 1.04775C29.3371 0.322385 29.9013 0.161192 30.5461 0.161192ZM30.3043 3.94922C30.3043 3.94922 29.4177 6.28651 29.1759 6.85069H31.5132C31.4326 6.36711 30.8685 3.86862 30.8685 3.86862L30.7073 2.98206C30.5461 3.38504 30.3043 3.94922 30.3043 3.94922ZM7.17315 7.25367L9.91342 0.161192H12.8955L8.46269 10.5581H5.48063L2.92706 1.54082C2.06733 1.06277 1.09086 0.675658 0 0.402942V0.161153H4.59399C5.15816 0.161153 5.64174 0.402942 5.88353 1.04771L6.93128 5.88349C6.86967 5.73658 6.80361 5.59106 6.7331 5.4471C6.77763 5.56588 6.81695 5.6846 6.85076 5.80293L7.17315 7.25367Z"/>
</svg>
