<svg width="73" height="16" viewBox="0 0 73 16" xmlns="http://www.w3.org/2000/svg">
<path clip-rule="evenodd" d="M14.0569 0C9.81865 0 6.44733 3.41949 6.44733 7.60955C6.44733 11.8478 9.86682 15.2191 14.0569 15.2191C18.247 15.2191 21.6664 11.7996 21.6664 7.60955C21.6664 3.41949 18.247 0 14.0569 0ZM14.0569 10.4029C12.5157 10.4029 11.2154 9.10257 11.2154 7.56138C11.2154 6.02022 12.5157 4.71986 14.0569 4.71986C15.5981 4.71986 16.8984 6.02022 16.8984 7.56138C16.8503 9.15072 15.5981 10.4029 14.0569 10.4029ZM42.0866 4.38262C43.0498 3.94916 44.1093 3.90099 45.0727 4.23813C46.5656 4.7679 47.4807 6.11644 47.4807 7.70577C47.4807 8.4282 47.3363 9.10248 46.999 9.63225C46.7101 10.162 46.2284 10.5955 45.6506 10.9326C45.3616 11.0771 45.0727 11.1734 44.7836 11.2697C44.4466 11.3661 44.1093 11.4142 43.7723 11.4142C43.1462 11.4142 42.472 11.2216 41.8939 10.9326C41.316 10.6436 40.8826 10.162 40.5454 9.63225C40.2084 9.10248 40.0637 8.4282 40.0637 7.70577C40.0637 6.98335 40.2084 6.30909 40.5454 5.7793C40.8826 5.15321 41.4605 4.67159 42.0866 4.38262ZM44.9763 9.29511C45.3616 8.95799 45.5542 8.4282 45.6025 7.80209C45.6506 7.07966 45.3616 6.45358 44.7836 6.11644C44.4466 5.92378 44.1093 5.7793 43.6759 5.7793C43.2906 5.7793 42.9053 5.92378 42.6164 6.11644C42.0866 6.50172 41.7977 7.07966 41.8458 7.80209C41.8939 8.4282 42.0866 8.95799 42.472 9.29511C42.8089 9.58407 43.1943 9.72856 43.724 9.72856C44.2538 9.68042 44.6874 9.53593 44.9763 9.29511ZM54.7052 4.57528C54.3199 4.28631 53.8382 4.09368 53.2603 4.04551C52.2969 3.9492 51.3818 4.28631 50.7557 4.91242V4.14183H48.7811V11.2216H50.7557V7.51315C50.7557 6.69441 50.9004 6.45358 51.0449 6.26095C51.2857 5.87565 51.7191 5.68301 52.2489 5.68301C52.7786 5.68301 53.2603 5.92382 53.5009 6.3091C53.6456 6.59807 53.6937 6.98338 53.6937 7.17601V11.2216H55.6683V6.93521C55.6683 5.8275 55.3794 5.05691 54.7052 4.57528ZM70.6949 4.19003L69.0095 8.33193C68.9612 8.38009 68.9612 8.47641 68.9612 8.52458L68.9131 8.62089L68.8648 8.52458C68.8648 8.50052 68.8528 8.46444 68.8408 8.42835L68.8407 8.42825C68.8287 8.39213 68.8167 8.35601 68.8167 8.33193L67.131 4.19003H64.9639L67.8053 11.2698L66.6012 13.9669H68.7686L72.766 4.19003H70.6949ZM37.7523 4.57535C37.367 4.28638 36.8853 4.09373 36.3074 4.04556H35.9702C35.1996 4.04556 34.5253 4.3827 33.9475 5.05695L33.8511 5.20144H33.6583C33.5139 4.96064 33.3213 4.76798 33.1286 4.6235C32.7433 4.33453 32.2618 4.1419 31.6837 4.09373C30.7686 3.99741 30.0463 4.28638 29.4202 4.96064V4.23821H27.4456V11.318H29.4202V7.60953V7.5132C29.4202 6.74263 29.5166 6.54997 29.661 6.30917C29.9019 5.92386 30.3353 5.68306 30.8169 5.73123C31.2984 5.73123 31.732 5.97203 31.9729 6.35732C32.1654 6.64629 32.1654 6.98343 32.1654 7.32057V11.2698H34.14V7.46505C34.14 6.74263 34.2364 6.5018 34.3809 6.261C34.6217 5.87572 35.0551 5.68306 35.5368 5.68306C36.0183 5.68306 36.4036 5.92386 36.6444 6.30917C36.7889 6.54997 36.8372 6.83894 36.8372 7.0316V7.2724V11.2217H38.8118V6.88711C38.8118 6.5018 38.7635 6.11652 38.6674 5.77938C38.4746 5.29778 38.1857 4.86432 37.7523 4.57535ZM61.2069 9.96946C62.122 9.92129 62.7962 9.39152 63.0851 9.10255L64.3855 10.0658C64.3701 10.0786 64.3518 10.0943 64.3306 10.1123L64.3304 10.1125C63.9553 10.4322 62.6929 11.508 60.8697 11.4625C60.8363 11.4588 60.7973 11.4551 60.7531 11.4509L60.7531 11.4509C60.2236 11.4006 58.9619 11.2809 58.0283 10.2584C57.1613 9.29518 57.1132 8.23564 57.1132 7.8985C57.1132 7.88015 57.113 7.85928 57.1128 7.83604C57.1096 7.49332 57.1016 6.63635 57.643 5.77937C58.4617 4.47901 60.051 3.85292 61.4478 4.09372C61.6403 4.09372 62.3145 4.23821 63.0371 4.76798C63.6632 5.2496 64.1447 5.87571 64.3855 6.69445C64.4819 7.12791 64.53 7.46505 64.53 7.70585C64.53 7.9581 64.4934 8.17367 64.4521 8.4166L64.4521 8.41673L64.4339 8.52461V8.57275H58.9914C59.0878 8.86172 59.2323 9.15069 59.4248 9.34335C59.8585 9.7768 60.4363 10.0176 61.2069 9.96946ZM60.7735 5.77937C60.3399 5.77937 60.0029 5.92386 59.714 6.11651C59.3768 6.30917 59.1842 6.64628 59.0878 6.98342H62.5554C62.4109 6.64628 62.1701 6.35731 61.8811 6.11651C61.5442 5.92386 61.2069 5.77937 60.7735 5.77937ZM6.39908 13.2446V2.16739H0.234375L3.70201 13.2446H6.39908Z" />
</svg>
