<svg width="17" height="17" viewBox="0 0 17 17" fill="none" xmlns="http://www.w3.org/2000/svg">
<path fill-rule="evenodd" clip-rule="evenodd" d="M4.13215 2.90427C5.21841 2.14366 6.56233 1.84572 7.86827 2.07599C9.17421 2.30626 10.3352 3.04588 11.0958 4.13215C11.8564 5.21841 12.1543 6.56234 11.9241 7.86827C11.6938 9.17421 10.9542 10.3352 9.86791 11.0958C8.78165 11.8564 7.43772 12.1543 6.13179 11.9241C4.82585 11.6938 3.66488 10.9542 2.90427 9.86791C2.14366 8.78165 1.84572 7.43772 2.07599 6.13179C2.30626 4.82585 3.04588 3.66488 4.13215 2.90427ZM8.21557 0.106375C6.38726 -0.216005 4.50576 0.201112 2.98499 1.26596C1.46423 2.33082 0.428756 3.95618 0.106375 5.78449C-0.216005 7.6128 0.201111 9.4943 1.26596 11.0151C2.33082 12.5358 3.95618 13.5713 5.78449 13.8937C7.6128 14.2161 9.4943 13.7989 11.0151 12.7341C12.5358 11.6692 13.5713 10.0439 13.8937 8.21557C14.2161 6.38726 13.7989 4.50576 12.7341 2.98499C11.6692 1.46423 10.0439 0.428756 8.21557 0.106375ZM14.1214 12.2929C13.7308 11.9024 13.0977 11.9024 12.7071 12.2929C12.3166 12.6834 12.3166 13.3166 12.7071 13.7071L15.2929 16.2929C15.6834 16.6834 16.3166 16.6834 16.7071 16.2929C17.0977 15.9024 17.0977 15.2692 16.7071 14.8787L14.1214 12.2929Z" fill="#08306C"/>
</svg>
