<svg width="80" height="80" viewBox="0 0 80 80" fill="none" xmlns="http://www.w3.org/2000/svg">
<path fill-rule="evenodd" clip-rule="evenodd" d="M40 64C52.1503 64 62 54.1503 62 42C62 29.8497 52.1503 20 40 20C27.8497 20 18 29.8497 18 42C18 54.1503 27.8497 64 40 64ZM40 68C54.3594 68 66 56.3594 66 42C66 27.6406 54.3594 16 40 16C25.6406 16 14 27.6406 14 42C14 56.3594 25.6406 68 40 68Z" fill="#CCE0FF"/>
<circle cx="40" cy="42" r="19" fill="#0F5FD8"/>
<path d="M35 11.5C35 9.567 36.567 8 38.5 8H41.5C43.433 8 45 9.567 45 11.5C45 13.433 43.433 15 41.5 15H38.5C36.567 15 35 13.433 35 11.5Z" fill="#A7C9FC"/>
<path fill-rule="evenodd" clip-rule="evenodd" d="M38.8787 47.6561C38.3292 47.2841 38 46.6636 38 46V30C38 28.8954 38.8954 28 40 28C41.1046 28 42 28.8954 42 30V43.0459L46.7572 41.143C47.7828 40.7328 48.9467 41.2316 49.357 42.2572C49.7672 43.2828 49.2683 44.4467 48.2428 44.8569L40.7428 47.8569C40.1266 48.1034 39.4283 48.0282 38.8787 47.6561Z" fill="#CCE0FF"/>
</svg>
