<svg width="117" height="30" viewBox="0 0 117 30" fill="none" xmlns="http://www.w3.org/2000/svg">
<path d="M10.0231 29.9038C15.1765 29.9038 19.354 29.381 19.354 28.7361C19.354 28.0911 15.1765 27.5683 10.0231 27.5683C4.86984 27.5683 0.692261 28.0911 0.692261 28.7361C0.692261 29.381 4.86984 29.9038 10.0231 29.9038Z" fill="#0064C4"/>
<path d="M10.244 29.6152C14.1987 29.6152 17.4047 29.2141 17.4047 28.7194C17.4047 28.2248 14.1987 27.8237 10.244 27.8237C6.28922 27.8237 3.08325 28.2248 3.08325 28.7194C3.08325 29.2141 6.28922 29.6152 10.244 29.6152Z" fill="#1973C4"/>
<path d="M10.241 29.1806C12.9955 29.1806 15.2284 28.9014 15.2284 28.5569C15.2284 28.2125 12.9955 27.9332 10.241 27.9332C7.48658 27.9332 5.25366 28.2125 5.25366 28.5569C5.25366 28.9014 7.48658 29.1806 10.241 29.1806Z" fill="#1797E5"/>
<path d="M7.13851 24.4515C7.13851 24.4515 5.3143 27.0077 5.3143 27.8868C5.3143 28.7659 3.30109 28.5254 3.30109 28.5254C3.30109 28.5254 2.86065 27.9664 3.67907 27.4074C4.49748 26.8484 5.12691 25.4899 5.12691 25.4899L7.13851 24.4515Z" fill="#191919"/>
<path d="M13.54 24.4515C13.54 24.4515 15.2377 27.0077 15.2377 27.8868C15.2377 28.7659 17.11 28.5254 17.11 28.5254C17.11 28.5254 17.52 27.9664 16.7592 27.4074C15.9985 26.8484 15.4123 25.4899 15.4123 25.4899L13.54 24.4515Z" fill="#191919"/>
<path d="M10.3609 27.2067C14.9074 27.2067 18.593 23.9286 18.593 19.885C18.593 15.8413 14.9074 12.5633 10.3609 12.5633C5.81434 12.5633 2.12866 15.8413 2.12866 19.885C2.12866 23.9286 5.81434 27.2067 10.3609 27.2067Z" fill="#191919"/>
<path d="M10.3933 25.2361C14.6426 25.2361 18.0873 22.3992 18.0873 18.8997C18.0873 15.4002 14.6426 12.5633 10.3933 12.5633C6.14397 12.5633 2.69922 15.4002 2.69922 18.8997C2.69922 22.3992 6.14397 25.2361 10.3933 25.2361Z" fill="#262626"/>
<path d="M10.4139 16.1113C14.0105 16.1113 16.926 15.0902 16.926 13.8306C16.926 12.5709 14.0105 11.5498 10.4139 11.5498C6.81741 11.5498 3.90186 12.5709 3.90186 13.8306C3.90186 15.0902 6.81741 16.1113 10.4139 16.1113Z" fill="#262626"/>
<path d="M10.3933 15.6038C14.3277 15.6038 17.5172 14.6963 17.5172 13.5768C17.5172 12.4573 14.3277 11.5498 10.3933 11.5498C6.45888 11.5498 3.26941 12.4573 3.26941 13.5768C3.26941 14.6963 6.45888 15.6038 10.3933 15.6038Z" fill="#191919"/>
<path d="M10.3516 15.0979C13.9481 15.0979 16.8636 14.3032 16.8636 13.323C16.8636 12.3428 13.9481 11.5482 10.3516 11.5482C6.75504 11.5482 3.83948 12.3428 3.83948 13.323C3.83948 14.3032 6.75504 15.0979 10.3516 15.0979Z" fill="#0064C4"/>
<path d="M10.3931 15.0979C13.6977 15.0979 16.3767 14.3032 16.3767 13.323C16.3767 12.3428 13.6977 11.5482 10.3931 11.5482C7.08848 11.5482 4.40955 12.3428 4.40955 13.323C4.40955 14.3032 7.08848 15.0979 10.3931 15.0979Z" fill="#1973C4"/>
<path d="M10.3516 14.5339C13.4342 14.5339 15.9331 13.8529 15.9331 13.0128C15.9331 12.1728 13.4342 11.4918 10.3516 11.4918C7.26897 11.4918 4.77002 12.1728 4.77002 13.0128C4.77002 13.8529 7.26897 14.5339 10.3516 14.5339Z" fill="#1797E5"/>
<path d="M11.817 14.5903C11.2468 15.0979 12.3871 15.6038 12.3871 15.6038C12.3871 15.6038 12.9573 16.1114 12.3871 16.6173C11.817 17.1232 11.2468 17.1248 11.817 17.6308C12.3871 18.1383 12.3871 18.6442 12.3871 18.6442C12.3871 18.6442 12.9573 19.1518 12.3871 18.1367C11.817 17.1215 12.3871 17.1232 12.3871 17.1232L12.9573 16.6156C12.9573 16.6156 13.5275 16.108 12.9573 15.6021C12.3871 15.0945 12.3871 14.0811 12.3871 14.0811L11.817 14.5903Z" fill="#1797E5"/>
<path d="M11.8441 13.8439C11.9578 13.8439 11.9578 13.6614 11.8441 13.6614C11.7304 13.6614 11.7304 13.8439 11.8441 13.8439Z" fill="#1797E5"/>
<path d="M12.2125 16.9208C12.1308 17.0502 12.0555 17.1829 11.9866 17.3189C11.9658 17.3604 11.9754 17.4201 12.0187 17.4433C12.0603 17.4665 12.1148 17.4549 12.1388 17.4101C12.2285 17.2525 12.3182 17.095 12.4079 16.9374C12.3534 16.9225 12.2989 16.9075 12.2445 16.8909C12.2477 16.871 12.2429 16.8976 12.2429 16.8992C12.2413 16.9042 12.2413 16.9108 12.2397 16.9158C12.2365 16.9307 12.2349 16.9457 12.2301 16.9606C12.2237 16.9888 12.2157 17.017 12.2077 17.0452C12.2028 17.0585 12.198 17.0717 12.1932 17.085C12.1932 17.0867 12.1852 17.1082 12.1884 17.0983C12.1916 17.0883 12.1836 17.1082 12.1836 17.1115C12.1708 17.1397 12.158 17.1679 12.142 17.1945C12.1196 17.2359 12.1308 17.2957 12.174 17.3189C12.2157 17.3421 12.2701 17.3305 12.2941 17.2857C12.3614 17.163 12.4014 17.0303 12.4191 16.8909C12.4239 16.8528 12.3886 16.8113 12.355 16.803C12.3166 16.7947 12.2765 16.8097 12.2557 16.8445C12.166 17.0021 12.0763 17.1597 11.9866 17.3172C12.0379 17.3471 12.0875 17.3786 12.1388 17.4085C12.2077 17.2724 12.2829 17.1397 12.3646 17.0104C12.3902 16.9706 12.3742 16.9075 12.3326 16.886C12.2877 16.8627 12.2381 16.8777 12.2125 16.9208Z" fill="#1797E5"/>
<path d="M12.2127 17.095C12.1406 17.1979 12.099 17.3223 12.107 17.45C12.115 17.5893 12.1774 17.7038 12.2463 17.8182C12.384 18.0438 12.5202 18.3407 12.4897 18.6161C12.4849 18.6592 12.4705 18.7753 12.4065 18.7604C12.3568 18.7471 12.3296 18.641 12.328 18.5979C12.3264 18.4718 12.4465 18.3922 12.4545 18.2644C12.4609 18.1268 12.376 17.9957 12.3104 17.8829C12.2319 17.7519 12.1454 17.6275 12.0525 17.5064C11.982 17.4152 11.8587 17.5445 11.9276 17.6358C12.0285 17.7685 12.1214 17.9078 12.2031 18.0554C12.2431 18.1268 12.3008 18.2163 12.2671 18.2993C12.2431 18.3623 12.1918 18.4088 12.1694 18.4768C12.1278 18.6045 12.1582 18.7488 12.2415 18.8516C12.3296 18.9578 12.4705 18.986 12.5698 18.8798C12.6659 18.7753 12.6755 18.6028 12.6611 18.4685C12.6467 18.3142 12.6035 18.1633 12.5442 18.0206C12.4833 17.8713 12.3904 17.7453 12.3216 17.6026C12.2527 17.4616 12.2719 17.3173 12.3616 17.1912C12.4321 17.0934 12.2799 17.0021 12.2127 17.095Z" fill="#1797E5"/>
<path d="M12.3841 18.8301C12.4978 18.8301 12.4978 18.6476 12.3841 18.6476C12.2704 18.6476 12.2704 18.8301 12.3841 18.8301Z" fill="#1797E5"/>
<path d="M12.4497 18.7272C12.5634 18.7272 12.5634 18.5447 12.4497 18.5447C12.336 18.5464 12.336 18.7272 12.4497 18.7272Z" fill="#1797E5"/>
<path d="M12.4317 18.5531C12.5454 18.5531 12.5454 18.3706 12.4317 18.3706C12.3196 18.3706 12.318 18.5531 12.4317 18.5531Z" fill="#1797E5"/>
<path d="M12.4317 18.626C12.5454 18.626 12.5454 18.4435 12.4317 18.4435C12.3196 18.4435 12.318 18.626 12.4317 18.626Z" fill="#1797E5"/>
<path d="M12.3503 18.6841C12.464 18.6841 12.464 18.5016 12.3503 18.5016C12.2382 18.5016 12.2366 18.6841 12.3503 18.6841Z" fill="#1797E5"/>
<path d="M12.467 17.8464C12.3517 17.6291 12.4206 17.3736 12.5167 17.163C12.6192 16.939 12.7521 16.7301 12.8162 16.4879C12.7585 16.4796 12.7009 16.4713 12.6432 16.463C12.6448 16.5493 12.624 16.6239 12.584 16.6985C12.5279 16.7997 12.6801 16.8926 12.7361 16.7898C12.7922 16.6886 12.821 16.5791 12.8194 16.4613C12.8178 16.3602 12.6737 16.3369 12.6464 16.4365C12.5183 16.9258 12.033 17.4035 12.3149 17.9343C12.3693 18.0405 12.5215 17.9492 12.467 17.8464Z" fill="#1797E5"/>
<path d="M11.9273 14.7462C11.8135 14.6185 11.8071 14.4394 11.9 14.3C11.8488 14.2702 11.7991 14.2386 11.7479 14.2088C11.6326 14.4725 11.6005 14.7611 11.6646 15.0431C11.7174 15.0199 11.7719 14.9967 11.8248 14.9735C11.7174 14.786 11.7351 14.5654 11.86 14.3912C11.8087 14.3614 11.7591 14.3299 11.7078 14.3C11.631 14.4443 11.6085 14.6085 11.6486 14.7678C11.6758 14.8822 11.8456 14.8325 11.8183 14.7197C11.7911 14.6085 11.8071 14.4941 11.86 14.3929C11.8824 14.3498 11.8696 14.2934 11.828 14.2685C11.7831 14.242 11.7351 14.2619 11.7078 14.3017C11.5493 14.5239 11.5365 14.8308 11.6726 15.068C11.7239 15.1576 11.8568 15.0979 11.8328 14.9983C11.7799 14.7678 11.8023 14.5206 11.8984 14.305C11.9449 14.1988 11.8119 14.1142 11.7463 14.2138C11.6085 14.4211 11.6406 14.6981 11.8007 14.8806C11.8328 14.9171 11.892 14.9138 11.9257 14.8806C11.9625 14.8391 11.9593 14.7827 11.9273 14.7462Z" fill="#1797E5"/>
<path d="M11.5831 14.572C11.5398 14.6931 11.5222 14.8291 11.5655 14.9519C11.6023 15.058 11.6712 15.1492 11.7545 15.2189C11.9466 15.3798 12.1901 15.4395 12.4271 15.4909C12.4736 15.5009 12.5216 15.4777 12.536 15.4279C12.5472 15.3831 12.5216 15.3251 12.4752 15.3151C12.275 15.272 12.062 15.2272 11.8938 15.0995C11.8313 15.0514 11.7737 14.9883 11.7416 14.9137C11.7 14.8175 11.7208 14.713 11.7561 14.6184C11.7721 14.572 11.7368 14.5189 11.6952 14.5057C11.6423 14.494 11.5991 14.5256 11.5831 14.572Z" fill="#1797E5"/>
<path d="M12.6065 15.0647C12.5745 14.9519 12.5841 14.8374 12.6337 14.7313C12.6834 14.6284 12.7587 14.5289 12.7763 14.4128C12.7939 14.2934 12.7411 14.169 12.6129 14.1573C12.496 14.1457 12.3823 14.2336 12.331 14.3365C12.2606 14.4758 12.2878 14.6268 12.3246 14.7711C12.3471 14.8607 12.4688 14.8557 12.4944 14.7711C12.5344 14.6384 12.5569 14.5024 12.5617 14.363C12.5665 14.2453 12.3903 14.2453 12.3855 14.363C12.3807 14.4858 12.3583 14.6052 12.3246 14.723C12.3807 14.723 12.4384 14.723 12.4944 14.723C12.4688 14.6201 12.4335 14.4924 12.5008 14.3995C12.5232 14.3697 12.5649 14.3332 12.6033 14.3415C12.5937 14.3398 12.6017 14.3299 12.6033 14.3431C12.6017 14.3282 12.6033 14.3564 12.6017 14.3431C12.6017 14.3514 12.6049 14.373 12.6033 14.3813C12.5921 14.436 12.5633 14.4858 12.5377 14.5339C12.5072 14.5919 12.4752 14.6483 12.4512 14.708C12.4015 14.8374 12.3967 14.9817 12.4351 15.1144C12.4688 15.2239 12.6386 15.1775 12.6065 15.0647Z" fill="#1797E5"/>
<path d="M12.3341 19.7739C12.4478 19.7739 12.4478 19.5914 12.3341 19.5914C12.2204 19.5914 12.2204 19.7739 12.3341 19.7739Z" fill="#1797E5"/>
<path d="M12.2479 19.5533C12.2415 19.6246 12.2527 19.6992 12.2783 19.7672C12.2863 19.7888 12.2975 19.8104 12.3184 19.822C12.3392 19.8336 12.3632 19.8386 12.3856 19.8319C12.4721 19.8021 12.5458 19.7291 12.5634 19.6329C12.573 19.5831 12.5698 19.535 12.5506 19.4886C12.5298 19.4388 12.4929 19.394 12.4449 19.3725C12.4144 19.3592 12.384 19.3492 12.3504 19.3509C12.3167 19.3525 12.2895 19.3608 12.2607 19.3758C12.211 19.4007 12.1726 19.4488 12.1566 19.5035C12.1374 19.5649 12.1518 19.6329 12.1806 19.6893C12.2046 19.7357 12.2447 19.7822 12.2911 19.8054C12.3504 19.8352 12.4144 19.8386 12.4753 19.807C12.5234 19.7822 12.5538 19.7341 12.5746 19.6843C12.6082 19.5964 12.5906 19.4736 12.5202 19.4089C12.4321 19.3277 12.3039 19.3393 12.2158 19.4123C12.1262 19.4869 12.123 19.6246 12.1726 19.7258C12.1982 19.7772 12.2463 19.822 12.3023 19.8336C12.3552 19.8452 12.4112 19.8352 12.4577 19.8054C12.5025 19.7772 12.541 19.7307 12.5522 19.676C12.5634 19.613 12.5522 19.5516 12.5202 19.4969C12.5057 19.472 12.4881 19.4504 12.4689 19.4305C12.4369 19.3957 12.376 19.394 12.344 19.4305C12.3119 19.467 12.3103 19.5234 12.344 19.5599C12.3488 19.5649 12.3536 19.5715 12.3584 19.5765C12.36 19.5781 12.368 19.5881 12.3584 19.5765C12.3488 19.5632 12.3584 19.5765 12.36 19.5798C12.368 19.5914 12.3744 19.6047 12.3808 19.618C12.3776 19.6113 12.3744 19.603 12.3712 19.5964C12.376 19.6097 12.3792 19.6229 12.3824 19.6362C12.3808 19.6279 12.3808 19.6196 12.3792 19.6113C12.3808 19.6213 12.3808 19.6329 12.3792 19.6428C12.3808 19.6345 12.3808 19.6262 12.3824 19.618C12.3808 19.6279 12.3792 19.6379 12.376 19.6478C12.3792 19.6412 12.3824 19.6329 12.3856 19.6262C12.384 19.6296 12.3744 19.6428 12.376 19.6445C12.376 19.6428 12.392 19.6246 12.3824 19.6362C12.3792 19.6395 12.3776 19.6412 12.3744 19.6445C12.3728 19.6462 12.3696 19.6478 12.368 19.6511C12.384 19.6345 12.3808 19.6412 12.3744 19.6461C12.368 19.6511 12.3616 19.6544 12.3536 19.6578C12.36 19.6544 12.368 19.6511 12.3744 19.6478C12.3632 19.6528 12.3504 19.6561 12.3376 19.6578C12.3456 19.6561 12.3536 19.6561 12.3616 19.6544C12.352 19.6561 12.3424 19.6561 12.3312 19.6544C12.3392 19.6561 12.3472 19.6561 12.3552 19.6578C12.3472 19.6561 12.3408 19.6544 12.3328 19.6511C12.3392 19.6544 12.3472 19.6578 12.3536 19.6611C12.3472 19.6578 12.3408 19.6544 12.3344 19.6511C12.3456 19.6611 12.3488 19.6627 12.344 19.6578C12.3424 19.6561 12.3408 19.6544 12.3392 19.6528C12.336 19.6495 12.3344 19.6478 12.3312 19.6445C12.3248 19.6379 12.344 19.6644 12.336 19.6511C12.3344 19.6478 12.3328 19.6445 12.3296 19.6412C12.3264 19.6345 12.3216 19.6279 12.3184 19.6196C12.3216 19.6262 12.3248 19.6345 12.328 19.6412C12.3216 19.6246 12.3167 19.6063 12.3135 19.5881C12.3151 19.5964 12.3151 19.6047 12.3167 19.613C12.3151 19.598 12.3151 19.5831 12.3167 19.5682C12.3151 19.5765 12.3151 19.5848 12.3135 19.5931C12.3151 19.5798 12.3184 19.5665 12.3232 19.5549C12.32 19.5616 12.3167 19.5698 12.3135 19.5765C12.3167 19.5682 12.3216 19.5599 12.3264 19.5516C12.336 19.5367 12.3119 19.5665 12.3232 19.5566C12.3264 19.5533 12.328 19.5516 12.3312 19.5483C12.3376 19.5433 12.3472 19.5383 12.3248 19.5533C12.328 19.5516 12.3312 19.5483 12.3344 19.5466C12.3408 19.5416 12.3488 19.5383 12.3552 19.535C12.3488 19.5383 12.3408 19.5416 12.3344 19.545C12.3488 19.5383 12.3616 19.535 12.376 19.5334C12.368 19.535 12.36 19.535 12.352 19.5367C12.3648 19.535 12.3776 19.535 12.392 19.5367C12.384 19.535 12.376 19.535 12.368 19.5334C12.3792 19.535 12.3904 19.5383 12.4016 19.5433C12.3952 19.54 12.3872 19.5367 12.3808 19.5334C12.3872 19.5367 12.392 19.54 12.3984 19.5433C12.4112 19.5516 12.3824 19.5284 12.3936 19.54C12.3952 19.5416 12.3984 19.545 12.4 19.5466C12.4048 19.5533 12.4064 19.5599 12.3952 19.5383C12.3968 19.5416 12.3984 19.5433 12.4 19.5466C12.4032 19.5533 12.4064 19.5599 12.4096 19.5665C12.4064 19.5599 12.4032 19.5516 12.4 19.545C12.4064 19.5599 12.4096 19.5748 12.4112 19.5914C12.4096 19.5831 12.4096 19.5748 12.408 19.5665C12.4096 19.5831 12.4096 19.5997 12.408 19.6163C12.4096 19.608 12.4096 19.5997 12.4112 19.5914C12.4096 19.6063 12.4048 19.6213 12.4 19.6362C12.4032 19.6296 12.4064 19.6213 12.4096 19.6146C12.4064 19.6213 12.4032 19.6279 12.4 19.6345C12.3984 19.6379 12.3952 19.6412 12.3936 19.6445C12.3856 19.6578 12.408 19.6279 12.3984 19.6379C12.3952 19.6412 12.3936 19.6428 12.3904 19.6461C12.384 19.6528 12.376 19.6528 12.3968 19.6412C12.3904 19.6445 12.384 19.6495 12.3776 19.6528C12.384 19.6495 12.392 19.6461 12.3984 19.6428C12.3904 19.6461 12.3824 19.6495 12.3728 19.6495C12.3808 19.6478 12.3888 19.6478 12.3968 19.6461C12.3888 19.6478 12.3792 19.6478 12.3712 19.6461C12.3792 19.6478 12.3872 19.6478 12.3952 19.6495C12.3856 19.6478 12.3744 19.6445 12.3648 19.6412C12.3712 19.6445 12.3792 19.6478 12.3856 19.6511C12.376 19.6461 12.368 19.6412 12.3584 19.6362C12.3504 19.6312 12.3536 19.6329 12.3664 19.6428C12.3648 19.6412 12.3616 19.6395 12.36 19.6362C12.3568 19.6329 12.352 19.6296 12.3488 19.6246C12.3456 19.6213 12.3424 19.6163 12.3392 19.613C12.3584 19.6345 12.3456 19.6213 12.3408 19.6146C12.3344 19.6047 12.328 19.5931 12.3232 19.5815C12.3264 19.5881 12.3296 19.5964 12.3328 19.603C12.328 19.5898 12.3232 19.5748 12.3216 19.5599C12.3232 19.5682 12.3232 19.5765 12.3248 19.5848C12.3232 19.5715 12.3232 19.5599 12.3248 19.5466C12.3232 19.5549 12.3232 19.5632 12.3216 19.5715C12.3232 19.5616 12.3248 19.5533 12.328 19.5433C12.3248 19.5499 12.3216 19.5582 12.3184 19.5649C12.3216 19.5582 12.3248 19.5516 12.328 19.5466C12.3328 19.5383 12.3135 19.5649 12.3232 19.5533C12.3264 19.5499 12.328 19.5466 12.3312 19.545C12.3344 19.5416 12.344 19.5334 12.3312 19.5433C12.3184 19.5533 12.3296 19.545 12.3328 19.5433C12.3392 19.5383 12.3472 19.535 12.3552 19.5317C12.3488 19.535 12.3408 19.5383 12.3344 19.5416C12.344 19.5367 12.3552 19.535 12.3664 19.5334C12.3584 19.535 12.3504 19.535 12.3424 19.5367C12.352 19.535 12.3616 19.535 12.3712 19.5367C12.3632 19.535 12.3552 19.535 12.3472 19.5334C12.3568 19.535 12.3664 19.5383 12.3776 19.5416C12.3712 19.5383 12.3632 19.535 12.3568 19.5317C12.36 19.5334 12.3792 19.5466 12.3792 19.545C12.3776 19.545 12.36 19.5284 12.3728 19.54C12.376 19.5433 12.3792 19.5466 12.3824 19.5499C12.3936 19.5632 12.3776 19.5433 12.3776 19.5433L12.384 19.5516C12.3872 19.5582 12.3904 19.5632 12.3936 19.5698C12.3904 19.5632 12.3872 19.5549 12.384 19.5483C12.3888 19.5599 12.392 19.5732 12.3936 19.5848C12.392 19.5765 12.392 19.5682 12.3904 19.5599C12.392 19.5732 12.392 19.5848 12.3904 19.598C12.392 19.5898 12.392 19.5815 12.3936 19.5732C12.392 19.5881 12.3872 19.603 12.3824 19.618C12.3856 19.6113 12.3888 19.603 12.392 19.5964C12.3888 19.6063 12.384 19.6146 12.3776 19.6229C12.376 19.6262 12.3744 19.6279 12.3728 19.6312C12.3664 19.6412 12.3792 19.6213 12.3808 19.6213C12.3792 19.6213 12.3712 19.6312 12.3696 19.6329C12.3664 19.6362 12.3632 19.6395 12.3584 19.6428C12.3536 19.6478 12.344 19.6511 12.3664 19.6362C12.3648 19.6379 12.3632 19.6395 12.36 19.6412C12.3504 19.6478 12.3408 19.6528 12.3312 19.6578C12.3376 19.6544 12.3456 19.6511 12.352 19.6478C12.3472 19.6495 12.3424 19.6511 12.3376 19.6528C12.3744 19.6743 12.4096 19.6959 12.4465 19.7158C12.4337 19.6826 12.4257 19.6495 12.4209 19.6146C12.4225 19.6229 12.4225 19.6312 12.4241 19.6395C12.4209 19.6097 12.4209 19.5815 12.4225 19.5516C12.4241 19.53 12.4112 19.5018 12.3968 19.4869C12.3808 19.4703 12.3568 19.4587 12.3344 19.4604C12.3119 19.462 12.2879 19.4687 12.2719 19.4869C12.2575 19.5068 12.2495 19.5267 12.2479 19.5533Z" fill="#1797E5"/>
<path d="M12.5311 20.4872C12.6448 20.4872 12.6448 20.3047 12.5311 20.3047C12.4174 20.3047 12.4174 20.4872 12.5311 20.4872Z" fill="#1797E5"/>
<path d="M16.4166 15.6037C16.5463 15.554 17.1822 16.3187 17.5217 17.2194C18.3497 19.4189 17.0572 21.5138 16.9467 21.6864C15.7584 23.5458 13.7195 24.2939 13.6539 24.2209C13.601 24.1612 14.8326 23.5773 15.808 22.1939C16.0146 21.9003 17.2607 20.0724 16.9692 17.7585C16.8138 16.5227 16.2837 15.6568 16.4166 15.6037Z" fill="#3D3D3D"/>
<path d="M17.2657 18.9312C17.3794 18.9312 17.3794 18.7487 17.2657 18.7487C17.152 18.7487 17.152 18.9312 17.2657 18.9312Z" fill="#545556"/>
<path d="M8.03866 13.2086L7.88331 12.633L7.95858 12.4937L8.02585 12.5335L8.06429 12.4638C8.06429 12.4638 8.16038 12.6115 8.26609 12.5816C8.37179 12.5517 8.48391 12.5468 8.41824 12.3029C8.38941 12.1935 8.0739 12.2847 8.0739 12.2847L7.93135 12.3842L7.88811 12.2217L7.94096 12.2067L7.88171 11.9894L7.776 12.0193L7.70873 11.9795L7.15298 9.91103L6.99602 9.95581L7.12415 9.80155L7.05528 9.54279L7.10333 9.51459L6.22566 6.24853L5.963 6.32483L5.94858 6.27009L6.15839 6.20872L6.64207 5.48219C6.64207 5.48219 6.58281 5.26489 6.373 5.32461C6.16319 5.38598 5.63787 5.53693 5.63787 5.53693L5.27271 4.17676L4.85309 4.29785L5.02927 4.95139L5.12056 5.00447L5.20384 5.31134L5.29193 5.63811L5.33517 5.80067L5.43767 6.18218L5.41845 6.18715L5.47771 6.40445L5.1622 6.49568L6.11355 10.0338L6.27691 10.13L6.41144 10.0918L6.43386 10.1764L6.36339 10.1963L6.31374 10.2892L5.98061 10.3854L5.45529 10.5364C5.40884 10.5662 5.35919 10.5928 5.30794 10.6177C4.71215 10.9112 4.08112 10.7985 3.68232 10.6757L3.67432 11.9098C3.67432 11.9098 4.60324 11.9944 5.09013 11.9115C5.44408 11.8518 5.50494 11.8153 5.51295 11.7987L5.766 12.9482C5.766 12.9482 5.61385 13.2269 5.50974 13.2567C5.50974 13.2567 6.29292 13.4408 7.16259 13.2998C8.02585 13.1622 8.03866 13.2086 8.03866 13.2086ZM6.29933 12.4522C6.17441 12.6811 5.81245 12.3693 5.94698 12.4489C6.08151 12.5269 6.2737 12.3378 6.2737 12.3378C6.2737 12.3378 6.38261 12.2996 6.29933 12.4522Z" fill="white"/>
<path d="M11.1108 13.4176C11.1236 13.406 11.1348 13.3944 11.146 13.3811C11.1572 13.3662 11.1508 13.3446 11.1604 13.3264C11.1685 13.323 11.1765 13.3197 11.1845 13.3164C11.1925 13.3031 11.1925 13.2882 11.1941 13.2733C11.1957 13.2583 11.2101 13.2484 11.2197 13.2567C11.2341 13.2716 11.2501 13.2733 11.2694 13.2733C11.2806 13.2733 11.2886 13.2783 11.2934 13.2882C11.2966 13.2965 11.2998 13.3048 11.3078 13.3098C11.3334 13.3114 11.3606 13.3147 11.3879 13.3081C11.4039 13.2832 11.4087 13.255 11.4087 13.2268C11.4087 13.1787 11.4071 13.1306 11.4087 13.0825C11.4103 13.0444 11.4023 13.0095 11.3895 12.9747C11.359 12.9681 11.3318 12.9681 11.3062 12.973C11.2934 12.983 11.2934 12.9979 11.279 13.0062C11.271 13.0062 11.2597 13.0079 11.2485 13.0079C11.2421 13.0079 11.2357 13.0112 11.2293 13.0145C11.2069 13.0294 11.1989 13.0261 11.1925 13.0029C11.1909 12.9996 11.1893 12.9946 11.1893 12.9896C11.1893 12.9714 11.1829 12.9598 11.1636 12.9581C11.1604 12.9581 11.1556 12.9548 11.154 12.9515C11.1396 12.9332 11.1252 12.9133 11.1092 12.8967C11.098 12.8835 11.0948 12.8702 11.0948 12.8536C11.0948 12.8039 11.0948 12.7541 11.0948 12.7043C11.0948 12.6977 11.0964 12.6911 11.098 12.6844C11.1028 12.6828 11.1076 12.6811 11.1108 12.6794C11.1284 12.6778 11.1332 12.6662 11.1348 12.6512C11.1348 12.6446 11.1348 12.6363 11.1348 12.6297C11.1348 12.5849 11.1348 12.5385 11.1348 12.4937C11.1348 12.4472 11.13 12.4389 11.0964 12.4107C11.0964 12.4074 11.0948 12.4058 11.0948 12.4024C11.0948 12.3278 11.0948 12.2548 11.0948 12.1802C11.0948 12.1686 11.0964 12.1569 11.0996 12.147C11.114 12.0873 11.1268 12.0276 11.1396 11.9678C11.1652 11.8633 11.1829 11.7572 11.2085 11.651C11.2325 11.5498 11.2501 11.4487 11.2742 11.3475C11.2886 11.2894 11.2934 11.2297 11.2934 11.17C11.2918 11.0754 11.2934 10.9826 11.2934 10.888C11.2934 10.8698 11.295 10.8532 11.3062 10.8349C11.319 10.8134 11.3174 10.7868 11.3046 10.7619C11.2774 10.7586 11.2501 10.7553 11.2229 10.7553C11.1428 10.752 11.0643 10.752 10.9843 10.7503C10.8273 10.7487 10.672 10.752 10.515 10.7536C10.5118 10.7536 10.5102 10.7536 10.507 10.7536C10.4942 10.7553 10.483 10.757 10.4734 10.7686C10.4718 10.7835 10.4702 10.7984 10.4686 10.8134C10.4686 10.8183 10.4686 10.8266 10.4702 10.8299C10.4894 10.8499 10.4846 10.8747 10.4846 10.898C10.4846 11.0091 10.4846 11.1202 10.4846 11.2314C10.4846 11.2562 10.4878 11.2795 10.4926 11.3027C10.5054 11.3525 10.5166 11.4022 10.5262 11.452C10.547 11.5548 10.5695 11.6577 10.5919 11.7605C10.6207 11.8866 10.6463 12.0126 10.6736 12.1387C10.6752 12.1503 10.6784 12.1619 10.6784 12.1719C10.6784 12.2432 10.6784 12.3145 10.6784 12.3858C10.6784 12.3941 10.6784 12.4024 10.6704 12.4091C10.6672 12.4091 10.6639 12.4124 10.6591 12.4124C10.5727 12.4124 10.4862 12.4124 10.3997 12.4124C10.3933 12.4124 10.3885 12.4107 10.3853 12.4024C10.3837 12.3809 10.3901 12.356 10.3805 12.3328C10.3532 12.3228 10.3484 12.3013 10.358 12.2714C10.3645 12.2631 10.3789 12.2614 10.3837 12.2482C10.3885 12.2167 10.3901 12.1868 10.3532 12.1719C10.3532 12.1503 10.3532 12.1304 10.3532 12.1105C10.3532 12.0906 10.3532 12.0707 10.3532 12.0508C10.3516 12.0309 10.358 12.011 10.35 11.9944C10.326 11.9795 10.3052 11.9944 10.2828 11.9911C10.2812 11.9861 10.278 11.9828 10.278 11.9778C10.2764 11.9347 10.2748 11.8932 10.2796 11.8501C10.286 11.7754 10.2876 11.7024 10.2587 11.6311C10.2475 11.6046 10.2443 11.5764 10.2459 11.5482C10.2491 11.2397 10.2443 10.9311 10.2491 10.6209C10.2523 10.4103 10.2491 10.1996 10.2491 9.98897C10.2491 9.77665 10.2491 9.56433 10.2491 9.35201C10.2491 9.14135 10.2475 8.93069 10.2491 8.72003C10.2507 8.50771 10.2427 8.29539 10.2539 8.08473C10.2555 8.05653 10.2539 8.02833 10.2539 8.00013C10.2539 7.58379 10.2523 7.16911 10.2539 6.75276C10.2555 6.33642 10.2539 5.91841 10.2571 5.50207C10.2619 4.88834 10.2571 4.2746 10.2587 3.66087C10.2587 3.42035 10.2555 3.17983 10.262 2.93932C10.2668 2.7469 10.2636 2.55449 10.2636 2.36207C10.2636 2.35378 10.2636 2.34549 10.262 2.33719C10.2555 2.3007 10.2603 2.26255 10.2587 2.22606C10.2587 2.21113 10.2636 2.20118 10.278 2.1962C10.2844 2.19454 10.2908 2.19122 10.2972 2.18956C10.3084 2.18459 10.3132 2.17629 10.3148 2.16302C10.3164 2.13151 10.318 2.09999 10.3196 2.07013C10.3196 1.98554 10.3196 1.89928 10.3196 1.81469C10.3196 1.79976 10.3212 1.78649 10.318 1.77488C10.3052 1.75331 10.278 1.75663 10.2652 1.73507C10.2652 1.72346 10.2652 1.70853 10.2652 1.69526C10.2652 1.58412 10.2652 1.47299 10.2652 1.36185C10.2652 1.34029 10.2603 1.31873 10.262 1.29882C10.2684 1.21091 10.2652 1.12299 10.2603 1.03508C10.2587 1.02015 10.2523 1.01186 10.2427 1.00356C10.2235 0.988636 10.2011 0.982 10.1787 0.977024C10.1306 0.967071 10.0842 0.968729 10.0361 0.978682C10.0169 0.981999 9.99929 0.988635 9.98167 1.00025C9.96245 1.01186 9.95284 1.02845 9.95284 1.05333C9.95444 1.08484 9.95284 1.11636 9.95284 1.14787C9.95284 1.16114 9.95284 1.17275 9.95124 1.18602C9.94644 1.22252 9.94644 1.25901 9.95124 1.29716C9.95284 1.30546 9.95284 1.31375 9.95124 1.32204C9.94644 1.34195 9.94804 1.36185 9.94804 1.38176C9.94804 1.48792 9.94804 1.59242 9.94804 1.69858C9.94804 1.71351 9.95124 1.73009 9.94323 1.74502C9.94003 1.74668 9.93522 1.75 9.93202 1.75C9.9144 1.75332 9.90319 1.76493 9.89518 1.77985C9.88077 1.80474 9.86956 1.82962 9.85835 1.85616C9.85354 1.86777 9.85034 1.88104 9.85034 1.89265C9.85034 1.93744 9.85354 1.98388 9.85194 2.02867C9.84874 2.07345 9.85835 2.1116 9.87757 2.15141C9.89358 2.18459 9.9096 2.21113 9.94804 2.20947C9.95765 2.22274 9.95605 2.23601 9.95605 2.24762C9.95765 2.28577 9.95124 2.32392 9.95124 2.36207C9.94964 2.45496 9.95284 2.54785 9.95124 2.63908C9.95124 2.67889 9.95605 2.7187 9.94964 2.75851C9.94644 2.78008 9.94644 2.80164 9.94644 2.82154C9.94644 3.02723 9.94644 3.23457 9.94644 3.44026C9.94644 3.84665 9.94644 4.25138 9.94644 4.65777C9.94644 4.87175 9.94644 5.08407 9.94644 5.29805C9.94644 5.3279 9.94163 5.35776 9.94163 5.38762C9.94163 5.61155 9.94163 5.83382 9.94163 6.05775C9.94163 6.5139 9.94163 6.9684 9.94163 7.42455C9.94163 7.66175 9.94003 7.90061 9.93843 8.13781C9.93843 8.24397 9.93843 8.34847 9.93843 8.45463C9.93843 8.46624 9.94163 8.48117 9.92722 8.49278C9.908 8.49278 9.88718 8.49444 9.86475 8.49444C9.73983 8.49444 9.61491 8.49444 9.48998 8.49444C9.48197 8.49444 9.47397 8.49278 9.46436 8.50273C9.45475 8.52927 9.46756 8.56079 9.45635 8.59396C9.43873 8.57904 9.42432 8.57074 9.4067 8.58069C9.40029 8.58567 9.40029 8.59397 9.40029 8.6006C9.40029 8.60724 9.39869 8.61553 9.38908 8.61553C9.38107 8.61387 9.37947 8.60558 9.37787 8.59894C9.37787 8.59562 9.37627 8.59396 9.37787 8.59065C9.38428 8.55913 9.36666 8.52927 9.37146 8.49776C9.36025 8.47122 9.36826 8.44136 9.36666 8.41482C9.36666 8.39492 9.36826 8.37501 9.36826 8.35511C9.36826 8.22075 9.36826 8.08805 9.36826 7.95369C9.36826 7.93876 9.36666 7.92218 9.37146 7.90559C9.37467 7.90227 9.37947 7.89895 9.38428 7.89564C9.39389 7.889 9.40349 7.88402 9.4115 7.87739C9.41631 7.87407 9.41951 7.86909 9.41791 7.86246C9.41631 7.85417 9.4115 7.85085 9.4035 7.84753C9.39389 7.84256 9.38107 7.85085 9.37146 7.84421C9.36666 7.83592 9.36826 7.82929 9.37627 7.82597C9.38428 7.82265 9.39228 7.82431 9.40029 7.82099C9.4083 7.81933 9.4115 7.80772 9.4083 7.79943C9.4051 7.79445 9.40189 7.78948 9.39869 7.78616C9.38908 7.77952 9.37627 7.77455 9.36986 7.76294C9.36346 7.6999 9.36506 7.53237 9.37146 7.5191C9.37787 7.51081 9.39068 7.51081 9.39709 7.4909C9.39709 7.44446 9.39549 7.38972 9.39709 7.33664C9.40029 7.28024 9.38588 7.22716 9.38428 7.17242C9.38428 7.17077 9.38107 7.16745 9.37947 7.16579C9.36346 7.15915 9.35545 7.17242 9.34424 7.18072C9.33463 7.18901 9.32502 7.18404 9.32181 7.16745C9.32181 7.16579 9.32342 7.16247 9.32342 7.15915C9.32982 7.15086 9.34263 7.15584 9.35064 7.14091C9.35064 7.13261 9.35064 7.121 9.35064 7.10773C9.35064 6.86722 9.35064 6.6267 9.35064 6.38618C9.35064 6.34139 9.35224 6.29827 9.34904 6.25348C9.34584 6.18879 9.34744 6.12576 9.34744 6.06107C9.34744 6.04448 9.35224 6.03287 9.36826 6.02955C9.39228 6.02458 9.39709 6.00799 9.39709 5.98477C9.39549 5.94164 9.39549 5.90017 9.39709 5.85704C9.39709 5.84211 9.39389 5.82553 9.40189 5.80894C9.4067 5.80728 9.4115 5.80396 9.41631 5.8023C9.43873 5.78903 9.44033 5.77411 9.41951 5.75752C9.41471 5.7542 9.4099 5.75088 9.4051 5.74756C9.39228 5.73927 9.38588 5.72766 9.38748 5.71107C9.38748 5.70112 9.38908 5.69117 9.38908 5.68121C9.38908 5.6779 9.39228 5.67624 9.39389 5.67292C9.40189 5.66794 9.41311 5.66297 9.42111 5.65965C9.42592 5.64804 9.42592 5.63643 9.41791 5.62316C9.39709 5.61652 9.38267 5.59662 9.36506 5.58169C9.35705 5.57505 9.34904 5.5651 9.33783 5.56344C9.29939 5.56013 9.26095 5.55017 9.22892 5.58169C9.2097 5.60159 9.18728 5.61818 9.17607 5.64472C9.17447 5.64804 9.17607 5.65302 9.17447 5.65467C9.18087 5.66794 9.19529 5.66463 9.2033 5.6779C9.2033 5.70775 9.21291 5.73927 9.19048 5.76913C9.18568 5.77576 9.18568 5.78572 9.19209 5.79235C9.2033 5.80562 9.2049 5.82055 9.2049 5.83548C9.2065 5.8587 9.2049 5.88358 9.21931 5.90515C9.22412 5.91344 9.22091 5.92505 9.22251 5.935C9.22412 5.95822 9.22412 5.97979 9.22412 6.00301C9.22412 6.0113 9.22892 6.0196 9.23693 6.02292C9.24334 6.02457 9.24974 6.02623 9.25455 6.03784C9.25935 6.07268 9.25935 6.11083 9.25935 6.14898C9.25775 6.19377 9.25615 6.23689 9.25455 6.28168C9.25295 6.3895 9.25294 6.49732 9.25134 6.60679C9.25134 6.68807 9.25134 6.76935 9.25134 6.85063C9.25134 6.8838 9.25615 6.91532 9.24494 6.94849C9.24334 6.95513 9.24334 6.96342 9.24334 6.97006C9.24334 7.01319 9.24334 7.05465 9.24334 7.09778C9.24334 7.11603 9.24173 7.13427 9.24013 7.14754C9.22892 7.16745 9.2081 7.15915 9.19689 7.17574C9.19689 7.18072 9.19529 7.18735 9.19529 7.19565C9.19529 7.262 9.19529 7.33 9.19529 7.39635C9.19529 7.40631 9.19689 7.41626 9.20009 7.42621C9.2049 7.44446 9.2081 7.4627 9.2097 7.48095C9.2097 7.4909 9.2113 7.50085 9.21931 7.50749C9.23212 7.51744 9.23373 7.53071 9.23533 7.54564C9.23533 7.58213 9.23693 7.62028 9.23533 7.65678C9.23533 7.68829 9.23373 7.71981 9.23212 7.75132C9.23212 7.77123 9.22412 7.78616 9.2049 7.79445C9.20009 7.79611 9.19529 7.80109 9.19689 7.80772C9.19689 7.80938 9.19689 7.81104 9.19849 7.81104C9.2033 7.82099 9.21451 7.82099 9.22251 7.82597C9.22572 7.82763 9.22732 7.8326 9.23052 7.83592C9.22572 7.84753 9.2113 7.84919 9.21451 7.86412C9.22091 7.87075 9.23052 7.87739 9.23212 7.88568C9.23853 7.91388 9.23853 7.94208 9.23052 7.97028C9.22892 7.97691 9.22412 7.98189 9.21771 7.98686C9.2097 7.99516 9.20009 8.00014 9.19209 8.00843C9.17607 8.0217 9.17447 8.02834 9.18247 8.04824C9.18408 8.05322 9.19048 8.05985 9.18888 8.06317C9.17927 8.08639 9.18728 8.10795 9.19369 8.12952C9.19529 8.13283 9.19369 8.13781 9.19209 8.14279C9.18888 8.1544 9.18888 8.16601 9.19369 8.17596C9.20009 8.18923 9.19689 8.20416 9.19369 8.21743C9.19048 8.23402 9.2081 8.24563 9.2049 8.26222C9.2033 8.26719 9.2033 8.27051 9.20169 8.27549C9.20169 8.28212 9.20009 8.29042 9.2033 8.29705C9.2113 8.31198 9.2113 8.32691 9.2049 8.34184C9.2033 8.34515 9.2065 8.35345 9.2081 8.35842C9.2113 8.36672 9.22091 8.37335 9.22091 8.38828C9.21291 8.40487 9.2081 8.42311 9.22412 8.44136C9.22892 8.44634 9.22732 8.45463 9.22572 8.46127C9.22252 8.47288 9.22252 8.48283 9.22572 8.49444C9.22732 8.50605 9.22892 8.51766 9.22892 8.52762C9.23052 8.58235 9.23212 8.63543 9.23212 8.69017C9.23212 8.74989 9.23212 8.8096 9.23212 8.86932C9.23212 8.88756 9.22892 8.90581 9.21611 8.92074C9.19208 8.94728 9.17767 8.97879 9.16966 9.01363C9.16486 9.03187 9.15845 9.04846 9.14884 9.06339C9.12962 9.09325 9.12161 9.12642 9.13923 9.1596C9.15044 9.18116 9.16165 9.20272 9.17447 9.22263C9.18568 9.23756 9.19529 9.25249 9.20009 9.27073C9.2049 9.284 9.2113 9.29727 9.22091 9.30722C9.23533 9.32215 9.24974 9.33874 9.26576 9.35201C9.31701 9.39514 9.37146 9.42997 9.44033 9.42831C9.44353 9.42831 9.44514 9.42997 9.44834 9.43163C9.45635 9.43992 9.45475 9.44988 9.45475 9.45983C9.45154 9.48305 9.45154 9.50461 9.45154 9.52784C9.44994 9.66385 9.45154 9.80153 9.44834 9.93755C9.44514 10.0454 9.44834 10.1532 9.44834 10.2627C9.44834 10.2859 9.44994 10.3091 9.44674 10.3307C9.44353 10.3688 9.44193 10.407 9.44193 10.4451C9.44193 10.5048 9.44033 10.5646 9.44193 10.6243C9.44354 10.684 9.43713 10.7437 9.43713 10.8034C9.43713 10.8664 9.43553 10.9295 9.43713 10.9908C9.43873 11.0456 9.43392 11.0987 9.43392 11.1534C9.43232 11.238 9.43232 11.3243 9.43392 11.4089C9.43553 11.4553 9.42752 11.5001 9.4099 11.5415C9.37627 11.6212 9.35385 11.7058 9.32502 11.787C9.30259 11.8517 9.27857 11.9148 9.25615 11.9795C9.23373 12.0408 9.2097 12.1005 9.18728 12.1619C9.17607 12.1901 9.16646 12.2183 9.15525 12.2449C9.14244 12.2764 9.13283 12.3095 9.12962 12.3427C9.12482 12.3991 9.12162 12.4555 9.11841 12.5119C9.11681 12.5302 9.11681 12.5484 9.1072 12.565C9.08798 12.565 9.07036 12.565 9.05275 12.565C9.03993 12.565 9.02872 12.5633 9.01591 12.5633C8.95985 12.5617 8.9038 12.56 8.84774 12.5584C8.83653 12.5584 8.82692 12.555 8.81731 12.5484C8.79649 12.5318 8.78688 12.5351 8.77887 12.56C8.77407 12.5733 8.77247 12.5882 8.77247 12.6015C8.77247 12.6148 8.77247 12.6264 8.77086 12.6396C8.76446 12.7143 8.75645 12.7889 8.75004 12.8636C8.73723 13.0029 8.72602 13.1406 8.71481 13.2799C8.71161 13.3164 8.7084 13.3546 8.7052 13.391C8.96146 13.4342 9.23693 13.401 9.48678 13.4955C9.95605 13.6714 9.98808 13.537 10.2443 13.547C10.2443 13.4989 10.2443 13.4491 10.2443 13.401H10.2459C10.2459 13.4491 10.2459 13.4989 10.2459 13.547C10.2924 13.5486 10.3388 13.5486 10.3853 13.5503C10.3853 13.5486 10.3853 13.5486 10.3853 13.547C10.3821 13.532 10.3805 13.5221 10.3645 13.5138C10.3452 13.5038 10.3468 13.4856 10.3661 13.4756C10.3725 13.4723 10.3789 13.4707 10.3853 13.4624C10.3869 13.4408 10.3901 13.4176 10.3805 13.3944C10.3404 13.3761 10.3404 13.3429 10.3837 13.323C10.3901 13.3098 10.3869 13.2948 10.3869 13.2816C10.3869 13.265 10.3805 13.2534 10.3661 13.2434C10.3452 13.2285 10.3468 13.2053 10.3693 13.1887C10.3741 13.1854 10.3805 13.1804 10.3853 13.1771C10.3917 13.1207 10.3901 13.1174 10.358 13.0908C10.3548 13.0792 10.3548 13.0676 10.358 13.0576C10.3629 13.0427 10.3789 13.0427 10.3853 13.0328C10.3901 13.0178 10.3869 13.0012 10.3869 12.9863C10.3853 12.9747 10.3805 12.9664 10.3709 12.9581C10.3468 12.9382 10.35 12.9183 10.3741 12.9017C10.3773 12.9001 10.3805 12.8967 10.3837 12.8934C10.3885 12.8785 10.3869 12.8619 10.3853 12.847C10.3837 12.8354 10.3789 12.8271 10.3693 12.8204C10.3516 12.8088 10.35 12.7856 10.3645 12.7707C10.3709 12.764 10.3773 12.7607 10.3853 12.7557C10.3853 12.7441 10.3869 12.7325 10.3869 12.7226C10.3869 12.7126 10.3869 12.7027 10.3917 12.6927C10.3997 12.6844 10.4093 12.6861 10.4189 12.6861C10.4429 12.6861 10.4686 12.6861 10.4926 12.6861C10.5102 12.6861 10.5278 12.6877 10.5454 12.6794C10.5502 12.6778 10.5566 12.6778 10.5614 12.6778C10.5983 12.6794 10.6351 12.6828 10.672 12.6844C10.6816 12.6977 10.68 12.7076 10.68 12.7176C10.68 12.764 10.68 12.8121 10.68 12.8586C10.68 12.8802 10.6736 12.8967 10.6591 12.9117C10.6543 12.915 10.6511 12.92 10.6479 12.9233C10.6351 12.9365 10.6271 12.9531 10.6271 12.973C10.6271 13.046 10.6159 13.1174 10.6223 13.1903C10.6271 13.2451 10.6239 13.2982 10.6287 13.3512C10.6303 13.3745 10.6383 13.3927 10.6559 13.406C10.6752 13.4209 10.6816 13.4408 10.68 13.4657C10.6784 13.4972 10.68 13.5287 10.68 13.5602C10.8193 13.5602 10.9955 13.7543 11.0964 13.5519C11.0964 13.5204 11.0964 13.4906 11.0964 13.4591C11.0932 13.4408 11.098 13.4275 11.1108 13.4176ZM9.36666 5.62482V5.62814L9.36506 5.62648L9.36666 5.62482ZM9.39549 9.01031C9.40029 9.01197 9.40029 9.01694 9.39869 9.02026C9.39549 9.0269 9.39228 9.03187 9.38428 9.03187C9.37947 9.02524 9.37947 9.0186 9.38588 9.01363C9.38748 9.01197 9.39228 9.01031 9.39549 9.01031ZM9.38748 8.6487C9.39068 8.65036 9.39389 8.65368 9.39068 8.65866C9.38908 8.66031 9.38588 8.66032 9.38428 8.66197C9.38107 8.65866 9.37787 8.65534 9.38107 8.65202C9.38107 8.65036 9.38588 8.6487 9.38748 8.6487ZM9.33943 8.56908C9.34103 8.56908 9.34263 8.5724 9.34263 8.57406C9.34103 8.57904 9.33783 8.58069 9.33463 8.58069C9.32982 8.58069 9.32662 8.57738 9.32982 8.5724C9.33142 8.56909 9.33463 8.56743 9.33943 8.56908ZM9.32662 8.51932C9.32181 8.51932 9.32021 8.516 9.32021 8.51103C9.32181 8.50605 9.32502 8.50107 9.33142 8.50273C9.33623 8.50273 9.33943 8.50605 9.33783 8.51103C9.33623 8.516 9.33302 8.51932 9.32662 8.51932ZM9.34263 8.63211C9.34424 8.63211 9.34584 8.63377 9.34904 8.63543C9.34744 8.63709 9.34744 8.64041 9.34584 8.64207C9.34263 8.64373 9.33783 8.64207 9.33783 8.63709C9.33783 8.63544 9.34103 8.63211 9.34263 8.63211ZM9.34904 7.78616C9.34904 7.79445 9.34584 7.80109 9.33783 7.80109C9.32982 7.80109 9.32662 7.79445 9.32822 7.78616C9.32822 7.77786 9.33142 7.77289 9.33943 7.77289C9.34744 7.77123 9.34744 7.77952 9.34904 7.78616ZM9.32982 7.41626C9.33623 7.41626 9.34263 7.41958 9.34424 7.42787C9.34424 7.4345 9.33783 7.43616 9.33302 7.43616C9.32502 7.43616 9.31861 7.43285 9.31861 7.42621C9.32021 7.42124 9.32342 7.41792 9.32982 7.41626ZM9.31861 7.48427C9.32822 7.48261 9.32982 7.4909 9.32982 7.4992C9.32982 7.51578 9.32982 7.53237 9.32982 7.54896C9.32982 7.5672 9.32982 7.58545 9.32982 7.6037C9.32982 7.60701 9.32502 7.61199 9.32181 7.61199C9.31541 7.61365 9.3122 7.60867 9.3122 7.60204C9.3106 7.59043 9.3106 7.57882 9.3106 7.56886C9.3106 7.54564 9.3122 7.52076 9.3122 7.49754C9.3106 7.4909 9.3122 7.48427 9.31861 7.48427ZM9.32181 8.01507C9.32181 8.01838 9.32021 8.02004 9.31701 8.01672C9.31701 8.01672 9.31701 8.01506 9.31701 8.01341C9.31701 8.01341 9.31861 8.01175 9.32021 8.01175C9.32021 8.01341 9.32181 8.01341 9.32181 8.01507ZM9.31541 6.46912C9.3106 6.46912 9.3106 6.4658 9.3106 6.46082C9.3106 6.45916 9.31381 6.45751 9.31541 6.45585C9.31701 6.45751 9.31701 6.45917 9.31861 6.46248C9.31861 6.46414 9.31701 6.46912 9.31541 6.46912ZM9.31861 6.62172C9.31861 6.62504 9.31861 6.6267 9.31541 6.6267C9.31381 6.6267 9.31381 6.62504 9.3122 6.62504C9.3106 6.62172 9.3122 6.62006 9.31541 6.62006C9.31701 6.62006 9.31861 6.62172 9.31861 6.62172ZM9.31381 6.70466C9.31541 6.70632 9.31701 6.70798 9.31861 6.70963C9.31861 6.71461 9.31861 6.71793 9.31381 6.71793C9.3122 6.71793 9.3106 6.71461 9.3106 6.71129C9.3106 6.70964 9.3122 6.70632 9.31381 6.70466ZM9.31701 6.77432C9.31541 6.77598 9.31541 6.77764 9.31381 6.7793C9.3122 6.7793 9.3122 6.77764 9.3122 6.77764C9.31381 6.77598 9.31381 6.77433 9.31541 6.77267L9.31701 6.77432ZM9.31541 7.06792C9.3106 7.06626 9.3106 7.06295 9.3106 7.05797C9.3106 7.05631 9.31381 7.05299 9.31541 7.05299C9.32021 7.05465 9.32021 7.05797 9.32021 7.06129C9.31861 7.06461 9.31541 7.06792 9.31541 7.06792ZM9.3106 6.38618C9.3074 6.34969 9.3058 6.31817 9.309 6.28831C9.31861 6.285 9.32021 6.28997 9.32021 6.29661C9.32021 6.31983 9.32021 6.34471 9.32021 6.36793C9.32181 6.37291 9.32181 6.37789 9.3106 6.38618ZM9.34103 5.81391C9.33623 5.81391 9.33463 5.80894 9.33463 5.80562C9.33463 5.80396 9.33623 5.79899 9.33783 5.79899C9.34263 5.79899 9.34263 5.80396 9.34424 5.80728C9.34424 5.80894 9.34264 5.81391 9.34103 5.81391ZM9.32982 5.66463C9.34744 5.67458 9.34744 5.67624 9.33463 5.7061C9.32982 5.69117 9.32662 5.67956 9.32982 5.66463ZM9.3106 6.00301C9.32662 6.04946 9.31861 6.08761 9.32021 6.12576C9.32021 6.13239 9.32021 6.13903 9.3074 6.14732C9.3074 6.09756 9.3058 6.05609 9.3106 6.00301ZM9.31381 6.19045C9.32502 6.21367 9.32342 6.22694 9.3122 6.24685C9.3058 6.22694 9.3042 6.21201 9.31381 6.19045ZM9.29299 8.06814C9.29138 8.07478 9.28658 8.07644 9.28177 8.07644C9.27697 8.07644 9.27377 8.07312 9.27377 8.0698C9.27216 8.06317 9.28017 8.05819 9.28818 8.05985C9.28978 8.06151 9.29299 8.06317 9.29299 8.06814ZM9.30099 8.12952C9.29939 8.13781 9.29459 8.14113 9.28658 8.14113C9.28177 8.14113 9.27857 8.13781 9.28017 8.13283C9.28177 8.1262 9.28658 8.12288 9.29138 8.12288C9.29619 8.12288 9.29939 8.12454 9.30099 8.12952ZM9.26416 7.98852C9.26576 7.98355 9.27056 7.98023 9.27537 7.97857C9.27697 7.97857 9.27857 7.97857 9.27857 7.97857C9.28017 7.98023 9.28017 7.98355 9.28177 7.98521C9.28017 7.99018 9.27697 7.99516 9.27056 7.99682C9.26896 7.99682 9.26576 7.99682 9.26416 7.99516C9.26416 7.99516 9.26416 7.99184 9.26416 7.98852ZM9.28017 9.32215C9.27537 9.31552 9.26255 9.31552 9.26416 9.30225C9.26416 9.30059 9.26576 9.30059 9.26736 9.30059C9.28177 9.29893 9.28338 9.31054 9.28658 9.32049C9.28498 9.32381 9.28338 9.32547 9.28017 9.32215ZM9.29619 8.18592C9.30099 8.18426 9.3042 8.18591 9.3058 8.19255C9.3058 8.19753 9.30259 8.20084 9.29619 8.2025C9.29138 8.20416 9.28818 8.20084 9.28658 8.19753C9.28658 8.19089 9.29138 8.18757 9.29619 8.18592ZM9.309 8.25061C9.3122 8.25227 9.3122 8.25392 9.3106 8.25724C9.3074 8.26222 9.3042 8.26554 9.29779 8.26388C9.29459 8.26222 9.29138 8.26056 9.29299 8.25558C9.29619 8.24895 9.30259 8.24729 9.309 8.25061ZM9.3106 8.31032C9.31541 8.31032 9.31861 8.31198 9.31861 8.31696C9.32021 8.32525 9.31381 8.32857 9.3074 8.33023C9.30099 8.33023 9.29939 8.32691 9.29779 8.32359C9.29779 8.3153 9.3042 8.31198 9.3106 8.31032ZM9.31541 8.37501C9.32021 8.37501 9.32342 8.37667 9.32342 8.38165C9.32502 8.38828 9.32021 8.39326 9.3122 8.39492C9.3074 8.39492 9.3042 8.39326 9.30259 8.38994C9.30259 8.38165 9.309 8.37501 9.31541 8.37501ZM9.32181 8.4397C9.32662 8.4397 9.32982 8.44136 9.32982 8.448C9.32982 8.45463 9.32502 8.45795 9.31861 8.45795C9.31381 8.45795 9.3106 8.45463 9.3106 8.44966C9.3122 8.44302 9.31701 8.4397 9.32181 8.4397ZM9.31381 9.34372C9.33623 9.34372 9.33783 9.34372 9.33302 9.37191C9.32662 9.36362 9.31861 9.35533 9.3122 9.34703C9.3122 9.34703 9.3122 9.34538 9.31381 9.34372ZM9.33302 9.37357C9.33623 9.37357 9.33943 9.37191 9.34103 9.37191C9.33943 9.37191 9.33623 9.37191 9.33302 9.37357ZM9.34424 8.69847C9.34584 8.69681 9.34904 8.69681 9.35064 8.69681C9.35385 8.69681 9.35385 8.70012 9.35224 8.70344C9.35064 8.70676 9.34744 8.70842 9.34424 8.7051C9.34263 8.70344 9.34424 8.70013 9.34424 8.69847ZM9.35865 8.75652C9.36025 8.75652 9.36185 8.75984 9.36346 8.7615C9.36346 8.76648 9.36025 8.76813 9.35545 8.76813C9.35385 8.76813 9.35064 8.76482 9.35064 8.76316C9.35064 8.75984 9.35385 8.75652 9.35865 8.75652ZM9.35224 8.82785C9.35224 8.82121 9.36025 8.81789 9.36666 8.81955C9.36826 8.82121 9.36986 8.82453 9.37146 8.82619C9.36986 8.83283 9.36185 8.8378 9.35705 8.83448C9.35385 8.83282 9.35224 8.82951 9.35224 8.82785ZM9.36986 8.88259C9.37146 8.88259 9.37627 8.88425 9.37627 8.8859C9.37787 8.89254 9.37306 8.89586 9.36826 8.89751C9.36346 8.89751 9.36025 8.89586 9.36025 8.88922C9.35865 8.88424 9.36346 8.88259 9.36986 8.88259ZM9.36346 8.95557C9.36346 8.94728 9.36986 8.94396 9.37627 8.9423C9.38107 8.94064 9.38748 8.94728 9.38588 8.95225C9.38428 8.95889 9.37787 8.96221 9.37146 8.96221C9.36666 8.96221 9.36346 8.96055 9.36346 8.95557ZM9.4051 9.36694C9.39709 9.37523 9.38908 9.38021 9.37787 9.38187C9.37306 9.37357 9.37467 9.36528 9.37787 9.35699C9.38748 9.34869 9.39709 9.35201 9.4051 9.35864C9.4051 9.36196 9.4067 9.36694 9.4051 9.36694ZM9.4099 8.90249C9.4099 8.90083 9.4083 8.90083 9.4083 8.89917C9.4083 8.89751 9.4099 8.89752 9.4099 8.89586C9.4099 8.89752 9.4115 8.89751 9.4115 8.89917C9.4099 8.90083 9.4099 8.90083 9.4099 8.90249ZM10.1578 7.33332C10.1546 7.33332 10.1546 7.33166 10.1562 7.33C10.1562 7.33 10.1578 7.33 10.1594 7.33166C10.1578 7.33166 10.1578 7.33332 10.1578 7.33332ZM10.1979 1.61232C10.1963 1.61232 10.1947 1.61232 10.1931 1.61232C10.153 1.60403 10.1114 1.60071 10.0698 1.60237C10.065 1.60237 10.0617 1.60237 10.0569 1.60071C10.0489 1.59573 10.0393 1.59242 10.0377 1.58081C10.0361 1.57251 10.0457 1.56754 10.0585 1.56588C10.1034 1.56256 10.1482 1.55924 10.1931 1.55427C10.2059 1.55261 10.2171 1.56256 10.2187 1.57583C10.2267 1.59573 10.2155 1.61232 10.1979 1.61232ZM10.2507 12.1951C10.2443 12.1636 10.2475 12.1304 10.2507 12.0989C10.2507 12.1304 10.2507 12.1636 10.2507 12.1951ZM10.949 12.5832C10.949 12.6131 10.949 12.643 10.949 12.6728C10.949 12.6778 10.9474 12.6844 10.9458 12.6894C10.9458 12.6911 10.9426 12.6944 10.9394 12.6944C10.9378 12.6944 10.933 12.6927 10.933 12.6911C10.9314 12.6861 10.9298 12.6811 10.9298 12.6745C10.9282 12.6148 10.9282 12.555 10.9282 12.4953C10.9282 12.4903 10.9282 12.4837 10.9298 12.4787C10.9314 12.4754 10.9346 12.4721 10.9378 12.4721C10.941 12.4721 10.9458 12.4754 10.9474 12.4787C10.949 12.4854 10.949 12.492 10.949 12.5003C10.949 12.5285 10.949 12.5567 10.949 12.5849C10.9506 12.5832 10.949 12.5832 10.949 12.5832ZM10.9923 12.5252L10.9907 12.5219H10.9939L10.9923 12.5252ZM11.0083 11.2761C11.0067 11.2745 11.0067 11.2728 11.0083 11.2712C11.0083 11.2728 11.0099 11.2728 11.0099 11.2745C11.0099 11.2761 11.0083 11.2761 11.0083 11.2761ZM11.1012 10.8217C11.1204 10.8217 11.1396 10.8217 11.154 10.8449C11.1188 10.8581 11.0852 10.8581 11.0515 10.8548C11.0419 10.8532 11.0291 10.8565 11.0211 10.8416C11.0451 10.8233 11.0724 10.8217 11.1012 10.8217ZM11.0435 11.1385H11.0403L11.0419 11.1352L11.0435 11.1385ZM11.0403 11.248C11.0387 11.2463 11.0371 11.243 11.0371 11.2413C11.0371 11.238 11.0403 11.238 11.0435 11.2397C11.0451 11.2397 11.0451 11.243 11.0451 11.243C11.0435 11.2446 11.0419 11.2463 11.0403 11.248ZM11.0419 11.2131C11.0403 11.2131 11.0355 11.2115 11.0355 11.2098C11.0307 11.2015 11.0387 11.1982 11.0435 11.1932C11.0451 11.1916 11.0483 11.1916 11.0531 11.1882C11.0547 11.1916 11.0563 11.1932 11.0563 11.1949C11.0547 11.2048 11.0499 11.2115 11.0419 11.2131ZM11.0676 11.2761C11.0579 11.2413 11.0579 11.2413 11.066 11.2164C11.0708 11.2164 11.0772 11.2164 11.082 11.2181C11.0852 11.1998 11.0884 11.1816 11.1012 11.1683C11.1108 11.165 11.1204 11.1667 11.1316 11.17C11.138 11.1866 11.1428 11.2048 11.1508 11.2247C11.1444 11.2363 11.138 11.2496 11.13 11.2596C11.1124 11.2844 11.1028 11.2861 11.0676 11.2761Z" fill="white"/>
<path d="M11.0995 11.2363C11.0979 11.2396 11.0995 11.243 11.1027 11.243C11.1043 11.243 11.1059 11.2396 11.1075 11.238C11.1075 11.2347 11.1059 11.233 11.1027 11.2347C11.1011 11.2347 11.0995 11.2347 11.0995 11.2363Z" fill="white"/>
<path d="M14.8537 12.8403C14.8777 12.7458 14.9257 12.6612 14.9417 12.5617C14.961 12.4489 15.0042 12.3427 15.0378 12.2332C15.0747 12.1121 15.1083 11.9894 15.1468 11.8683C15.1788 11.7688 15.1964 11.6643 15.2493 11.5714C15.2557 11.5598 15.2573 11.5448 15.2605 11.5299C15.2717 11.4818 15.2797 11.4337 15.2925 11.3856C15.3149 11.3043 15.3405 11.2247 15.3646 11.1434C15.3678 11.1318 15.3742 11.1202 15.3774 11.1103C15.3854 11.1086 15.3902 11.1069 15.3934 11.1086C15.4575 11.1102 15.4719 11.0937 15.4655 11.0273C15.4607 10.9742 15.4895 10.9328 15.5119 10.8896C15.5151 10.883 15.5279 10.878 15.5343 10.8813C15.5407 10.883 15.5488 10.8946 15.5488 10.9029C15.5488 10.9195 15.544 10.9377 15.5391 10.9543C15.5199 11.0223 15.4991 11.0903 15.4799 11.16C15.4767 11.1683 15.4799 11.1866 15.4863 11.1882C15.5151 11.2031 15.5439 11.2164 15.576 11.1965C15.5744 11.1899 15.576 11.1832 15.5728 11.1799C15.5456 11.1534 15.552 11.1235 15.5632 11.092C15.5792 11.0406 15.5952 10.9892 15.6096 10.9377C15.616 10.9129 15.6288 10.8979 15.6513 10.8847C15.7041 10.8565 15.7105 10.8233 15.6769 10.7719C15.6641 10.752 15.6609 10.7354 15.6673 10.7138C15.6945 10.6359 15.7185 10.5579 15.7457 10.4799C15.7506 10.465 15.7602 10.4517 15.7698 10.4401C15.7858 10.4186 15.7906 10.3953 15.7842 10.3688C15.7794 10.3489 15.7778 10.3273 15.781 10.3074C15.7858 10.2709 15.7922 10.2344 15.8018 10.1996C15.8098 10.1714 15.8114 10.1465 15.7986 10.12C15.789 10.0984 15.7778 10.0785 15.7666 10.0553C15.7826 10.0072 15.7986 9.95577 15.8162 9.90435C15.8162 9.90435 15.8162 9.90269 15.8146 9.90269C15.8114 9.90269 15.8082 9.90269 15.805 9.90269C15.7586 9.90766 15.7313 9.88278 15.7105 9.84297C15.6897 9.80316 15.6865 9.76501 15.7089 9.7252C15.7297 9.68871 15.7409 9.68539 15.7794 9.70198C15.8114 9.71691 15.8434 9.73018 15.8787 9.74511C15.8851 9.73018 15.8915 9.71857 15.8947 9.70696C15.9203 9.62402 15.9476 9.54108 15.9716 9.45649C15.9796 9.42995 15.9796 9.40175 15.986 9.36692C16.0148 9.3354 16.0549 9.21265 16.0485 9.16123C16.0196 9.1745 15.9908 9.18611 15.962 9.19772C15.9604 9.19441 15.9588 9.19109 15.9572 9.18777C15.986 9.16952 16.0132 9.14796 16.0452 9.13469C16.0661 9.1264 16.0789 9.11313 16.0853 9.09156C16.0981 9.04844 16.1109 9.00697 16.1221 8.96384C16.1253 8.95223 16.1221 8.94062 16.1221 8.92403C16.0981 8.93067 16.0805 8.93564 16.0629 8.94062C16.0613 8.9373 16.0597 8.93398 16.0581 8.93067C16.0789 8.9174 16.0997 8.90744 16.1189 8.89251C16.1317 8.88256 16.1478 8.87095 16.1526 8.85768C16.167 8.81289 16.1766 8.76645 16.1894 8.72001C16.1942 8.7001 16.2006 8.6802 16.2054 8.66029C16.223 8.58399 16.2422 8.50934 16.2583 8.43304C16.2663 8.39489 16.2583 8.38162 16.2246 8.36338C16.2022 8.35176 16.1798 8.34181 16.159 8.32854C16.151 8.32357 16.1413 8.3103 16.1429 8.30532C16.1478 8.28873 16.1622 8.29371 16.1734 8.29868C16.1958 8.3103 16.2166 8.32191 16.239 8.33352C16.2535 8.34181 16.2711 8.34679 16.2791 8.32688C16.2903 8.29703 16.3015 8.26717 16.3063 8.23565C16.3079 8.22404 16.2967 8.20248 16.2871 8.19584C16.2487 8.17594 16.2519 8.14608 16.2599 8.11125C16.2839 8.02499 16.3047 7.93874 16.3303 7.85414C16.4024 7.60865 16.4777 7.36481 16.5514 7.11932C16.5658 7.07287 16.5626 7.0679 16.5289 7.03638C16.4793 6.9916 16.428 6.94847 16.38 6.90202C16.3399 6.86553 16.3159 6.81909 16.3143 6.76435C16.3127 6.69136 16.3159 6.61838 16.3159 6.5454C16.3159 6.53047 16.3191 6.51222 16.3143 6.49895C16.3015 6.46909 16.3095 6.44255 16.3175 6.41601C16.3592 6.28 16.4008 6.14232 16.4424 6.0063C16.4825 5.87029 16.5225 5.73593 16.5626 5.59991C16.5706 5.57171 16.5802 5.54517 16.5882 5.51863C16.5946 5.49707 16.6058 5.48712 16.6298 5.49044C16.6491 5.49209 16.6699 5.49044 16.6891 5.48712C16.7964 5.4639 16.9021 5.44067 17.0078 5.41413C17.0559 5.40252 17.1007 5.40418 17.1455 5.43072C17.1728 5.44731 17.2064 5.45229 17.2368 5.46224C17.2673 5.47053 17.2945 5.45892 17.3121 5.43736C17.3361 5.4075 17.3538 5.37266 17.3714 5.33617C17.381 5.31461 17.3842 5.28973 17.3922 5.26816C17.4146 5.20347 17.3938 5.14873 17.3217 5.13215C17.2625 5.11888 17.2032 5.09897 17.1439 5.08238C17.0623 5.05916 16.9806 5.03594 16.9005 5.01272C16.8637 5.00111 16.8268 4.9895 16.7916 4.97623C16.7628 4.96461 16.7596 4.9613 16.7676 4.92978C16.7756 4.89992 16.782 4.87172 16.7932 4.84353C16.8076 4.80537 16.8108 4.76888 16.7964 4.73239C16.774 4.67268 16.75 4.61462 16.7227 4.55822C16.7179 4.54661 16.7035 4.53666 16.6907 4.535C16.6523 4.52836 16.6186 4.55159 16.6074 4.5914C16.585 4.66272 16.5642 4.73405 16.5417 4.80537C16.5161 4.88499 16.5241 4.88831 16.4376 4.88665C16.4344 4.88665 16.4312 4.88665 16.428 4.88665C16.4072 4.88665 16.3944 4.89661 16.3864 4.91651C16.3752 4.93807 16.3592 4.95798 16.3496 4.9812C16.3351 5.01272 16.3175 5.04257 16.2919 5.06414C16.2887 5.06746 16.2871 5.07243 16.2855 5.07741C16.2759 5.11058 16.2647 5.14376 16.2567 5.17859C16.2535 5.18854 16.2551 5.20181 16.2583 5.21011C16.2711 5.23499 16.2631 5.25655 16.2567 5.27978C16.2214 5.39423 16.1878 5.50702 16.1526 5.62148C16.0837 5.85038 16.0148 6.08095 15.9459 6.30985C15.9411 6.32312 15.9363 6.33639 15.9315 6.34801C15.8803 6.35464 15.8787 6.35464 15.8691 6.38118C15.8531 6.42762 15.8402 6.47573 15.8274 6.52217C15.8242 6.53213 15.829 6.55203 15.8354 6.55535C15.8691 6.57028 15.8611 6.59184 15.8531 6.61838C15.805 6.77762 15.757 6.93686 15.7089 7.09775C15.6721 7.21718 15.6384 7.33827 15.6016 7.4577C15.5632 7.58543 15.5231 7.71315 15.4847 7.84087C15.4767 7.86575 15.4671 7.88732 15.4382 7.89395C15.4094 7.90059 15.395 7.92215 15.3886 7.95035C15.3854 7.96528 15.379 7.98021 15.3774 7.9968C15.371 8.03329 15.3646 8.06978 15.3277 8.08802C15.3229 8.08968 15.3197 8.09798 15.3165 8.10295C15.2989 8.13779 15.2797 8.17262 15.2637 8.20911C15.2284 8.28542 15.1948 8.36006 15.1676 8.44134C15.1323 8.55081 15.0875 8.65863 15.0475 8.76645C15.0058 8.87427 14.9658 8.98209 14.9241 9.08991C14.8793 9.20602 14.8328 9.32213 14.788 9.4399C14.7656 9.4963 14.748 9.55435 14.7191 9.60577C14.6743 9.68871 14.6246 9.76999 14.5718 9.84795C14.5013 9.95245 14.4629 10.0686 14.4469 10.193C14.4388 10.261 14.4421 10.329 14.4405 10.3987C14.4405 10.4169 14.4453 10.4285 14.4597 10.4401C14.4901 10.465 14.4901 10.4667 14.4773 10.5032C14.4485 10.5927 14.418 10.6806 14.3876 10.7686C14.3684 10.8233 14.346 10.878 14.3267 10.9328C14.3043 10.9941 14.2819 11.0539 14.2595 11.1152C14.2338 11.1866 14.2098 11.2595 14.1842 11.3309C14.1826 11.3358 14.1794 11.3392 14.1746 11.3441C14.157 11.3358 14.141 11.3309 14.1265 11.3226C14.0417 11.2745 13.96 11.223 13.8783 11.1683C13.7566 11.0854 13.6413 10.9958 13.5372 10.893C13.4138 10.7735 13.2985 10.6458 13.196 10.5065C13.1127 10.392 13.0326 10.2742 12.967 10.1498C12.8789 9.98563 12.802 9.81478 12.7508 9.63397C12.7428 9.60412 12.7364 9.5726 12.7348 9.54108C12.7315 9.488 12.7187 9.47473 12.6691 9.488C12.5762 9.51288 12.4849 9.53777 12.3936 9.56596C12.2142 9.61904 12.0333 9.67378 11.8539 9.72852C11.8234 9.73847 11.793 9.75009 11.7626 9.7617C11.737 9.77165 11.7322 9.78326 11.7434 9.8098C11.7466 9.81809 11.7514 9.82804 11.7594 9.83302C11.7914 9.85458 11.801 9.89108 11.8154 9.92425C11.8331 9.96738 11.8475 10.0105 11.8635 10.0536C11.9163 10.1913 11.9692 10.329 12.0365 10.46C12.0829 10.5496 12.1229 10.6441 12.1742 10.7287C12.2527 10.8565 12.3376 10.9792 12.4224 11.102C12.4753 11.1783 12.5313 11.2512 12.5922 11.3209C12.6627 11.4022 12.7364 11.4818 12.8116 11.5581C12.8885 11.6361 12.967 11.7124 13.0503 11.782C13.1352 11.8534 13.2248 11.9164 13.3145 11.9828C13.3738 12.0275 13.4314 12.0756 13.5003 12.1072C13.5067 12.1105 13.5115 12.1188 13.5163 12.1254C13.4715 12.1271 13.4282 12.1204 13.3866 12.1138C13.3161 12.1022 13.2441 12.0889 13.1736 12.0756C13.1576 12.0723 13.14 12.074 13.1352 12.0922C13.1287 12.1138 13.148 12.1188 13.1624 12.1237C13.1688 12.1271 13.1768 12.1271 13.1848 12.1287C13.2328 12.1387 13.2809 12.147 13.3305 12.1569C13.3674 12.1636 13.3722 12.1685 13.3658 12.2067C13.3578 12.2498 13.3466 12.2946 13.3418 12.3377C13.3337 12.3941 13.3257 12.3991 13.385 12.409C13.3866 12.409 13.3882 12.414 13.393 12.419C13.3818 12.424 13.3706 12.429 13.3594 12.4323C13.3193 12.4422 13.2921 12.4688 13.2713 12.5036C13.2601 12.5235 13.2489 12.5451 13.2409 12.5683C13.1864 12.7192 13.1319 12.8702 13.0807 13.0211C13.0679 13.0609 13.0631 13.0991 13.0679 13.1356C13.0823 13.1405 13.0983 13.1455 13.1127 13.1505C13.0983 13.109 13.0967 13.0609 13.1143 13.0161C13.1704 12.8635 13.2232 12.7093 13.2793 12.5567C13.2953 12.5152 13.3177 12.4737 13.369 12.4737C13.385 12.4737 13.4026 12.4771 13.4186 12.4837C13.5035 12.5169 13.5884 12.55 13.6733 12.5832C13.7085 12.5965 13.7085 12.5965 13.7438 12.5733C13.7325 12.6098 13.7229 12.6413 13.7117 12.6728C13.6653 12.8005 13.6188 12.9282 13.5724 13.056C13.5644 13.0775 13.5596 13.0991 13.5516 13.119C13.5307 13.1754 13.5115 13.1887 13.4539 13.182C13.3658 13.1721 13.3001 13.1256 13.2521 13.0493C13.2441 13.0377 13.2425 13.0178 13.2184 13.0178C13.2184 13.0278 13.2152 13.0361 13.2184 13.0443C13.2457 13.1157 13.2825 13.182 13.3466 13.2251C13.4907 13.668 14.1249 13.4341 14.5061 13.5038C14.559 13.5138 14.6102 13.5221 14.6615 13.532C14.6727 13.4839 14.6871 13.4375 14.6999 13.391C14.748 13.2036 14.8056 13.0244 14.8537 12.8403ZM16.7195 5.34612C16.7371 5.28309 16.7564 5.22172 16.7756 5.16035C16.7804 5.14708 16.7852 5.13546 16.7932 5.11556C16.8268 5.12717 16.8589 5.13712 16.8893 5.15039C16.9101 5.15869 16.9181 5.17859 16.9117 5.20181C16.9005 5.24328 16.8893 5.28475 16.8749 5.32456C16.8701 5.33783 16.8605 5.35276 16.8509 5.35608C16.814 5.36935 16.774 5.37764 16.7355 5.38428C16.7179 5.38759 16.7115 5.37266 16.7195 5.34612ZM15.6465 8.92237C15.6432 8.92237 15.64 8.92071 15.6368 8.92071C15.6368 8.8809 15.6593 8.84607 15.6689 8.80792C15.6769 8.76977 15.6913 8.73162 15.7041 8.69347C15.7153 8.65532 15.7265 8.6155 15.7393 8.57569C15.7425 8.57735 15.7474 8.57901 15.7506 8.58067C15.7153 8.69512 15.6817 8.80792 15.6465 8.92237ZM15.9171 9.42165C15.9171 9.41999 15.9155 9.41668 15.9155 9.41502C15.9171 9.41336 15.9203 9.4117 15.9219 9.4117C15.9235 9.4117 15.9251 9.41502 15.9267 9.41834C15.9235 9.41834 15.9203 9.41999 15.9171 9.42165ZM16.151 8.35674C16.1622 8.36006 16.1718 8.36338 16.183 8.36835C16.1814 8.37167 16.1814 8.37499 16.1798 8.3783C16.1686 8.37499 16.159 8.37167 16.1478 8.36669C16.1478 8.36338 16.1494 8.36006 16.151 8.35674ZM16.1814 8.6802C16.1574 8.71005 16.1317 8.71835 16.0949 8.72996C16.1205 8.69678 16.1429 8.68351 16.1814 8.6802ZM16.2054 7.17406C16.1894 7.23709 16.1702 7.29846 16.151 7.3615C16.1157 7.47927 16.0805 7.5987 16.0436 7.71647C16.0148 7.80936 15.9828 7.90225 15.9508 7.99513C15.9476 8.00509 15.9427 8.01338 15.9379 8.02333C15.9347 8.02167 15.9315 8.02168 15.9283 8.02002C15.9347 7.99845 15.9395 7.97689 15.9459 7.95367C15.9588 7.90556 15.9572 7.90224 15.9155 7.88068C15.8867 7.86575 15.8851 7.86244 15.8947 7.82926C15.9347 7.69159 15.9764 7.55557 16.018 7.41955C16.0452 7.32998 16.0725 7.24041 16.0981 7.15084C16.0997 7.14752 16.0997 7.1442 16.1013 7.14254C16.1157 7.09278 16.1237 7.08946 16.1654 7.10107C16.2054 7.11103 16.2166 7.12927 16.2054 7.17406ZM16.0164 6.34801C16.0629 6.1954 16.1093 6.04114 16.1542 5.88853C16.2118 5.69778 16.2695 5.50536 16.3271 5.31461C16.3335 5.2947 16.3335 5.2665 16.3624 5.25821C16.3736 5.27812 16.3624 5.2947 16.3576 5.30963C16.348 5.34115 16.3335 5.37101 16.3528 5.40584C16.3576 5.41413 16.3528 5.43072 16.3496 5.44233C16.3127 5.56674 16.2759 5.69114 16.239 5.81555C16.1878 5.98474 16.1365 6.15559 16.0837 6.32478C16.0805 6.33474 16.0773 6.34635 16.0741 6.3563C16.0597 6.39113 16.0533 6.39445 16.0116 6.37786C16.0132 6.36791 16.0132 6.35796 16.0164 6.34801ZM15.5616 7.8558C15.6432 7.58543 15.7249 7.31505 15.8066 7.04468C15.845 6.91529 15.8835 6.78591 15.9219 6.65653C15.9267 6.63994 15.9347 6.62336 15.9427 6.60345C15.9652 6.62501 15.9556 6.6416 15.9508 6.65653C15.9299 6.7262 15.9075 6.79586 15.8867 6.86553C15.8787 6.89207 15.8723 6.91695 15.8643 6.94349C15.8579 6.9634 15.8563 6.98164 15.8643 7.00321C15.8691 7.01648 15.8675 7.03472 15.8627 7.04799C15.8162 7.20392 15.7698 7.35818 15.7233 7.51244C15.7009 7.58874 15.6785 7.66505 15.6545 7.73969C15.6497 7.75296 15.6465 7.77286 15.6368 7.77618C15.6016 7.79277 15.5984 7.8276 15.5872 7.85746C15.5824 7.87239 15.5744 7.88732 15.5664 7.90225C15.5616 7.90059 15.5552 7.89893 15.5504 7.89561C15.5552 7.88566 15.5568 7.87073 15.5616 7.8558ZM15.4959 9.3835C15.4991 9.38516 15.5039 9.38516 15.5071 9.38682C15.4735 9.49795 15.4398 9.61075 15.4062 9.72189C15.403 9.72023 15.3982 9.71857 15.395 9.71691C15.427 9.60743 15.4607 9.4963 15.4959 9.3835ZM15.0971 10.9709C15.1211 11.0091 15.1179 11.0157 15.0747 11.0306C15.0827 11.0074 15.0891 10.9908 15.0971 10.9709Z" fill="white"/>
<path d="M12.2174 14.645C12.2303 14.5604 12.2431 14.4758 12.2575 14.3896C12.2671 14.3564 12.2687 14.3232 12.2623 14.29C12.2607 14.2569 12.2511 14.2253 12.2335 14.1971C12.2206 14.1806 12.2078 14.164 12.1966 14.1474C12.1742 14.1225 12.1486 14.1059 12.1197 14.096C12.1005 14.0844 12.0813 14.0794 12.0589 14.0794C12.0268 14.0727 11.9948 14.0727 11.9628 14.0843C11.9436 14.0926 11.9243 14.1009 11.9051 14.1092C11.8683 14.1308 11.8411 14.1607 11.8186 14.1988C11.7994 14.237 11.7818 14.2784 11.7754 14.3216C11.7706 14.3514 11.7642 14.3862 11.7658 14.4178C11.7674 14.4509 11.7722 14.4825 11.7786 14.514C11.7866 14.5471 11.801 14.5753 11.8218 14.5986C11.8395 14.6251 11.8619 14.6467 11.8891 14.6633C11.9083 14.6715 11.9275 14.6798 11.9468 14.6881C11.9788 14.6981 12.0108 14.6997 12.0429 14.6931C12.0653 14.6931 12.0845 14.6881 12.1037 14.6765C12.1342 14.6666 12.1598 14.65 12.1806 14.6251C12.1934 14.6085 12.2062 14.5919 12.2174 14.5753C12.2399 14.5372 12.2495 14.4941 12.2495 14.4493C12.2495 14.446 12.2495 14.4426 12.2511 14.441C12.2479 14.4625 12.2447 14.4858 12.2431 14.5073C12.2463 14.4874 12.2511 14.4692 12.2575 14.4509C12.2495 14.4708 12.2415 14.4907 12.2335 14.5106C12.2351 14.5057 12.2383 14.499 12.2415 14.4941C12.0957 14.4742 11.9484 14.4543 11.8026 14.4343C11.8074 14.4659 11.8122 14.499 11.817 14.5306C11.825 14.5637 11.8395 14.5919 11.8603 14.6152C11.8779 14.6417 11.9003 14.6633 11.9275 14.6798C11.9548 14.6981 11.9852 14.708 12.0172 14.7097C12.0493 14.7163 12.0813 14.7163 12.1133 14.7047C12.1326 14.6964 12.1518 14.6881 12.171 14.6798C12.2078 14.6583 12.2351 14.6284 12.2575 14.5903C12.2655 14.5704 12.2735 14.5505 12.2815 14.5306C12.2927 14.4858 12.2927 14.4426 12.2815 14.3979C12.2767 14.3663 12.2719 14.3332 12.2671 14.3016C12.2591 14.2817 12.2511 14.2618 12.2431 14.2419C12.2302 14.2253 12.2174 14.2088 12.2062 14.1922C12.1902 14.1789 12.1742 14.1656 12.1582 14.154C12.131 14.1358 12.1005 14.1258 12.0685 14.1242C12.0477 14.1175 12.0252 14.1175 12.0044 14.1242C11.982 14.1242 11.9628 14.1291 11.9436 14.1408C11.9227 14.1474 11.9051 14.1573 11.8907 14.1723C11.8651 14.1905 11.8443 14.2137 11.8282 14.2419C11.817 14.2668 11.8058 14.2917 11.7962 14.3182C11.793 14.3265 11.7898 14.3332 11.7882 14.3415C11.7786 14.3763 11.7754 14.4144 11.7722 14.4493C11.9292 14.4277 12.0861 14.4045 12.2447 14.3829C12.2431 14.378 12.2431 14.3746 12.2431 14.3697C12.2463 14.3912 12.2495 14.4144 12.2511 14.436C12.2495 14.4194 12.2495 14.4045 12.2511 14.3879C12.2479 14.4095 12.2447 14.4327 12.2431 14.4543C12.2447 14.4377 12.2495 14.4227 12.2543 14.4078C12.2463 14.4277 12.2383 14.4476 12.2302 14.4675C12.2319 14.4625 12.2351 14.4576 12.2383 14.4509C12.0925 14.3862 11.9452 14.3232 11.7994 14.2585C11.7866 14.3431 11.7738 14.4277 11.7594 14.514C11.7498 14.5471 11.7482 14.5803 11.7546 14.6135C11.7562 14.6467 11.7658 14.6782 11.7834 14.7064C11.7978 14.7346 11.8186 14.7595 11.8459 14.776C11.8683 14.7976 11.8955 14.8125 11.9275 14.8208C11.9484 14.8242 11.9708 14.8275 11.9916 14.8291C12.0349 14.8291 12.0749 14.8175 12.1133 14.796C12.1293 14.7827 12.1454 14.7694 12.1614 14.7578C12.1854 14.723 12.2062 14.6865 12.2174 14.645Z" fill="#1797E5"/>
<path d="M12.1725 14.6135C12.4816 14.6135 12.4816 14.1159 12.1725 14.1159C11.8634 14.1159 11.8634 14.6135 12.1725 14.6135Z" fill="#1797E5"/>
<path d="M12.4975 14.6699C12.5567 14.6019 12.6144 14.5355 12.6737 14.4675C12.6977 14.4443 12.7137 14.4178 12.7233 14.3879C12.7377 14.3581 12.7457 14.3265 12.7441 14.2917C12.7457 14.2569 12.7377 14.2254 12.7233 14.1955C12.7137 14.164 12.6977 14.1374 12.6737 14.1159C12.6576 14.1026 12.6416 14.0893 12.6256 14.0777C12.5888 14.0545 12.5471 14.0446 12.5039 14.0446C12.4831 14.0479 12.4607 14.0512 12.4398 14.0528C12.3998 14.0645 12.3646 14.086 12.3341 14.1175C12.2749 14.1855 12.2172 14.2519 12.158 14.3199C12.1339 14.3431 12.1179 14.3697 12.1083 14.3995C12.0939 14.4294 12.0859 14.4609 12.0875 14.4957C12.0859 14.5306 12.0939 14.5621 12.1083 14.5919C12.1179 14.6235 12.1339 14.65 12.158 14.6716C12.174 14.6848 12.19 14.6981 12.206 14.7097C12.2428 14.7329 12.2845 14.7429 12.3277 14.7429C12.3485 14.7396 12.371 14.7363 12.3918 14.7346C12.4318 14.7213 12.4671 14.6998 12.4975 14.6699Z" fill="#1797E5"/>
<path d="M12.0189 17.591C12.2511 17.591 12.2511 17.2178 12.0189 17.2178C11.7867 17.2178 11.7867 17.591 12.0189 17.591Z" fill="#1797E5"/>
<path d="M12.0558 17.357C11.7707 17.3172 12.0125 16.939 12.1054 16.8279C12.2864 16.6156 12.4818 16.4049 12.4994 16.1063C12.5186 15.7895 12.3232 15.6038 12.1342 15.3898C11.9741 15.2057 11.7995 14.8888 11.9981 14.6649C12.1535 14.4874 11.9004 14.2237 11.7435 14.4012C11.5144 14.6616 11.508 15.0232 11.6554 15.3284C11.7306 15.4843 11.846 15.6203 11.9645 15.7431C12.0862 15.8691 12.1855 16.0035 12.1182 16.1893C12.0638 16.3435 11.9356 16.4597 11.8347 16.5807C11.7258 16.7101 11.6249 16.8528 11.5817 17.022C11.5096 17.304 11.6554 17.6722 11.9597 17.7153C12.0574 17.7286 12.1519 17.6904 12.1807 17.5843C12.2063 17.4997 12.1535 17.3703 12.0558 17.357Z" fill="#1797E5"/>
<path d="M12.0621 15.3948C12.1518 15.559 12.2559 15.7199 12.3296 15.8941C12.3936 16.045 12.4145 16.1827 12.3136 16.3204C12.2191 16.4497 12.1085 16.5559 12.0653 16.7185C12.0413 16.8064 12.0397 16.8993 12.0381 16.9888C12.0365 17.0585 12.0445 17.1365 12.0141 17.2011C12.0653 17.1696 12.1182 17.1398 12.1694 17.1083C12.1742 17.1083 12.179 17.1099 12.1822 17.1099C12.2094 17.1265 12.2351 17.1414 12.2623 17.158C12.2575 17.153 12.2543 17.1481 12.2495 17.1448C12.0941 16.9656 11.8395 17.231 11.9948 17.4085C12.0813 17.508 12.2527 17.5113 12.3248 17.3902C12.3856 17.2874 12.3952 17.1547 12.3968 17.0369C12.3984 16.9474 12.3904 16.8512 12.4305 16.7682C12.4737 16.6803 12.549 16.609 12.6066 16.531C12.9286 16.0914 12.5922 15.6054 12.3728 15.2073C12.2575 14.9983 11.9468 15.1858 12.0621 15.3948Z" fill="#1797E5"/>
<path d="M11.6438 17.3521C11.6646 17.5262 11.7399 17.6506 11.8728 17.7568C11.8856 17.7667 11.8984 17.7767 11.9112 17.7866C11.9144 17.7883 11.9401 17.8099 11.9305 17.8016C11.9176 17.7916 11.9513 17.8198 11.9529 17.8231C11.9641 17.8331 11.9753 17.843 11.9849 17.8547C12.0041 17.8746 12.0218 17.8945 12.0394 17.9144C12.0426 17.9177 12.0698 17.9525 12.0586 17.9376C12.049 17.9243 12.0762 17.9641 12.0762 17.9625C12.1066 18.0073 12.1307 18.0554 12.1547 18.1051C12.1787 18.1565 12.1499 18.0885 12.1611 18.1201C12.1659 18.135 12.1723 18.1483 12.1771 18.1632C12.1851 18.1897 12.1931 18.2163 12.1995 18.2428C12.2075 18.2727 12.2123 18.3025 12.2171 18.3324C12.222 18.3655 12.2139 18.2892 12.2187 18.3456C12.2203 18.3573 12.2203 18.3705 12.222 18.3821C12.2252 18.4435 12.2236 18.5032 12.2155 18.5646C12.2043 18.6625 12.3068 18.7554 12.3965 18.752C12.5038 18.7471 12.5647 18.6691 12.5775 18.5646C12.6079 18.3158 12.5487 18.0537 12.427 17.8364C12.3677 17.7319 12.2924 17.6324 12.2027 17.5528C12.1579 17.5113 12.089 17.4649 12.0634 17.44C12.0378 17.4134 12.0282 17.4035 12.0201 17.3886C12.0169 17.3819 12.0089 17.362 12.0153 17.3803C12.0153 17.3786 12.0025 17.3222 12.0057 17.3537C11.9945 17.2575 11.9305 17.163 11.8248 17.1663C11.7351 17.1696 11.631 17.2476 11.6438 17.3521Z" fill="#1797E5"/>
<path d="M12.5457 14.2453C12.5954 14.4692 12.4528 14.6185 12.3968 14.8209C12.3359 15.0398 12.3936 15.2538 12.5345 15.423C12.6466 15.5573 12.8084 15.6552 12.8676 15.8294C12.9317 16.0185 12.7891 16.1462 12.6626 16.2607C12.4864 16.4182 12.7427 16.682 12.9173 16.5244C13.0806 16.3768 13.2264 16.2043 13.244 15.9704C13.2616 15.7299 13.1319 15.5092 12.9733 15.345C12.8388 15.2073 12.6722 15.0962 12.7571 14.8773C12.8004 14.7661 12.866 14.6683 12.8948 14.5521C12.9269 14.4178 12.9221 14.2818 12.8932 14.1474C12.842 13.9119 12.4945 14.0097 12.5457 14.2453Z" fill="#1797E5"/>
<path d="M12.3198 18.5132C12.3215 18.5182 12.3231 18.5232 12.3247 18.5298C12.3295 18.5547 12.3407 18.5746 12.3567 18.5928C12.3695 18.6127 12.3855 18.6293 12.4079 18.6409C12.4288 18.6542 12.4512 18.6625 12.4752 18.6625C12.4992 18.6675 12.5232 18.6675 12.5473 18.6592C12.5617 18.6525 12.5761 18.6459 12.5905 18.6409C12.6177 18.6243 12.6386 18.6028 12.6546 18.5746C12.661 18.5597 12.6674 18.5447 12.6722 18.5298C12.6802 18.4966 12.6802 18.4634 12.6722 18.4303C12.6706 18.4253 12.669 18.4203 12.6674 18.4137C12.6626 18.3888 12.6514 18.3689 12.6354 18.3506C12.6225 18.3307 12.6065 18.3142 12.5841 18.3025C12.5633 18.2893 12.5409 18.281 12.5168 18.281C12.4928 18.276 12.4688 18.276 12.4448 18.2843C12.4304 18.2909 12.4159 18.2976 12.4015 18.3025C12.3743 18.3191 12.3535 18.3407 12.3375 18.3689C12.3311 18.3838 12.3247 18.3988 12.3198 18.4137C12.3118 18.4469 12.3118 18.48 12.3198 18.5132Z" fill="#1797E5"/>
<path d="M12.5166 18.2976C12.4382 18.2495 12.3533 18.2661 12.2748 18.2992C12.2075 18.3274 12.1467 18.3573 12.0954 18.4104C12.0346 18.4718 12.0009 18.5497 11.9929 18.636C11.9865 18.7123 12.0105 18.7869 12.0442 18.8533C12.1098 18.981 12.2348 19.0822 12.3805 19.0672C12.451 19.059 12.5199 19.0407 12.5775 18.9959C12.6416 18.9462 12.6976 18.8815 12.712 18.7969C12.7265 18.7123 12.712 18.6327 12.6912 18.5514C12.6752 18.4883 12.6592 18.4253 12.6432 18.3639C12.5551 18.4336 12.467 18.5049 12.3789 18.5746C12.3805 18.5763 12.3821 18.5779 12.3853 18.5796C12.3725 18.5696 12.3613 18.5597 12.3485 18.5497C12.3533 18.5547 12.3581 18.5597 12.3629 18.5663C12.3533 18.553 12.3437 18.5414 12.3341 18.5282C12.3421 18.5398 12.3501 18.553 12.3549 18.5663C12.3485 18.5514 12.3421 18.5364 12.3373 18.5215C12.3533 18.5646 12.3645 18.6094 12.3709 18.6542C12.3693 18.6376 12.3661 18.621 12.3645 18.6045C12.3693 18.6509 12.3693 18.6973 12.3645 18.7454C12.3661 18.7289 12.3693 18.7123 12.3709 18.6957C12.3677 18.7239 12.3613 18.7537 12.3517 18.7803C12.3581 18.7654 12.3645 18.7504 12.3693 18.7355C12.3645 18.7471 12.3581 18.7571 12.3517 18.767C12.3613 18.7537 12.3709 18.7421 12.3805 18.7289C12.3757 18.7338 12.3709 18.7388 12.3661 18.7438C12.3789 18.7338 12.3901 18.7239 12.4029 18.7139C12.3949 18.7206 12.3853 18.7255 12.3757 18.7289C12.3901 18.7222 12.4045 18.7156 12.419 18.7106C12.3933 18.7206 12.3661 18.7239 12.3405 18.7289C12.3565 18.7272 12.3725 18.7239 12.3885 18.7222C12.3629 18.7255 12.3373 18.7272 12.3116 18.7239C12.3277 18.7255 12.3437 18.7289 12.3597 18.7305C12.3485 18.7289 12.3389 18.7255 12.3277 18.7222C12.3421 18.7289 12.3565 18.7355 12.3709 18.7405C12.3565 18.7338 12.3437 18.7255 12.3309 18.7173C12.3437 18.7272 12.3549 18.7372 12.3677 18.7471C12.3373 18.7222 12.31 18.6924 12.286 18.6609C12.2956 18.6741 12.3052 18.6857 12.3148 18.699C12.3068 18.6874 12.3004 18.6774 12.2956 18.6642C12.302 18.6791 12.3084 18.694 12.3132 18.709C12.31 18.699 12.3068 18.6891 12.3052 18.6791C12.3068 18.6957 12.31 18.7123 12.3116 18.7289C12.31 18.7156 12.31 18.7023 12.3116 18.6891C12.31 18.7056 12.3068 18.7222 12.3052 18.7388C12.3068 18.7222 12.3116 18.7073 12.3164 18.6924C12.31 18.7073 12.3036 18.7222 12.2988 18.7372C12.3068 18.7206 12.3148 18.7056 12.3261 18.6907C12.3164 18.704 12.3068 18.7156 12.2972 18.7289C12.3116 18.7106 12.3277 18.694 12.3453 18.6791C12.3325 18.6891 12.3213 18.699 12.3084 18.709C12.31 18.7073 12.3132 18.7056 12.3148 18.704C12.3533 18.6741 12.3837 18.6426 12.3981 18.5928C12.4093 18.5481 12.4045 18.4883 12.3805 18.4485C12.3565 18.4087 12.3181 18.3739 12.2732 18.3623C12.2284 18.3523 12.1723 18.3523 12.1339 18.3805C12.0794 18.422 12.0314 18.4651 11.9977 18.5282C11.9593 18.5978 11.9449 18.6741 11.9561 18.7537C11.9657 18.8334 12.0025 18.8947 12.0554 18.9528C12.0922 18.9943 12.1339 19.0374 12.1835 19.0606C12.2492 19.0938 12.318 19.1054 12.3901 19.0954C12.459 19.0855 12.5279 19.0789 12.5871 19.0374C12.704 18.9545 12.7361 18.8002 12.7329 18.6625C12.7313 18.5962 12.7217 18.5282 12.704 18.4651C12.6928 18.4286 12.68 18.3938 12.664 18.3606C12.64 18.3142 12.6063 18.2827 12.5663 18.2511C12.5519 18.2445 12.5375 18.2379 12.5231 18.2329C12.507 18.2312 12.491 18.2279 12.475 18.2263C12.435 18.2263 12.3965 18.2412 12.3661 18.2661C12.3084 18.3125 12.2828 18.3888 12.302 18.4618C12.3148 18.5099 12.3261 18.5597 12.3389 18.6078C12.3501 18.6542 12.3645 18.699 12.3709 18.7454C12.3693 18.7289 12.3661 18.7123 12.3645 18.6957C12.3661 18.7123 12.3661 18.7289 12.3645 18.7471C12.3661 18.7305 12.3693 18.7139 12.3709 18.6973C12.3693 18.709 12.3661 18.7189 12.3629 18.7289C12.3693 18.7139 12.3757 18.699 12.3805 18.6841C12.3757 18.6924 12.3725 18.7007 12.3661 18.709C12.3757 18.6957 12.3853 18.6841 12.3949 18.6708C12.3869 18.6824 12.3757 18.6924 12.3661 18.7023C12.3789 18.6924 12.3901 18.6824 12.4029 18.6725C12.3869 18.6841 12.3709 18.694 12.3533 18.7023C12.3677 18.6957 12.3821 18.6891 12.3965 18.6841C12.3789 18.6907 12.3613 18.6957 12.3437 18.699C12.3597 18.6973 12.3757 18.694 12.3917 18.6924C12.3757 18.694 12.3613 18.694 12.3453 18.694C12.3613 18.6957 12.3773 18.699 12.3933 18.7007C12.3805 18.699 12.3677 18.6957 12.3565 18.6907C12.3709 18.6973 12.3853 18.704 12.3997 18.709C12.3885 18.704 12.3773 18.6973 12.3677 18.6891C12.3805 18.699 12.3917 18.709 12.4045 18.7189C12.3901 18.7073 12.3789 18.6957 12.3677 18.6808C12.3773 18.694 12.3869 18.7056 12.3965 18.7189C12.3789 18.6957 12.3645 18.6691 12.3533 18.6409C12.3597 18.6559 12.3661 18.6708 12.3709 18.6857C12.3629 18.6675 12.3581 18.6476 12.3549 18.6277C12.3565 18.6443 12.3597 18.6609 12.3613 18.6774C12.3597 18.6625 12.3597 18.6492 12.3613 18.6343C12.3597 18.6509 12.3565 18.6675 12.3549 18.6841C12.3565 18.6708 12.3597 18.6592 12.3645 18.6476C12.3581 18.6625 12.3517 18.6774 12.3469 18.6924C12.3533 18.6791 12.3597 18.6658 12.3693 18.6542C12.3597 18.6675 12.3501 18.6791 12.3405 18.6924C12.3517 18.6791 12.3629 18.6658 12.3773 18.6559C12.3645 18.6658 12.3533 18.6758 12.3405 18.6857C12.3645 18.6675 12.3901 18.6526 12.4174 18.6409C12.4029 18.6476 12.3885 18.6542 12.3741 18.6592C12.3997 18.6476 12.427 18.636 12.4558 18.631C12.4398 18.6327 12.4238 18.636 12.4077 18.6376C12.4125 18.6376 12.4174 18.6376 12.4222 18.6376C12.4061 18.636 12.3901 18.6327 12.3741 18.631C12.3757 18.631 12.3789 18.6327 12.3805 18.6327C12.3661 18.626 12.3517 18.6194 12.3373 18.6144C12.3389 18.6161 12.3405 18.6161 12.3437 18.6177C12.4254 18.6658 12.5439 18.6409 12.5903 18.5514C12.6272 18.4635 12.6031 18.349 12.5166 18.2976Z" fill="#1797E5"/>
<path d="M12.5888 18.6824C12.6032 18.6558 12.6176 18.6276 12.632 18.6011C12.6384 18.5878 12.6465 18.5746 12.6529 18.5596C12.6737 18.5198 12.6881 18.48 12.6881 18.4336C12.6881 18.4203 12.6849 18.3921 12.6817 18.3788C12.6785 18.3689 12.6753 18.3589 12.6705 18.349C12.6657 18.3357 12.6609 18.3241 12.6529 18.3108C12.6448 18.2976 12.6368 18.2843 12.6288 18.271C12.6128 18.2445 12.5952 18.2179 12.5776 18.1914C12.5504 18.1516 12.5167 18.1184 12.4703 18.1051C12.427 18.0935 12.3694 18.0985 12.3309 18.1234C12.2925 18.1483 12.2589 18.1881 12.2476 18.2345C12.238 18.281 12.238 18.3374 12.2653 18.3788C12.2797 18.4004 12.2941 18.4236 12.3085 18.4468C12.3213 18.4684 12.3373 18.4916 12.3469 18.5149C12.3405 18.4999 12.3341 18.485 12.3293 18.4701C12.3309 18.4734 12.3309 18.4767 12.3325 18.48C12.3309 18.4634 12.3277 18.4468 12.3261 18.4303C12.3261 18.4336 12.3261 18.4369 12.3261 18.4402C12.3277 18.4236 12.3309 18.407 12.3325 18.3904C12.3325 18.3938 12.3309 18.3971 12.3293 18.4004C12.3357 18.3855 12.3421 18.3705 12.3469 18.3556C12.3261 18.4021 12.2989 18.4468 12.2765 18.4933C12.2541 18.5364 12.246 18.5895 12.2589 18.6376C12.2701 18.6807 12.3021 18.7272 12.3421 18.7487C12.3838 18.772 12.435 18.7836 12.4815 18.767C12.5247 18.7537 12.5664 18.7255 12.5888 18.6824Z" fill="#1797E5"/>
<path d="M8.18596 14.3481C8.25002 14.368 8.31408 14.3896 8.37655 14.4178C8.41499 14.436 8.48225 14.4725 8.50147 14.4875C8.51108 14.4958 8.52229 14.5057 8.5303 14.5157C8.5319 14.5173 8.54952 14.5439 8.53831 14.5256C8.54311 14.5322 8.54632 14.5538 8.54472 14.5356C8.54472 14.5405 8.54471 14.5638 8.54792 14.5472C8.54311 14.582 8.52389 14.6202 8.49346 14.6716C8.33811 14.9287 8.26283 15.2289 8.35413 15.5258C8.40698 15.6967 8.51749 15.8161 8.69206 15.8443C8.83621 15.8675 8.98035 15.8609 9.11328 15.7912C9.40477 15.6386 9.41118 15.2538 9.28145 14.9867C9.24622 14.9154 9.20137 14.8524 9.15653 14.7877C9.12129 14.7363 9.08285 14.6865 9.09246 14.6251C9.11008 14.5157 9.24782 14.4327 9.3343 14.373C9.27344 14.2652 9.21258 14.1574 9.15172 14.0512C8.99797 14.164 8.88586 14.3133 8.82339 14.4991C8.75933 14.6915 8.78015 14.8773 8.8282 15.0697C8.833 15.0896 8.83941 15.1112 8.84261 15.1327C8.84421 15.1493 8.84101 15.1709 8.84421 15.1493C8.84421 15.151 8.83781 15.1825 8.8314 15.1792C8.80578 15.1659 8.94992 15.1559 8.88105 15.1543C8.88586 15.1543 8.92269 15.1742 8.92109 15.1742C8.92109 15.1742 8.91148 15.2389 8.91949 15.1559C8.92269 15.1244 8.94031 15.0946 8.95312 15.0647C8.97875 15.0083 8.99797 14.9536 8.99476 14.8905C8.99316 14.8391 8.97394 14.796 8.96594 14.7479C8.94992 14.6467 8.99637 14.5389 9.0284 14.446C9.06203 14.3514 8.99156 14.242 8.90187 14.2171C8.80097 14.1889 8.71288 14.2519 8.68085 14.3481C8.63601 14.4759 8.59597 14.6102 8.60558 14.7479C8.60878 14.791 8.61679 14.8325 8.6264 14.874C8.628 14.8806 8.6296 14.8889 8.6328 14.8955C8.63921 14.9287 8.63921 14.9254 8.63601 14.8872C8.63921 14.8922 8.57675 15.0349 8.57194 15.0531C8.53991 15.1941 8.57034 15.3484 8.67925 15.4462C8.78816 15.5441 8.94351 15.5524 9.05883 15.4611C9.15653 15.3848 9.20618 15.2588 9.20297 15.1327C9.19977 15.0199 9.14531 14.8905 9.14211 14.801C9.1357 14.6384 9.20618 14.4659 9.3343 14.373C9.41438 14.315 9.45122 14.2105 9.39837 14.1176C9.35032 14.033 9.2334 13.9965 9.15172 14.0512C8.91468 14.2105 8.65202 14.4526 8.74812 14.7811C8.78816 14.9187 8.88586 15.0183 8.95152 15.141C8.97715 15.1875 8.99957 15.2439 9.00598 15.292C9.01078 15.3334 9.00277 15.3815 8.98996 15.4081C8.97555 15.4396 8.95312 15.4595 8.92269 15.4711C8.91148 15.4761 8.88425 15.4811 8.87945 15.4811C8.84742 15.4844 8.81378 15.4844 8.78175 15.4811C8.75773 15.4794 8.7289 15.4777 8.71288 15.4562C8.68566 15.4213 8.67925 15.3484 8.67605 15.3036C8.66644 15.1875 8.68566 15.0697 8.73851 14.9668C8.80578 14.8375 8.89226 14.728 8.90508 14.577C8.93551 14.2221 8.54632 14.0695 8.28205 13.9849C8.05943 13.9185 7.96494 14.2785 8.18596 14.3481Z" fill="#1797E5"/>
<path d="M8.90352 16.0599C8.84587 16.0284 8.78661 16.0201 8.72254 16.0351C8.6761 16.045 8.63606 16.0732 8.60082 16.1047C8.5832 16.1213 8.56879 16.1429 8.55598 16.1628C8.54316 16.1827 8.53355 16.2076 8.52715 16.2308C8.50953 16.2855 8.51434 16.3386 8.52234 16.395C8.52715 16.4215 8.53516 16.4481 8.54477 16.473C8.55758 16.5061 8.57039 16.5426 8.59121 16.5725C8.60563 16.5924 8.62004 16.6139 8.63926 16.6305C8.67289 16.6604 8.69692 16.6753 8.73856 16.6902C8.76098 16.6985 8.78821 16.7019 8.81223 16.7019C8.81704 16.7019 8.82184 16.7019 8.82665 16.7019C8.84747 16.7002 8.86829 16.6985 8.88751 16.6919C8.91153 16.6853 8.93555 16.6737 8.95798 16.662C8.9804 16.6504 9.00122 16.6322 9.01884 16.6156C9.04606 16.5924 9.06849 16.5609 9.0861 16.5294C9.09731 16.5078 9.10692 16.4829 9.11493 16.4597C9.11814 16.4497 9.12134 16.4381 9.12454 16.4265C9.12935 16.4016 9.13255 16.3751 9.13415 16.3502C9.13575 16.3237 9.13095 16.2971 9.12614 16.2722C9.12134 16.2374 9.10692 16.2009 9.08771 16.1711C9.05888 16.1263 9.02845 16.0964 8.9868 16.0649C8.95958 16.045 8.92755 16.0301 8.89551 16.0218C8.84426 16.0085 8.79942 16.0102 8.74817 16.0185C8.72414 16.0234 8.70172 16.035 8.6793 16.045C8.65688 16.055 8.63766 16.0732 8.62004 16.0881C8.59442 16.1097 8.57199 16.1396 8.55758 16.1711C8.54797 16.1926 8.53676 16.2158 8.53195 16.2407C8.52715 16.2656 8.52234 16.2922 8.52234 16.3187C8.52234 16.3386 8.52715 16.3602 8.52875 16.3801C8.52875 16.385 8.53035 16.39 8.53195 16.395C8.53516 16.4066 8.54156 16.4199 8.54637 16.4315C8.55117 16.4431 8.55598 16.4564 8.56238 16.4663C8.58641 16.5061 8.62485 16.5393 8.66969 16.5526C8.71293 16.5642 8.77059 16.5592 8.80903 16.5343C8.84747 16.5094 8.8811 16.4696 8.89231 16.4232C8.90352 16.3751 8.90032 16.322 8.87469 16.2789C8.87149 16.2739 8.86989 16.2706 8.86829 16.2656C8.87469 16.2805 8.8811 16.2955 8.8859 16.3104C8.8827 16.3004 8.8795 16.2922 8.8779 16.2822C8.8795 16.2988 8.8827 16.3154 8.8843 16.332C8.8827 16.322 8.8843 16.3121 8.8843 16.3021C8.8827 16.3187 8.8795 16.3353 8.8779 16.3519C8.8795 16.3403 8.8827 16.3303 8.88751 16.3204C8.8811 16.3353 8.87469 16.3502 8.86989 16.3651C8.87469 16.3552 8.8795 16.3469 8.8843 16.3386C8.87469 16.3519 8.86508 16.3635 8.85547 16.3767C8.86188 16.3685 8.86989 16.3602 8.8779 16.3535C8.86508 16.3635 8.85387 16.3734 8.84106 16.3834C8.84747 16.3784 8.85547 16.3734 8.86348 16.3701C8.84907 16.3767 8.83465 16.3834 8.82024 16.3884C8.82825 16.385 8.83786 16.3817 8.84586 16.3817C8.82985 16.3834 8.81383 16.3867 8.79782 16.3884C8.80903 16.3867 8.81864 16.3867 8.82985 16.3884C8.81383 16.3867 8.79782 16.3834 8.7818 16.3817C8.79301 16.3834 8.80583 16.3867 8.81704 16.3917C8.80262 16.385 8.78821 16.3784 8.77379 16.3734C8.78661 16.3784 8.79782 16.385 8.80903 16.3933C8.79622 16.3834 8.785 16.3734 8.77219 16.3635C8.7818 16.3718 8.78981 16.3801 8.79782 16.39C8.78821 16.3768 8.7786 16.3651 8.76899 16.3519C8.7754 16.3602 8.7802 16.3701 8.785 16.3801C8.7786 16.3651 8.77219 16.3502 8.76739 16.3353C8.77219 16.3469 8.7754 16.3602 8.7786 16.3734C8.777 16.3568 8.77379 16.3403 8.77219 16.3237C8.77379 16.3386 8.77379 16.3535 8.77219 16.3685C8.77379 16.3519 8.777 16.3353 8.7786 16.3187C8.777 16.3353 8.77219 16.3502 8.76579 16.3668C8.77219 16.3519 8.7786 16.3369 8.7834 16.322C8.777 16.3369 8.76899 16.3519 8.75938 16.3651C8.76899 16.3519 8.7786 16.3403 8.78821 16.327C8.7802 16.3369 8.77059 16.3469 8.76098 16.3568C8.77379 16.3469 8.78501 16.3369 8.79782 16.327C8.78821 16.3353 8.7786 16.3403 8.76739 16.3469C8.7818 16.3403 8.79622 16.3336 8.81063 16.3286C8.80102 16.3336 8.79141 16.3353 8.7802 16.3369C8.79622 16.3353 8.81223 16.332 8.82825 16.3303C8.82024 16.332 8.81383 16.332 8.80743 16.3303C8.82344 16.332 8.83946 16.3353 8.85547 16.3369C8.84747 16.3353 8.84106 16.3336 8.83465 16.332C8.84907 16.3386 8.86348 16.3452 8.8779 16.3502C8.87149 16.3469 8.86508 16.3436 8.86028 16.3386C8.87309 16.3486 8.8843 16.3585 8.89712 16.3685C8.89071 16.3635 8.8843 16.3568 8.8795 16.3502C8.88911 16.3635 8.89872 16.3751 8.90833 16.3884C8.89551 16.3718 8.88751 16.3519 8.8779 16.332C8.8843 16.3469 8.89071 16.3618 8.89551 16.3767C8.8859 16.3519 8.87629 16.3253 8.87309 16.2988C8.87469 16.3154 8.8779 16.332 8.8795 16.3486C8.8779 16.3336 8.8779 16.3204 8.8795 16.3054C8.8779 16.322 8.87469 16.3386 8.87309 16.3552C8.87469 16.3452 8.8763 16.3353 8.8795 16.327C8.87309 16.3419 8.86669 16.3568 8.86188 16.3718C8.86508 16.3651 8.86829 16.3568 8.87309 16.3502C8.86348 16.3635 8.85387 16.3751 8.84426 16.3884C8.85067 16.3801 8.85547 16.3751 8.86348 16.3685C8.85067 16.3784 8.83946 16.3884 8.82665 16.3983C8.83305 16.3933 8.83946 16.39 8.84586 16.3867C8.83145 16.3933 8.81704 16.4 8.80262 16.4049C8.80903 16.4016 8.81704 16.4 8.82344 16.3983C8.80743 16.4 8.79141 16.4033 8.77539 16.4049C8.7818 16.4049 8.78661 16.4049 8.79301 16.4049C8.777 16.4033 8.76098 16.4 8.74497 16.3983C8.74977 16.4 8.75457 16.4 8.75938 16.4016C8.74496 16.395 8.73055 16.3884 8.71614 16.3834C8.71774 16.385 8.72094 16.385 8.72254 16.3867C8.76579 16.4099 8.81383 16.4182 8.86188 16.4049C8.90352 16.3933 8.94837 16.3602 8.96919 16.3187C8.99161 16.2756 9.00282 16.2225 8.9868 16.1744C8.97079 16.1263 8.94516 16.0832 8.90352 16.0599Z" fill="#1797E5"/>
<path d="M8.85558 17.3554C9.08781 17.3554 9.08781 16.9822 8.85558 16.9822C8.62495 16.9822 8.62335 17.3554 8.85558 17.3554Z" fill="#1797E5"/>
<path d="M31.6735 14.9668C30.4355 14.1624 29.2055 13.7593 27.9867 13.7593C27.3797 13.7593 26.8912 13.8721 26.5196 14.0977C26.148 14.3233 25.9638 14.6401 25.9638 15.0498C25.9638 15.1924 25.9911 15.3235 26.0471 15.4396C26.1016 15.5557 26.2025 15.6602 26.3466 15.7514C26.4908 15.8443 26.6189 15.919 26.7326 15.977C26.8463 16.0351 27.0353 16.0964 27.3028 16.1611C27.5702 16.2258 27.7704 16.2723 27.905 16.2988C28.0395 16.327 28.2765 16.3735 28.6129 16.4415L29.1462 16.5443C30.4451 16.7964 31.4493 17.2642 32.1572 17.9476C32.8651 18.631 33.2191 19.5383 33.2191 20.6713C33.2191 21.3331 33.1198 21.9352 32.9196 22.4776C32.721 23.02 32.4519 23.4762 32.1156 23.8444C31.7776 24.2127 31.3788 24.5245 30.916 24.7766C30.4531 25.0288 29.963 25.2129 29.4441 25.329C28.9268 25.4451 28.3855 25.5032 27.8217 25.5032C26.731 25.5032 25.6868 25.3456 24.6906 25.0321C23.6944 24.7186 22.8504 24.2674 22.1569 23.6802L23.6928 20.8952C25.0221 21.8987 26.4075 22.3997 27.8489 22.3997C28.4495 22.3997 28.9396 22.2852 29.3208 22.0563C29.7004 21.8274 29.891 21.499 29.891 21.0677C29.891 20.8968 29.8541 20.7476 29.7804 20.6182C29.7068 20.4888 29.6091 20.3793 29.4858 20.2897C29.3624 20.2018 29.1863 20.1189 28.9572 20.0443C28.7266 19.9696 28.496 19.9066 28.2637 19.8552C28.0315 19.8037 27.724 19.744 27.3444 19.676L26.7006 19.5632C25.3456 19.3244 24.3286 18.8516 23.6479 18.145C22.9673 17.4384 22.6389 16.4547 22.6646 15.1908C22.6886 13.8124 23.1787 12.7093 24.1364 11.8832C25.0926 11.0572 26.3306 10.6442 27.8505 10.6442C28.7827 10.6442 29.6475 10.7536 30.4483 10.9726C31.2475 11.1916 32.114 11.5863 33.0461 12.1603L31.6735 14.9668Z" fill="#1797E5"/>
<path d="M39.2393 19.5648H38.155V25.2361H35.0847V10.9029H38.155V16.4829H39.2681L42.9646 10.9029H46.7443L41.7522 17.8961L47.1591 25.2361H43.2945L39.2393 19.5648Z" fill="#1797E5"/>
<path d="M51.2385 25.2361H48.1682V10.9029H51.2385V25.2361Z" fill="#1797E5"/>
<path d="M65.4622 25.2361H62.5105L56.6439 16.4929V25.2361H53.5736V10.9029H56.5157L62.3824 19.6461V10.9029H65.4622V25.2361Z" fill="#1797E5"/>
<path d="M76.8448 14.9668C75.6068 14.1624 74.3767 13.7593 73.1579 13.7593C72.5509 13.7593 72.0624 13.8721 71.6909 14.0977C71.3193 14.3233 71.1351 14.6401 71.1351 15.0498C71.1351 15.1924 71.1623 15.3235 71.2184 15.4396C71.2729 15.5557 71.3738 15.6602 71.5179 15.7514C71.662 15.8443 71.7902 15.919 71.9039 15.977C72.0176 16.0351 72.2066 16.0964 72.4741 16.1611C72.7415 16.2258 72.9417 16.2723 73.0763 16.2988C73.2108 16.327 73.4462 16.3735 73.7842 16.4415L74.3175 16.5443C75.6164 16.7964 76.6206 17.2642 77.3285 17.9476C78.0364 18.631 78.3903 19.5383 78.3903 20.6713C78.3903 21.3331 78.291 21.9352 78.0908 22.4776C77.8922 23.02 77.6232 23.4762 77.2868 23.8444C76.9489 24.2127 76.5501 24.5245 76.0872 24.7766C75.6244 25.0288 75.1343 25.2129 74.6154 25.329C74.0965 25.4451 73.5567 25.5032 72.993 25.5032C71.9023 25.5032 70.858 25.3456 69.8618 25.0321C68.8657 24.7186 68.0216 24.2674 67.3281 23.6802L68.8641 20.8952C70.1934 21.8987 71.5804 22.3997 73.0202 22.3997C73.6208 22.3997 74.1109 22.2852 74.4921 22.0563C74.8716 21.8274 75.0622 21.499 75.0622 21.0677C75.0622 20.8968 75.0254 20.7476 74.9517 20.6182C74.878 20.4888 74.7803 20.3793 74.657 20.2897C74.5337 20.2018 74.3575 20.1189 74.1285 20.0443C73.8979 19.9696 73.6672 19.9066 73.435 19.8552C73.2012 19.8037 72.8953 19.744 72.5157 19.676L71.8719 19.5632C70.5169 19.3244 69.4999 18.8516 68.8192 18.145C68.1385 17.4384 67.8102 16.4547 67.8358 15.1908C67.8599 13.8124 68.3499 12.7093 69.3077 11.8832C70.2639 11.0572 71.5019 10.6442 73.0218 10.6442C73.9539 10.6442 74.8188 10.7536 75.6196 10.9726C76.4188 11.1916 77.2852 11.5863 78.2174 12.1603L76.8448 14.9668Z" fill="white"/>
<path d="M83.3264 20.3926V25.2345H80.2561V10.9013H85.7736C87.3368 10.9013 88.538 11.3309 89.3772 12.1918C90.2164 13.0527 90.6376 14.2155 90.6376 15.6835C90.6376 17.1232 90.218 18.2678 89.3772 19.1187C88.538 19.968 87.3448 20.3926 85.8008 20.3926H83.3264ZM83.3264 14.0048V17.3422H85.7255C86.2893 17.3422 86.7281 17.2012 87.0405 16.9176C87.3528 16.6339 87.5097 16.2225 87.5097 15.6835C87.5097 15.1377 87.3528 14.7214 87.0405 14.4344C86.7281 14.1475 86.2893 14.0048 85.7255 14.0048H83.3264Z" fill="white"/>
<path d="M95.8816 11.1998C96.7241 10.8249 97.637 10.6375 98.6171 10.6375C99.5973 10.6375 100.51 10.8249 101.353 11.1998C102.195 11.5747 102.913 12.0889 103.504 12.7408C104.095 13.3927 104.559 14.1789 104.897 15.1012C105.233 16.0218 105.403 17.0121 105.403 18.0703C105.403 19.1286 105.235 20.1189 104.897 21.0395C104.559 21.9601 104.096 22.748 103.504 23.3999C102.913 24.0518 102.195 24.566 101.353 24.9408C100.51 25.3157 99.5973 25.5032 98.6171 25.5032C97.637 25.5032 96.7241 25.3157 95.8816 24.9408C95.0392 24.566 94.3217 24.0518 93.7307 23.3999C93.1397 22.748 92.6752 21.9617 92.3373 21.0395C91.9993 20.1189 91.8312 19.1286 91.8312 18.0703C91.8312 17.0121 91.9993 16.0234 92.3373 15.1012C92.6736 14.1789 93.1381 13.3927 93.7307 12.7408C94.3217 12.0889 95.0392 11.5747 95.8816 11.1998ZM101.197 15.0697C100.526 14.2984 99.6662 13.9135 98.6187 13.9135C97.5713 13.9135 96.7112 14.3 96.0402 15.0697C95.3691 15.841 95.0328 16.8412 95.0328 18.0687C95.0328 19.2978 95.3691 20.298 96.0402 21.0677C96.7112 21.839 97.5713 22.2238 98.6187 22.2238C99.6662 22.2238 100.526 21.839 101.197 21.0677C101.868 20.2964 102.205 19.2961 102.205 18.0687C102.203 16.8412 101.868 15.841 101.197 15.0697Z" fill="white"/>
<path d="M116.96 14.0761H113.153V25.2361H110.083V14.0761H106.268V10.9029H116.962V14.0761H116.96Z" fill="white"/>
<path d="M6.8199 13.9334C6.97526 13.9334 6.97526 13.6846 6.8199 13.6846C6.66615 13.6846 6.66615 13.9334 6.8199 13.9334Z" fill="#1973C4"/>
<path d="M8.31911 13.7576C8.62822 13.7576 8.62822 13.2599 8.31911 13.2599C8.01 13.2599 8.01 13.7576 8.31911 13.7576Z" fill="#1973C4"/>
<g opacity="0.5">
<g opacity="0.5">
<path opacity="0.5" d="M8.79461 12.1519C9.05087 12.1519 9.05087 11.7405 8.79461 11.7405C8.53835 11.7405 8.53835 12.1519 8.79461 12.1519Z" fill="#1973C4"/>
</g>
</g>
<path d="M10.0232 13.9765C10.1785 13.9765 10.1785 13.7277 10.0232 13.7277C9.8694 13.7277 9.8694 13.9765 10.0232 13.9765Z" fill="#1973C4"/>
<path d="M11.966 13.6929C12.2751 13.6929 12.2751 13.1953 11.966 13.1953C11.6569 13.1953 11.6569 13.6929 11.966 13.6929Z" fill="#1973C4"/>
<path d="M11.6666 12.3709C11.8219 12.3709 11.8219 12.1221 11.6666 12.1221C11.5128 12.1221 11.5128 12.3709 11.6666 12.3709Z" fill="#1973C4"/>
<g opacity="0.3">
<g opacity="0.3">
<path opacity="0.3" d="M12.6898 12.5799C12.9989 12.5799 12.9989 12.0823 12.6898 12.0823C12.3807 12.0823 12.3807 12.5799 12.6898 12.5799Z" fill="#1973C4"/>
</g>
</g>
<path d="M13.1031 13.7725C13.2585 13.7725 13.2585 13.5237 13.1031 13.5237C12.9493 13.5237 12.9477 13.7725 13.1031 13.7725Z" fill="#1973C4"/>
<path d="M15.2221 13.4905C15.5312 13.4905 15.5312 12.9929 15.2221 12.9929C14.9129 12.9929 14.9113 13.4905 15.2221 13.4905Z" fill="#1973C4"/>
<path opacity="0.31" d="M10.3612 11.5963C7.54397 11.5963 5.31775 12.7292 5.31775 13.2069C5.31775 13.4358 5.77581 13.6431 6.62946 13.7974C6.6711 13.804 6.69352 13.9583 6.79922 13.9666C6.96099 13.9782 6.95618 13.8339 6.99942 13.8405C7.59362 13.9334 8.67469 14.0197 8.67469 14.0197C8.67469 14.0197 8.87809 14.1092 8.62344 14.7412C8.57699 14.8557 8.45047 15.0713 8.53055 15.2604C8.66989 15.5872 8.81083 15.496 8.97419 15.4794C9.13755 15.4628 9.29931 15.2173 9.02384 14.8739C8.69711 14.4659 9.48029 14.0827 9.45147 14.0562C9.76217 14.0661 10.0841 14.0728 10.4172 14.0728C10.8881 14.0728 11.3429 14.0611 11.7754 14.0412C11.974 14.0313 11.8603 14.8756 11.9339 15.0547C12.0012 15.2156 12.1421 15.5159 12.6002 15.8775C12.8324 16.0616 11.7353 16.818 11.974 17.2824C12.3536 18.0239 12.5185 18.3092 12.4929 18.2428C12.0957 17.2111 11.9564 17.0867 12.243 16.8478C12.8004 16.385 12.9221 16.5294 13.031 15.9919C13.0679 15.8061 12.7588 15.4479 12.637 15.2505C12.0685 14.3282 13.6508 13.8157 13.7229 13.809C15.3165 13.663 15.5215 13.537 15.5215 13.2085C15.5215 12.7292 13.1784 11.5963 10.3612 11.5963Z" fill="white"/>
<path opacity="0.31" d="M12.3517 18.976C12.4782 18.976 12.5807 18.8698 12.5807 18.7388C12.5807 18.6078 12.4782 18.5016 12.3517 18.5016C12.2252 18.5016 12.1227 18.6078 12.1227 18.7388C12.1227 18.8698 12.2252 18.976 12.3517 18.976Z" fill="white"/>
<path opacity="0.31" d="M12.3902 19.7125C12.4477 19.7125 12.4943 19.6643 12.4943 19.6047C12.4943 19.5452 12.4477 19.4969 12.3902 19.4969C12.3327 19.4969 12.2861 19.5452 12.2861 19.6047C12.2861 19.6643 12.3327 19.7125 12.3902 19.7125Z" fill="white"/>
<path opacity="0.31" d="M12.5647 20.4523C12.5788 20.4523 12.5903 20.4404 12.5903 20.4258C12.5903 20.4111 12.5788 20.3992 12.5647 20.3992C12.5505 20.3992 12.5391 20.4111 12.5391 20.4258C12.5391 20.4404 12.5505 20.4523 12.5647 20.4523Z" fill="white"/>
<path opacity="0.03" d="M4.51696 15.7995C4.51696 15.7995 2.91377 17.2642 3.83949 19.5914C4.76521 21.9203 6.79763 24.2658 8.95338 24.4515C11.1091 24.6373 9.16639 21.5106 8.31915 19.1585C7.4719 16.8064 5.87672 15.6718 4.86771 15.6718C4.73798 15.6735 4.51696 15.7995 4.51696 15.7995Z" fill="white"/>
<path opacity="0.5" d="M8.00852 10.659C8.11025 10.659 8.19271 10.5736 8.19271 10.4683C8.19271 10.3629 8.11025 10.2775 8.00852 10.2775C7.9068 10.2775 7.82434 10.3629 7.82434 10.4683C7.82434 10.5736 7.9068 10.659 8.00852 10.659Z" fill="#1797E5"/>
<path opacity="0.5" d="M11.2533 9.01692C11.4815 9.01692 11.6665 8.82532 11.6665 8.58897C11.6665 8.35261 11.4815 8.16101 11.2533 8.16101C11.0251 8.16101 10.8401 8.35261 10.8401 8.58897C10.8401 8.82532 11.0251 9.01692 11.2533 9.01692Z" fill="#1797E5"/>
<path opacity="0.5" d="M13.6429 9.95416C13.7278 9.95416 13.7966 9.88287 13.7966 9.79492C13.7966 9.70698 13.7278 9.63568 13.6429 9.63568C13.558 9.63568 13.4891 9.70698 13.4891 9.79492C13.4891 9.88287 13.558 9.95416 13.6429 9.95416Z" fill="#1797E5"/>
<path opacity="0.5" d="M16.1639 11.8534C16.301 11.8534 16.4121 11.7383 16.4121 11.5963C16.4121 11.4543 16.301 11.3392 16.1639 11.3392C16.0268 11.3392 15.9156 11.4543 15.9156 11.5963C15.9156 11.7383 16.0268 11.8534 16.1639 11.8534Z" fill="#1797E5"/>
<path opacity="0.5" d="M13.6523 6.97503C13.7894 6.97503 13.9005 6.85992 13.9005 6.71792C13.9005 6.57593 13.7894 6.46082 13.6523 6.46082C13.5152 6.46082 13.4041 6.57593 13.4041 6.71792C13.4041 6.85992 13.5152 6.97503 13.6523 6.97503Z" fill="#1797E5"/>
<path opacity="0.5" d="M7.73774 7.8508C7.90404 7.8508 8.03884 7.71118 8.03884 7.53895C8.03884 7.36673 7.90404 7.22711 7.73774 7.22711C7.57145 7.22711 7.43665 7.36673 7.43665 7.53895C7.43665 7.71118 7.57145 7.8508 7.73774 7.8508Z" fill="#1797E5"/>
<path opacity="0.5" d="M5.13655 11.1484C5.2365 11.1484 5.31753 11.0645 5.31753 10.9609C5.31753 10.8574 5.2365 10.7735 5.13655 10.7735C5.03659 10.7735 4.95557 10.8574 4.95557 10.9609C4.95557 11.0645 5.03659 11.1484 5.13655 11.1484Z" fill="#1797E5"/>
<path opacity="0.5" d="M9.80708 11.8534C9.94419 11.8534 10.0553 11.7383 10.0553 11.5963C10.0553 11.4543 9.94419 11.3392 9.80708 11.3392C9.66998 11.3392 9.55884 11.4543 9.55884 11.5963C9.55884 11.7383 9.66998 11.8534 9.80708 11.8534Z" fill="#1797E5"/>
<path opacity="0.5" d="M14.3841 12.6164C14.6088 12.6164 14.7909 12.4278 14.7909 12.1951C14.7909 11.9624 14.6088 11.7737 14.3841 11.7737C14.1594 11.7737 13.9773 11.9624 13.9773 12.1951C13.9773 12.4278 14.1594 12.6164 14.3841 12.6164Z" fill="#1797E5"/>
<path opacity="0.5" d="M14.9979 9.95416C15.0828 9.95416 15.1516 9.88287 15.1516 9.79492C15.1516 9.70698 15.0828 9.63568 14.9979 9.63568C14.913 9.63568 14.8441 9.70698 14.8441 9.79492C14.8441 9.88287 14.913 9.95416 14.9979 9.95416Z" fill="#1797E5"/>
<path opacity="0.5" d="M13.5577 3.91467C13.5577 3.91467 13.0211 4.55495 12.648 6.77932C12.2396 9.22596 13.279 9.38354 13.4888 10.5762C13.6954 11.7489 12.8081 13.5503 12.8081 13.5503C12.8081 13.5503 12.5567 13.6847 12.3437 13.6482C12.1307 13.61 12.6768 13.0676 12.8081 12.4721C12.9427 11.86 13.2101 11.1667 12.5038 9.18118C12.0234 7.8293 12.672 5.73099 13.1445 4.62295C13.3655 4.10211 13.5577 3.91467 13.5577 3.91467Z" fill="#1797E5"/>
<path opacity="0.5" d="M6.63592 10.3207C6.63592 10.3207 6.45654 10.5347 6.33162 11.2778C6.19548 12.0956 6.54143 12.147 6.6119 12.5451C6.68076 12.9366 6.38447 13.5387 6.38447 13.5387C6.38447 13.5387 6.29958 13.5835 6.22911 13.5719C6.15864 13.5586 6.33962 13.3778 6.38447 13.1788C6.42931 12.9747 6.519 12.7425 6.28357 12.079C6.04974 11.4155 6.63592 10.3207 6.63592 10.3207Z" fill="#1797E5"/>
<path opacity="0.5" d="M8.65535 8.20245C8.65535 8.20245 8.45835 8.43634 8.32222 9.25244C8.17166 10.1498 8.55285 10.2079 8.63133 10.6441C8.7066 11.0737 8.38147 11.7339 8.38147 11.7339C8.38147 11.7339 8.28858 11.7837 8.2117 11.7704C8.13483 11.7571 8.33343 11.5581 8.38147 11.3391C8.43112 11.1152 8.52882 10.8598 8.26936 10.1316C8.0099 9.40504 8.65535 8.20245 8.65535 8.20245Z" fill="#1797E5"/>
</svg>
