<svg width="32" height="32" viewBox="0 0 32 32" fill="none" xmlns="http://www.w3.org/2000/svg">
<path fill-rule="evenodd" clip-rule="evenodd" d="M8.92879 7.79289C8.53826 7.40237 7.9051 7.40237 7.51457 7.79289C7.12405 8.18342 7.12405 8.81658 7.51457 9.20711L14.5858 16.2783L7.51471 23.3493C7.12419 23.7399 7.12419 24.373 7.51471 24.7635C7.90524 25.1541 8.5384 25.1541 8.92893 24.7635L16 17.6925L23.0709 24.7635C23.4614 25.154 24.0946 25.154 24.4851 24.7635C24.8757 24.3729 24.8757 23.7398 24.4851 23.3492L17.4142 16.2783L24.4853 9.2072C24.8758 8.81667 24.8758 8.18351 24.4853 7.79298C24.0948 7.40246 23.4616 7.40246 23.0711 7.79298L16 14.8641L8.92879 7.79289Z" fill="#A7C9FC"/>
</svg>
