<svg width="24" height="24" viewBox="0 0 24 24" fill="none" xmlns="http://www.w3.org/2000/svg">
<path fill-rule="evenodd" clip-rule="evenodd" d="M5.39895 19L11.9999 7.11821L18.6009 19H5.39895ZM11.1258 4.57344C11.5068 3.88763 12.4931 3.88763 12.8741 4.57344L21.1746 19.5143C21.5449 20.1808 21.0629 21 20.3004 21H3.69944C2.93695 21 2.45498 20.1808 2.82528 19.5143L11.1258 4.57344ZM12 15.4337C11.4477 15.4337 11 14.986 11 14.4337V11.9057C11 11.3534 11.4477 10.9057 12 10.9057C12.5523 10.9057 13 11.3534 13 11.9057V14.4337C13 14.986 12.5523 15.4337 12 15.4337ZM11.9602 17.9301C11.4299 17.9301 11 17.5003 11 16.97C11 16.4397 11.4299 16.0098 11.9602 16.0098H12.0399C12.5701 16.0098 13 16.4397 13 16.97C13 17.5003 12.5701 17.9301 12.0399 17.9301H11.9602Z" fill="#F5DD0A"/>
</svg>
