<svg width="32" height="32" viewBox="0 0 32 32" fill="none" xmlns="http://www.w3.org/2000/svg">
<path fill-rule="evenodd" clip-rule="evenodd" d="M12.4054 12.7793C12.3073 12.7783 12.2093 12.7778 12.1112 12.7778C10.6201 12.7778 9.11578 12.8921 7.7973 13.1265C6.50751 13.3558 5.2868 13.7181 4.44541 14.2791C4.16721 14.4645 4.00011 14.7768 4.00011 15.1111C4.00011 15.4455 4.16721 15.7577 4.44541 15.9432C5.2868 16.5041 6.50751 16.8664 7.7973 17.0957C9.09046 17.3256 10.5624 17.44 12.0253 17.4443C12.0085 17.1326 12 16.8177 12 16.5C12 16.1444 12.0107 15.7924 12.0316 15.4443C10.661 15.4403 9.30646 15.3326 8.14737 15.1265L8.0619 15.1111L8.14737 15.0957C9.32142 14.8869 10.696 14.7791 12.0847 14.7778C12.1527 14.0923 12.2608 13.4246 12.4054 12.7793ZM12.18 18.9999C12.1571 19 12.1342 19 12.1112 19C10.7135 19 9.32889 18.8922 8.14737 18.6821C6.93715 18.467 6.04675 18.1626 5.55481 17.8346C5.09528 17.5283 4.47441 17.6524 4.16806 18.112C3.8617 18.5715 3.98588 19.1924 4.44541 19.4987C5.2868 20.0596 6.50751 20.4219 7.7973 20.6512C9.11578 20.8856 10.6201 21 12.1112 21C12.274 21 12.4369 20.9986 12.5997 20.9959C12.4216 20.3544 12.2805 19.6874 12.18 18.9999ZM13.1173 22.5368C12.7845 22.5493 12.4482 22.5556 12.1112 22.5556C10.7135 22.5556 9.32889 22.4477 8.14737 22.2377C6.93715 22.0225 6.04675 21.7181 5.55481 21.3902C5.09528 21.0838 4.47441 21.208 4.16806 21.6675C3.8617 22.1271 3.98588 22.7479 4.44541 23.0543C5.2868 23.6152 6.50751 23.9775 7.7973 24.2068C9.11578 24.4412 10.6201 24.5556 12.1112 24.5556C12.7697 24.5556 13.4308 24.5333 14.0772 24.4882C13.715 23.8833 13.3931 23.2302 13.1173 22.5368ZM15.0989 25.9383C15.6578 26.6129 16.2771 27.1933 16.9442 27.6618C16.773 27.6979 16.5997 27.7313 16.4252 27.7624C15.1067 27.9968 13.6024 28.1111 12.1112 28.1111C10.6201 28.1111 9.11578 27.9968 7.7973 27.7624C6.50751 27.5331 5.2868 27.1708 4.44541 26.6098C3.98588 26.3035 3.8617 25.6826 4.16806 25.2231C4.47441 24.7636 5.09528 24.6394 5.55481 24.9457C6.04675 25.2737 6.93715 25.5781 8.14737 25.7932C9.32889 26.0033 10.7135 26.1111 12.1112 26.1111C13.1394 26.1111 14.1605 26.0528 15.0989 25.9383Z" fill="#A7C9FC"/>
<path d="M23.7059 6.32835C23.0376 6.11398 22.3029 6 21.5 6C16.3438 6 14 10.701 14 16.5C14 22.299 16.8125 27 21.5 27C26.1875 27 29 22.299 29 16.5C29 13.4254 28.3411 10.6594 26.9536 8.73913" stroke="#0F5FD8" stroke-width="2" stroke-linecap="round"/>
<path d="M25.0215 18.335C25.0215 17.0285 24.3585 16.2875 22.7855 15.8195L21.063 15.319C20.1075 15.0395 19.685 14.6495 19.685 14.0775C19.685 13.2975 20.4585 12.719 21.4855 12.7385C22.571 12.7515 23.3965 13.434 23.5785 14.4415L24.963 14.1945C24.6445 12.719 23.663 11.7635 22.2265 11.5165V10.3465H20.868V11.4905C19.308 11.6985 18.3265 12.6995 18.3265 14.1425C18.3265 15.2865 19.0025 16.086 20.2765 16.4825L22.4735 17.1585C23.325 17.4315 23.676 17.789 23.676 18.413C23.676 19.2905 22.8505 19.9145 21.6805 19.9145C20.491 19.9145 19.581 19.2125 19.321 18.101L17.9755 18.3155C18.229 19.8495 19.3145 20.8895 20.868 21.1365V22.2935H22.2265V21.156C23.923 20.948 25.0215 19.869 25.0215 18.335Z" fill="#0F5FD8"/>
</svg>
