<svg width="32" height="32" viewBox="0 0 32 32" fill="none" xmlns="http://www.w3.org/2000/svg">
<path fill-rule="evenodd" clip-rule="evenodd" d="M20 4C19.4477 4 19 4.44772 19 5C19 5.55228 19.4477 6 20 6V7H22V6C22.5523 6 23 5.55228 23 5C23 4.44772 22.5523 4 22 4H20ZM23.0566 10.3089C21.4282 9.8084 19.6731 9.91892 18.1203 10.6198C16.5675 11.3207 15.3236 12.5638 14.6217 14.1161C13.9198 15.6684 13.8081 17.4235 14.3076 19.0523C14.8071 20.681 15.8834 22.0718 17.3349 22.9638C18.7863 23.8558 20.5133 24.1879 22.192 23.8978C23.8708 23.6076 25.3861 22.7153 26.4541 21.3879C26.8002 20.9576 27.4297 20.8894 27.86 21.2356C28.2903 21.5817 28.3585 22.2112 28.0123 22.6415C26.6393 24.3482 24.691 25.4955 22.5326 25.8685C20.3742 26.2416 18.1538 25.8146 16.2877 24.6677C14.4215 23.5209 13.0377 21.7328 12.3955 19.6386C11.7533 17.5445 11.8969 15.288 12.7993 13.2921C13.7017 11.2963 15.301 9.69798 17.2975 8.79687C19.2939 7.89576 21.5505 7.75366 23.6442 8.39721C25.738 9.04076 27.5251 10.4258 28.6708 12.2927C29.8165 14.1596 30.242 16.3802 29.8675 18.5384C29.7731 19.0825 29.2555 19.4471 28.7113 19.3527C28.1672 19.2583 27.8026 18.7407 27.897 18.1965C28.1882 16.518 27.8572 14.7908 26.9662 13.3388C26.0751 11.8867 24.6851 10.8095 23.0566 10.3089ZM20 17C20 17.3214 20.1545 17.6233 20.4153 17.8112C20.6761 17.9992 21.0113 18.0503 21.3162 17.9487L24.3162 16.9487C24.8402 16.774 25.1233 16.2077 24.9487 15.6838C24.774 15.1598 24.2077 14.8767 23.6838 15.0513L22 15.6126V13C22 12.4477 21.5523 12 21 12C20.4477 12 20 12.4477 20 13V17Z" fill="#0F5FD8"/>
<path fill-rule="evenodd" clip-rule="evenodd" d="M12.8586 10H3L4 12H11.3378C11.7601 11.27 12.272 10.5983 12.8586 10ZM10.0494 16H5L6 18H10.0494C10.0167 17.6711 10 17.3375 10 17C10 16.6625 10.0167 16.3289 10.0494 16ZM11.3378 22H2L3 24H12.8586C12.272 23.4017 11.7601 22.73 11.3378 22Z" fill="#A7C9FC"/>
</svg>
