<svg width="24" height="24" viewBox="0 0 24 24" fill="none" xmlns="http://www.w3.org/2000/svg">
<circle cx="12" cy="12" r="8" fill="#0F5FD8"/>
<path fill-rule="evenodd" clip-rule="evenodd" d="M9.87846 8.46447C9.48793 8.07394 8.85477 8.07394 8.46424 8.46447C8.07372 8.85499 8.07372 9.48816 8.46424 9.87868L10.5856 12L8.46425 14.1213C8.07372 14.5118 8.07372 15.145 8.46425 15.5355C8.85477 15.9261 9.48793 15.9261 9.87846 15.5355L11.9998 13.4142L14.1211 15.5355C14.5116 15.9261 15.1448 15.9261 15.5353 15.5355C15.9258 15.145 15.9258 14.5118 15.5353 14.1213L13.414 12L15.5353 9.87868C15.9258 9.48816 15.9258 8.85499 15.5353 8.46447C15.1448 8.07394 14.5116 8.07394 14.1211 8.46447L11.9998 10.5858L9.87846 8.46447Z" fill="white"/>
</svg>
