<svg width="18" height="18" viewBox="0 0 18 18" fill="none" xmlns="http://www.w3.org/2000/svg">
<path fill-rule="evenodd" clip-rule="evenodd" d="M16 9C16 12.866 12.866 16 9 16C5.13401 16 2 12.866 2 9C2 5.13401 5.13401 2 9 2C12.866 2 16 5.13401 16 9ZM18 9C18 13.9706 13.9706 18 9 18C4.02944 18 0 13.9706 0 9C0 4.02944 4.02944 0 9 0C13.9706 0 18 4.02944 18 9ZM9.0001 11.48C8.47432 11.48 8.0481 11.0538 8.0481 10.528V4.87198C8.0481 4.34621 8.47432 3.91998 9.0001 3.91998C9.52587 3.91998 9.9521 4.34621 9.9521 4.87198V10.528C9.9521 11.0538 9.52587 11.48 9.0001 11.48ZM9.0001 13.95C8.47542 13.95 8.0481 13.5247 8.0481 13C8.0481 12.4753 8.47542 12.05 9.0001 12.05C9.52477 12.05 9.9521 12.4753 9.9521 13C9.9521 13.5247 9.52477 13.95 9.0001 13.95Z" fill="#F5DD0A"/>
</svg>
